<svg version="1" xmlns="http://www.w3.org/2000/svg" width="213.333" height="213.333" viewBox="0 0 160 160"><path d="M64.4 7.5C38.1 13.3 17.7 31.8 8.7 57.8 4.8 69.3 4.1 86.1 7.1 98.3c7.2 28.7 29.1 50.1 57.5 56.1 8.7 1.9 26.7 1.4 34.9-.8 25-7 44.5-25.9 52.5-51.1 2.8-8.7 3.5-27.8 1.5-37.1-3.1-14.5-9.8-26.6-20.6-37.3-8-8.1-15-12.8-24.9-16.8-12.6-5.1-30.6-6.6-43.6-3.8zm33.1 2.9c8.3 2.2 23.1 9.7 28.5 14.5l4.5 4-2.7 2.5c-1.5 1.4-3 2.6-3.3 2.6-.4 0-2.5-1.5-4.8-3.4-5.9-4.7-12.1-8-20.2-10.7-5.9-2-9-2.4-19.5-2.4-10.6 0-13.6.4-19.5 2.4-9.1 3.1-11.8 4.7-24.1 13.6-.9.6-2.1.1-4-2l-2.7-2.9 4.4-3.8c8.2-7 24.7-14.3 36.9-16.1 5.3-.7 20.8.2 26.5 1.7zM79 23.1v3.8l-5.7.7C53.2 30 35.4 44.5 29.2 63.5c-1.8 5.3-3 11.5-3.2 15.3 0 .8-1.2 1.1-3.8.9-3.6-.3-3.7-.3-3.5-4.2C20 54.7 35 33.6 54.8 24.7c5.4-2.4 17.1-5.3 21.3-5.3 2.7 0 2.9.2 2.9 3.7zm20.1-.5c23.1 7.3 40.7 29.4 42.2 52.9.2 3.9.1 4-3 4.2-3.9.2-4 .1-4.8-5.7-1.6-12-7-22.6-15.9-31.5-7.6-7.5-16.5-12.1-27.9-14.3l-8.5-1.7.3-3c.1-1.6.3-3.4.4-3.8.2-1.2 8.8.3 17.2 2.9zM95 32c21.8 6.5 37.4 28.3 36.4 50.9-1.4 33.4-34.5 57-66.1 47.2-22.6-7-38.3-29.5-36.6-52.6 1.7-23.2 20.6-44.1 42.8-47.2 2.2-.3 4.1-.6 4.3-.8.9-.8 13.7.8 19.2 2.5zm-64 1.5c1.7 1.8 2.1 3 1.5 3.9C28.1 43.2 22 53.5 20.2 58c-3.2 8.2-3.7 11.4-3.6 24.5.1 16.5 2.8 23.6 15.9 42.1.7 1 .2 2.1-1.8 4.1l-2.8 2.8L24 127C13.8 115.3 7 95.1 7.6 78.3c.5-15.8 7.6-33.8 17.7-45.1 2.6-2.8 2.8-2.8 5.7.3zm106.4 3.1c16.8 21.4 19.8 52.2 7.5 76.6-3 6-9.9 16.1-11.8 17.2-1.4.9-6.6-4.5-5.5-5.8 11.7-15.5 16.2-27.6 16.2-44 0-16.3-3.6-25.7-16.3-43.2-.6-.9-.2-2.1 1.5-3.9 1.3-1.4 2.7-2.5 3.2-2.5.4 0 2.8 2.5 5.2 5.6zM27.1 90.2c.9 4.6 2.8 10.8 4.2 13.8 8.5 17.6 26.7 29.8 46.5 30.9.7.1 1.2 1.6 1.2 4.1 0 3.8-.1 4-2.7 3.6-1.6-.2-4.8-.8-7.3-1.1-25.9-4-47.4-27.3-50.5-54.8L18 82h7.6l1.5 8.2zm114.3-7.3c.8 1.3-1.3 12.8-3.4 18.9-5.9 16.6-21.1 31.8-37.3 37.1-8.7 2.9-18 4.2-18.9 2.7-1.1-1.6-.6-6.6.7-6.7 13.8-.9 25.6-6.2 35.4-15.8 9.5-9.3 15.2-21.9 16-34.9.1-1.8.7-2.2 3.5-2.2 1.9 0 3.7.4 4 .9zm-95.2 52.5c9.8 6.2 19.6 8.9 32.3 9 12 .1 15.1-.3 23.7-3.3 4.7-1.6 14.6-7.4 21.5-12.6.9-.7 2-.2 4 1.8l2.8 2.8-4 3.5c-7.1 6.1-21.5 13.5-29.2 14.9-1.5.2-4.9.8-7.4 1.3-6.4 1.2-18.1.7-26.4-1.2-8.7-2-23.5-9.3-29.5-14.5l-4.5-4 2.9-3 3-3.1 2.5 2.4c1.4 1.3 5.2 4 8.3 6z"/></svg>