<svg width="32" height="32" xmlns="http://www.w3.org/2000/svg"><path fill-rule="evenodd" clip-rule="evenodd" d="M23.416 3.4a196.71 196.71 0 0 1-3.236 2.267c-1.45 1.017-2.9 2.054-4.335 3.08h-.001l-1.192.853c-.236.167-.405.2-.607-.033a31.916 31.916 0 0 0-.927-.917c-.312-.3-.624-.6-.927-.917-.169-.166-.337-.2-.573-.1-1.45.734-2.596 1.767-3.54 3.067a1.845 1.845 0 0 0-.202.267c-.22-.287-.436-.563-.649-.835l-.006-.009a101.617 101.617 0 0 1-1.797-2.356l-.004-.004c-.216-.292-.43-.58-.645-.863-.168-.233-.202-.4.034-.633 2.595-2.834 5.798-4.5 9.64-4.9 3.034-.334 5.933.266 8.63 1.7.05.033.1.058.151.083.051.025.102.05.152.083 0 .1 0 .134.034.167zm-13.39 21.31c.266-.198.538-.4.817-.61-.072-.047-.135-.09-.194-.13a5.702 5.702 0 0 0-.312-.203c-1.213-.9-2.19-2-2.899-3.334-.135-.233-.101-.4.101-.6a59.661 59.661 0 0 0 2.056-2.066c.05-.049.08-.097.12-.159l.049-.075c-1.096-1.429-2.201-2.858-3.306-4.288l-.024-.03-.024-.032c-1.12-1.45-2.241-2.9-3.354-4.35a.747.747 0 0 1-.05.023c-.034.014-.051.02-.051.044a1.95 1.95 0 0 1-.068.117c-.025.042-.05.083-.067.116-1.618 3.034-2.157 6.234-1.55 9.6.606 3.334 2.224 6.134 4.786 8.4.27.234.438.234.674.034.284-.215.567-.421.851-.627l.004-.003.005-.004c.286-.208.573-.416.86-.633.517-.4 1.035-.787 1.573-1.187l.003-.003zm17.367.823a1472.747 1472.747 0 0 1-3.303-4.366.873.873 0 0 1-.101.058l-.013.007.013.001c-.017.034-.042.067-.067.1a.696.696 0 0 0-.068.1 9.307 9.307 0 0 1-3.101 2.834l-.24.134c-.275.155-.4.225-.506.204-.089-.017-.165-.096-.305-.242a8.076 8.076 0 0 0-.298-.296 97.706 97.706 0 0 1-.976-.933h-.002c-.32-.31-.644-.622-.977-.934-1.807 1.325-3.602 2.65-5.407 3.983l-.03.022c-1.18.872-2.366 1.748-3.563 2.628 3.405 1.867 6.91 2.434 10.618 1.667 3.337-.7 6.102-2.367 8.326-4.967zm-.472-4.7c.64.834 1.281 1.667 1.99 2.567.1-.233.201-.4.302-.533 1.146-2.234 1.72-4.6 1.652-7.1-.168-4.3-1.888-7.867-5.09-10.734-.236-.233-.404-.166-.606 0-.64.484-1.281.959-1.922 1.434-.64.475-1.28.95-1.921 1.433-.03.03-.068.06-.109.093-.05.04-.105.085-.16.14.086.043.158.1.226.152.038.03.074.058.11.082a9.914 9.914 0 0 1 3.068 3.5c.134.233.067.4-.102.566-.32.317-.632.634-.943.95-.312.317-.624.634-.944.95-.236.234-.236.4-.034.667 1.06 1.352 2.105 2.72 3.144 4.081.447.586.893 1.17 1.34 1.752z" fill="#86929E"/></svg>