<svg width="32" height="32" xmlns="http://www.w3.org/2000/svg"><g fill-rule="evenodd" clip-rule="evenodd" fill="#86929E"><path opacity=".3" d="M28.66 24.953l-11.41 6.704a2.478 2.478 0 0 1-2.515 0L3.324 24.953a2.568 2.568 0 0 1-1.258-2.216V9.33c0-.914.48-1.76 1.258-2.216L14.734.41a2.478 2.478 0 0 1 2.516 0l11.411 6.704a2.568 2.568 0 0 1 1.258 2.216v13.407c0 .914-.48 1.759-1.258 2.216z"/><path opacity=".3" d="M26.042 23.17l-9 5.288c-.65.38-1.45.38-2.099 0l-9-5.288a2.142 2.142 0 0 1-1.05-1.85V10.747c0-.763.4-1.468 1.05-1.85l9-5.287a2.068 2.068 0 0 1 2.099 0l9 5.288a2.143 2.143 0 0 1 1.05 1.85V21.32c0 .763-.4 1.468-1.05 1.85z"/><path opacity=".3" d="M23.51 21.305l-6.79 3.988a1.436 1.436 0 0 1-1.456 0l-6.788-3.988a1.487 1.487 0 0 1-.729-1.284v-7.976c0-.53.278-1.018.729-1.283l6.788-3.988a1.435 1.435 0 0 1 1.457 0l6.788 3.988c.451.265.729.754.729 1.283v7.976c0 .53-.278 1.02-.729 1.284z"/><path d="M19.879 19.093l-3.225 1.895c-.41.24-.914.24-1.323 0l-3.225-1.895a1.35 1.35 0 0 1-.66-1.165v-3.79c0-.48.251-.924.66-1.164l3.225-1.895c.41-.24.913-.24 1.323 0l3.225 1.895c.409.24.66.684.66 1.165v3.789c0 .48-.251.925-.66 1.165z"/></g></svg>