<svg width="32" height="32" xmlns="http://www.w3.org/2000/svg"><g fill="#83929F"><path d="M6.912 8h1.315c2.055.214 3.955 1.314 5.363 2.897 2.922 3.261 4.528 7.864 8.247 10.291 2.688 1.757 6.448.32 7.77-2.645a79.95 79.95 0 0 1 2.019-.01c-.925 3.013-3.62 5.178-6.567 5.467h-1.085a8.321 8.321 0 0 1-4.95-2.185c-1.994-1.798-3.274-4.263-4.822-6.458-1.332-1.94-2.692-4.123-4.896-5.005-2.724-1.086-6.052.613-7.044 3.5-.873 2.376-.163 5.324 1.79 6.846 1.462 1.205 3.5 1.654 5.257.953 1.952-.749 3.401-2.451 4.512-4.255.438.667.864 1.344 1.286 2.025-1.728 2.315-4.125 4.303-6.976 4.579H6.963C3.37 23.735.246 20.487 0 16.65v-1.256C.234 11.564 3.315 8.279 6.912 8"/><path d="M23.9 8h1.092c3.626.252 6.71 3.564 7.008 7.4v1.969c-2.992.03-5.987.01-8.98.013.004-.575.004-1.147 0-1.722 2.366-.007 4.727.01 7.089-.007-.167-1.018-.384-2.06-.95-2.921-1.383-2.247-4.305-3.166-6.64-2.192-1.863.735-3.265 2.345-4.346 4.064a83.864 83.864 0 0 1-1.229-1.93C18.65 10.325 21.03 8.293 23.901 8"/></g></svg>