<svg width="32" height="32" xmlns="http://www.w3.org/2000/svg"><g fill="#86929E"><path d="M22.149 4.617a12.506 12.506 0 0 0-6.503-1.818c-2.117 0-4.207.533-6.04 1.548l-.883-1.574A14.292 14.292 0 0 1 15.639 1c2.639 0 5.22.72 7.458 2.081l-.948 1.536z"/><path opacity=".4" d="M28.99 12.163a12.233 12.233 0 0 0-2.459-4.631l1.168-.964a13.823 13.823 0 0 1 2.748 5.19l-1.458.405z"/><path d="M25.947 26.953l-1.174-1.375a12.272 12.272 0 0 0 4.406-9.411H31c0 4.156-1.84 8.088-5.052 10.786zm-10.465 4.032a14.4 14.4 0 0 1-9.084-3.231L7.56 26.36a12.542 12.542 0 0 0 7.922 2.82c2.02 0 3.949-.463 5.723-1.375l.839 1.6a14.384 14.384 0 0 1-6.562 1.58z"/><path opacity=".4" d="M3.323 23.12A13.83 13.83 0 0 1 1 15.43c0-3.823 1.529-7.394 4.303-10.054l1.052 1.086c-2.471 2.37-3.839 5.557-3.839 8.968 0 2.447.716 4.824 2.071 6.86l-1.264.83z"/><path fill-rule="evenodd" clip-rule="evenodd" d="M6.177 15.491c0 5.069 4.168 9.2 9.29 9.2 5.123 0 9.29-4.125 9.29-9.2 0-5.068-4.167-9.199-9.29-9.199-5.122 0-9.29 4.124-9.29 9.2zm1.82 0c0-4.079 3.354-7.4 7.47-7.4 4.123 0 7.471 3.321 7.471 7.4 0 4.08-3.355 7.4-7.47 7.4-4.123 0-7.472-3.32-7.472-7.4z"/></g></svg>