<svg width="32" height="32" xmlns="http://www.w3.org/2000/svg"><path fill-rule="evenodd" clip-rule="evenodd" d="M27 6.95a2.482 2.482 0 0 1-.728-.272l-8.294 8.293A2.5 2.5 0 0 1 16.5 18.95v6.1c.307.062.593.18.848.344l8.046-8.046A2.5 2.5 0 0 1 27 13.55v-6.6zm-1.485-.93l-8.296 8.297a2.5 2.5 0 0 0-3.402 3.402L6.02 25.515A2.5 2.5 0 1 0 6.95 28h6.6a2.5 2.5 0 0 0 4.9 0h6.6A2.5 2.5 0 1 0 28 25.05v-6.6a2.5 2.5 0 0 0 0-4.9v-6.6a2.5 2.5 0 1 0-2.485-.93zM25.05 27c.199-.98.97-1.751 1.95-1.95v-6.6a2.488 2.488 0 0 1-.909-.384l-8.025 8.025c.184.27.317.578.384.909h6.6zm-11.5 0c.199-.98.97-1.751 1.95-1.95v-6.1a2.489 2.489 0 0 1-1.029-.472l-7.793 7.794c.126.223.22.468.272.728h6.6z" fill="#86929E"/></svg>