<svg width="32" height="32" xmlns="http://www.w3.org/2000/svg"><path d="M27.03 21.221a4.907 4.907 0 0 0-4.902 4.93 4.923 4.923 0 0 0 4.94 4.898c2.703-.005 4.917-2.232 4.908-4.936-.01-2.708-2.222-4.897-4.946-4.892M19.369 5.5a4.308 4.308 0 0 0-4.323-4.332c-2.426-.005-4.328 1.884-4.335 4.306a4.31 4.31 0 0 0 4.307 4.348 4.348 4.348 0 0 0 4.35-4.321M3.676 21.603A3.65 3.65 0 0 0 0 25.2a3.637 3.637 0 0 0 3.602 3.667 3.615 3.615 0 0 0 3.665-3.592 3.624 3.624 0 0 0-3.59-3.672m7.909-10.361a2.84 2.84 0 0 0-2.905 2.841 2.814 2.814 0 0 0 2.797 2.854c1.628.025 2.891-1.206 2.9-2.828a2.83 2.83 0 0 0-2.792-2.867m7.551 6.788c-1.617-.024-2.912 1.24-2.91 2.84a2.835 2.835 0 0 0 2.84 2.828 2.812 2.812 0 0 0 2.856-2.802 2.806 2.806 0 0 0-2.786-2.867m-1.449-1.58a1.88 1.88 0 0 0 1.908-1.825 1.874 1.874 0 0 0-1.844-1.968c-1.085-.024-1.93.785-1.947 1.863a1.872 1.872 0 0 0 1.883 1.93" fill-rule="evenodd" clip-rule="evenodd" fill="#86929E"/></svg>