<svg width="32" height="32" xmlns="http://www.w3.org/2000/svg"><path fill-rule="evenodd" clip-rule="evenodd" d="M21.024 19.475c-.87.665-2.068.998-3.598.998H10.15v-1.818a2.193 2.193 0 1 0 0-4.386v-1.461a2.193 2.193 0 1 0 0-4.386V6.83h6.362c1.562 0 2.784.311 3.666.933.881.621 1.322 1.55 1.322 2.787 0 .6-.177 1.14-.53 1.622-.353.48-.844.846-1.473 1.096.907.144 1.606.522 2.095 1.134.49.612.734 1.33.734 2.155 0 1.28-.434 2.253-1.302 2.919zM10.15 25.382h11.807v-1.977H10.15v1.977zM15.995 1C7.714 1 1 7.714 1 15.995c0 8.282 6.714 14.996 14.995 14.996 8.282 0 14.996-6.714 14.996-14.996C30.99 7.714 24.276 1 15.995 1zm2.506 11.072c.424-.334.636-.807.636-1.42 0-.674-.223-1.175-.67-1.503-.448-.328-1.099-.492-1.955-.492h-2.274v3.916h2.527c.733 0 1.311-.167 1.736-.5zm.821 2.844c-.434-.406-1.043-.622-1.828-.647h-3.256v4.386h3.188c.817 0 1.446-.18 1.886-.539.441-.36.662-.88.662-1.56 0-.687-.218-1.234-.652-1.64z" fill="#86929E"/></svg>