<svg width="32" height="32" xmlns="http://www.w3.org/2000/svg"><path d="M17.49 17.168a3.517 3.517 0 0 0 1.966-3.16 3.51 3.51 0 0 0-3.503-3.514 3.51 3.51 0 0 0-3.505 3.514 3.515 3.515 0 0 0 1.967 3.16v4.34h3.075v-4.34M15.953 27.25C9.769 27.25 4.738 22.204 4.738 16S9.77 4.75 15.953 4.75c5.046 0 9.323 3.36 10.727 7.968h3.865C29.054 6.013 23.087 1 15.953 1 7.695 1 1 7.716 1 16c0 8.284 6.695 15 14.953 15 7.134 0 13.1-5.013 14.592-11.718H26.68C25.276 23.89 21 27.25 15.953 27.25" fill="#86929E"/></svg>