<svg width="32" height="32" xmlns="http://www.w3.org/2000/svg"><path fill-rule="evenodd" clip-rule="evenodd" d="M4.738 16c0 6.204 5.03 11.25 11.215 11.25 5.046 0 9.323-3.36 10.727-7.968h3.865C29.054 25.986 23.087 31 15.953 31 7.695 31 1 24.284 1 16 1 7.716 7.695 1 15.953 1c7.134 0 13.1 5.013 14.592 11.718H26.68C25.276 8.111 21 4.751 15.953 4.751 9.769 4.75 4.738 9.796 4.738 16zm14.718-1.992a3.51 3.51 0 0 0-3.503-3.514zm-3.503-3.514a3.51 3.51 0 0 0-3.505 3.514zm-3.505 3.514a3.515 3.515 0 0 0 1.967 3.16zm1.967 3.16v4.34zm0 4.34h3.075zm3.075 0v-4.34z" fill="#86929E"/></svg>