<svg width="32" height="32" xmlns="http://www.w3.org/2000/svg"><g fill="#86929E"><path opacity=".25" d="M14.427 14.796l-3.36-5.768-3.418-5.824a2.43 2.43 0 0 0-.791-.812H6.83a2.141 2.141 0 0 0-.82.84L3.47 7.6a1.983 1.983 0 0 0 0 2.016l3.05 5.236c.226.364.31.784.31 1.204 0 .42-.112.84-.31 1.204l-3.022 5.18a1.983 1.983 0 0 0 0 2.016l2.542 4.368c.197.336.48.644.819.84h.028a2.19 2.19 0 0 0 .79-.812l3.39-5.824 3.361-5.824a2.44 2.44 0 0 0 0-2.408z"/><g opacity=".6"><path opacity=".25" d="M30.639 14.628l-3.39-5.796-3.473-5.964a2.473 2.473 0 0 0-.622-.7.696.696 0 0 0-.451-.168c-1.78 0-2.994.056-3.898.056-.141 0-.226.168-.198.308l.876 4.872c0 .056 0 .112-.028.168a2 2 0 0 0 .056 1.988l3.107 5.376c.226.392.339.812.339 1.232 0 .42-.113.84-.34 1.232l-3.134 5.376a2.073 2.073 0 0 0-.057 1.988.352.352 0 0 1 .029.168l-.876 4.844c-.028.14.056.308.198.308.819 0-.34.084 4.01.084.085 0 .198-.028.283-.056.31-.112.508-.476.678-.784l3.474-5.992 3.36-5.796c.537-.84.537-1.876.057-2.744z"/><path d="M29.255 14.796l-6.75-11.592A2.425 2.425 0 0 0 20.415 2h-13.5c-.453 0-.876.14-1.272.364v.028c.311.196.594.476.791.812l3.39 5.824a2.55 2.55 0 0 1 1.016-.224h5.593c.875 0 1.666.448 2.09 1.204l2.796 4.788a2.44 2.44 0 0 1 0 2.408l-2.796 4.788a2.46 2.46 0 0 1-2.09 1.204h-5.565c-.367 0-.706-.084-1.016-.224l-3.39 5.824a2.43 2.43 0 0 1-.79.812v.028c.367.224.819.364 1.27.364h13.53c.875 0 1.666-.448 2.09-1.204l6.75-11.592a2.442 2.442 0 0 0-.057-2.408z"/></g><path d="M13.184 14.796l-3.36-5.768-3.39-5.824a2.43 2.43 0 0 0-.79-.812h-.029a2.141 2.141 0 0 0-.819.84l-2.514 4.34a1.983 1.983 0 0 0 0 2.016l3.05 5.236c.227.364.311.784.311 1.204 0 .42-.113.84-.31 1.204l-3.05 5.208a1.983 1.983 0 0 0 0 2.016l2.541 4.368c.198.336.48.644.82.84h.028c.339-.196.593-.476.79-.812l3.39-5.824 3.36-5.768c.424-.812.424-1.708-.028-2.464z"/></g></svg>