<svg width="32" height="32" xmlns="http://www.w3.org/2000/svg"><g fill-rule="evenodd" clip-rule="evenodd" fill="#86929E"><path d="M29.533 7.745A2933.442 2933.442 0 0 1 25.459 5.4l-2.513-1.447c-.86-.494-1.719-.988-2.577-1.483l-.03-.017-.012-.006c-1.392-.801-2.784-1.602-4.177-2.4L16.07 0l-.084.033c-.15.056-.266.112-.374.173l-.201.118a8662.182 8662.182 0 0 1-8.287 4.86c-1.591.932-3.18 1.864-4.76 2.795-.301.14-.294.456-.29.648v.003l.002.038v.004a8548.646 8548.646 0 0 1-.02 11l-.01 4.05c-.018.243.09.449.272.533a7674.3 7674.3 0 0 1 8.428 4.803l4.969 2.834a.63.63 0 0 0 .327.108.372.372 0 0 0 .234-.08l7.208-4.16 2.687-1.552.146-.084c1.1-.636 2.2-1.27 3.295-1.901.23-.104.365-.333.337-.549l.023-15.32c.033-.352-.262-.516-.44-.61zm-13.514.965l5.927 3.457-5.918 3.42-2.015-1.143-1.991-1.129-1.991-1.129 5.988-3.476zm.299-.764l6.436 3.753 5.998-3.467c-.761-.44-1.522-.877-2.283-1.315l-.128-.074h-.001l-2.412-1.39a2648.26 2648.26 0 0 1-7.9-4.549c-2.87 1.678-5.736 3.355-8.601 5.037L3.295 8.363l5.922 3.355 6.521-3.786a.514.514 0 0 1 .58.014zm-13.43 1.12l5.895 3.345.121 7.38c-.014.229.098.435.276.515a1363.361 1363.361 0 0 0 3.922 2.258l2.515 1.448-.005 6.892L2.86 23.632l.028-14.566zm12.738 7.225l-6.025-3.416.112 6.803 5.904 3.401.01-6.788zm.804 7.725l2.52-1.447c.665-.385 1.332-.768 2-1.152l.027-.015.106-.06c.582-.335 1.166-.67 1.751-1.008l.038-.024a.706.706 0 0 0 .229-.192l.037-.051v-.061a422.16 422.16 0 0 1-.01-4.887l.002-.9c0-.6.002-1.199-.001-1.798l6.03-3.486-.01 5.945-.014 8.682a5055.79 5055.79 0 0 0-4.888 2.819l-.225.13-.156.09-2.813 1.623-4.632 2.675.01-6.883zm.005-7.725l-.005 6.793c1.982-1.143 3.964-2.282 5.941-3.415V12.86l-5.936 3.43z"/><path d="M15.846 1.705a.52.52 0 0 0-.407.296c-.08.173-.07.36.028.5a.53.53 0 0 0 .453.24c.033 0 .07-.005.108-.01.22-.037.383-.187.42-.379a.491.491 0 0 0-.12-.478.526.526 0 0 0-.482-.169zm.341 2.235a.538.538 0 0 0-.556.014.522.522 0 0 0-.253.403.49.49 0 0 0 .169.422.51.51 0 0 0 .36.14c.08 0 .159-.018.233-.051a.504.504 0 0 0 .318-.464.505.505 0 0 0-.271-.464zm-.542 2.179a.546.546 0 0 1 .565.019.519.519 0 0 1 .248.478.5.5 0 0 1-.313.426.584.584 0 0 1-.234.051.526.526 0 0 1-.332-.112.495.495 0 0 1-.2-.45.495.495 0 0 1 .266-.412zM7.53 20.489a.52.52 0 0 0-.365.398.513.513 0 0 0 .169.51.473.473 0 0 0 .434.108.498.498 0 0 0 .36-.295.513.513 0 0 0-.089-.567c-.13-.155-.327-.21-.51-.155zm16.632 1.016a.44.44 0 0 1-.131.019.437.437 0 0 1-.323-.131.525.525 0 0 1-.168-.506.51.51 0 0 1 .35-.403.493.493 0 0 1 .524.15.527.527 0 0 1 .089.58.474.474 0 0 1-.341.291zm-18.492.09a.505.505 0 0 0-.332.444.534.534 0 0 0 .247.51.482.482 0 0 0 .253.076.537.537 0 0 0 .22-.052.486.486 0 0 0 .29-.374.53.53 0 0 0-.188-.516.458.458 0 0 0-.49-.089zm20.357.992a.498.498 0 0 1-.496-.08.532.532 0 0 1-.182-.505.522.522 0 0 1 .337-.413.485.485 0 0 1 .504.108.51.51 0 0 1 .16.516.489.489 0 0 1-.323.374zm-21.76.136a.484.484 0 0 0-.49 0 .526.526 0 0 0-.267.469.516.516 0 0 0 .5.525.529.529 0 0 0 .28-.085.511.511 0 0 0 .244-.464.498.498 0 0 0-.267-.445zm23.4.994a.457.457 0 0 1-.303-.118.502.502 0 0 1-.197-.44.531.531 0 0 1 .257-.436.465.465 0 0 1 .524.014.52.52 0 0 1 .234.525c-.01.164-.136.333-.318.412a.494.494 0 0 1-.197.043z"/></g></svg>