<svg width="32" height="32" xmlns="http://www.w3.org/2000/svg"><g fill="#86929E"><path fill-rule="evenodd" clip-rule="evenodd" d="M19.673 9.086l3.404-3.4a12.33 12.33 0 0 0-7.323-2.397C8.91 3.29 3.362 8.84 3.362 15.681c0 2.74.888 5.273 2.392 7.324l3.401-3.4A7.657 7.657 0 0 1 8.08 15.68a7.671 7.671 0 0 1 7.67-7.67c1.435 0 2.775.39 3.923 1.075zm-3.92 14.266a7.671 7.671 0 0 0 6.584-11.61l3.401-3.402a12.34 12.34 0 0 1 2.407 7.341c0 6.843-5.548 12.392-12.391 12.392a12.34 12.34 0 0 1-7.342-2.407l3.404-3.4a7.626 7.626 0 0 0 3.938 1.086z"/><path d="M31.982 3.23a3.229 3.229 0 1 1-6.458 0 3.229 3.229 0 0 1 6.458 0zM6.455 28.753a3.229 3.229 0 1 1-6.457 0 3.229 3.229 0 0 1 6.457 0z"/></g></svg>