<svg width="32" height="32" xmlns="http://www.w3.org/2000/svg"><g fill="none"><path opacity=".815" fill-rule="evenodd" clip-rule="evenodd" d="M14.729 13.856a.699.699 0 0 1-.122.07l.24 15.684 8.238-6.862-8.356-8.892z" fill="#86929E"/><path opacity=".5" fill-rule="evenodd" clip-rule="evenodd" d="M15.01 13.422l8.234 8.747.246-13.477-8.508 4.332a.737.737 0 0 1 .027.398" fill="#86929E"/><path opacity=".2" fill-rule="evenodd" clip-rule="evenodd" d="M14.589 12.605l8.781-4.521-8.781-6.648v11.169z" fill="#86929E"/><path opacity=".5" fill-rule="evenodd" clip-rule="evenodd" d="M13.61 13.272a.71.71 0 0 1 .434-.66V1.493L8.28 7.955a.72.72 0 0 1-.119.634L9.6 22.65l4.698 6.785-.236-15.493a.71.71 0 0 1-.451-.669" fill="#86929E"/><path fill-rule="evenodd" clip-rule="evenodd" d="M14.599 31.994a.612.612 0 0 0 .605-.614.612.612 0 0 0-.605-.615.612.612 0 0 0-.606.615c0 .337.273.614.606.614m9.381-7.831a.612.612 0 0 0 .605-.614.612.612 0 0 0-.606-.615.612.612 0 0 0-.605.615c0 .337.273.614.605.614m-14.809 0a.612.612 0 0 0 .605-.614.612.612 0 0 0-.605-.615.612.612 0 0 0-.606.615c0 .337.273.614.606.614M7.605 8.773a.612.612 0 0 0 .606-.615.612.612 0 0 0-.606-.615.612.612 0 0 0-.605.615c0 .337.273.615.605.615zm6.718 5.119a.612.612 0 0 0 .605-.615.612.612 0 0 0-.605-.615.612.612 0 0 0-.606.615c0 .337.273.615.606.615m9.942-5.119a.612.612 0 0 0 .605-.615.612.612 0 0 0-.605-.615.612.612 0 0 0-.605.615c0 .337.272.615.605.615" fill="#86929E"/><mask id="a" maskUnits="userSpaceOnUse" x="13" y="0" width="2" height="2"><path fill-rule="evenodd" clip-rule="evenodd" d="M0 0h1.21v1.234H0V0z" transform="translate(13.717 .013)" fill="#fff"/></mask><g mask="url(#a)"><path fill-rule="evenodd" clip-rule="evenodd" d="M14.323 1.247a.612.612 0 0 0 .605-.615.616.616 0 0 0-.605-.62.612.612 0 0 0-.606.615c0 .338.273.62.606.62" fill="#86929E"/></g></g></svg>