<svg width="32" height="32" xmlns="http://www.w3.org/2000/svg"><path fill-rule="evenodd" clip-rule="evenodd" d="M4.592 13.707C3.087 14.447 1.588 15.19 0 15.98l.132.052c.115.044.197.076.285.105l.022.008a1846.19 1846.19 0 0 0 8.862 3.006c.324.108.51.29.657.588a2626.12 2626.12 0 0 0 4.76 9.68l.562 1.14c.215.441.436.882.696 1.397.039-.105.067-.175.09-.232l.037-.096.57-1.671c.815-2.392 1.63-4.783 2.43-7.18.131-.397.337-.632.714-.818 2.701-1.32 5.397-2.65 8.093-3.982l3.36-1.659c.123-.058.244-.12.38-.19l.301-.152-.176-.063-.25-.09-2.965-1.008c-1.973-.67-3.946-1.34-5.915-2.02-.216-.073-.47-.235-.564-.426a3222.564 3222.564 0 0 1-4.791-9.69L16.206.48A15.87 15.87 0 0 0 15.96 0l-.08.21-.072.187-.563 1.658c-.823 2.423-1.647 4.85-2.46 7.275a.941.941 0 0 1-.53.603c-2.538 1.245-5.07 2.494-7.603 3.743l-.061.03zm13.112-7.68l-.107-.216-1.455-2.95c-1.185 3.505-2.351 6.95-3.525 10.415l-.424 1.254-1.098 3.244c1.7-.842 3.377-1.67 5.045-2.495l.12-.059.068-.034c1.581-.78 3.155-1.558 4.739-2.342l-3.363-6.818zM2.872 15.808c1.283.435 2.539.86 3.787 1.285l.186.063 2.946 1c.368-1.09.735-2.17 1.103-3.256l.023-.068 1.221-3.606c-2.034 1.01-4.024 1.992-6.021 2.979l-.064.031-.022.01-.17.085-2.99 1.477zm8.355 4.023l1.25 2.535.106.214c1.071 2.174 2.13 4.321 3.211 6.518.328-.966.649-1.917.968-2.862.46-1.361.917-2.71 1.38-4.072l-6.915-2.333zm.504-1.024c-.027-.016-.06-.036-.102-.059.457-.225.885-.44 1.303-.649l.02-.01.004-.002.412-.206 2.165-1.068c1.99-.983 3.979-1.965 5.975-2.936a.987.987 0 0 1 .691-.044c1.561.514 3.115 1.042 4.668 1.569h.003l.053.019.087.03 1.677.568c.077.024.153.055.274.103l.084.034c-.789.397-1.514.76-2.24 1.117l-1.106.546a1849.856 1849.856 0 0 1-6.553 3.223c-.176.088-.436.137-.617.078-2.235-.74-4.465-1.5-6.694-2.26a.62.62 0 0 1-.104-.053z" fill="#86929E"/></svg>