<svg width="32" height="32" xmlns="http://www.w3.org/2000/svg"><path fill-rule="evenodd" clip-rule="evenodd" d="M15.972 30.227c-7.885-.001-14.254-6.374-14.25-14.257C1.727 8.126 8.13 1.78 16.03 1.787c7.83.007 14.2 6.389 14.2 14.225 0 7.85-6.385 14.216-14.258 14.215zm.06-29.16C7.723 1.041 1 7.736 1 15.996c0 8.238 6.698 14.947 14.929 14.953 8.292.006 15.013-6.667 15.022-14.908.008-8.248-6.644-14.951-14.918-14.976zm7.307 5.87c-1.065-.818-2.298-1.132-3.618-1.134-1.512-.002-2.958.342-4.353.906a21.344 21.344 0 0 0-5.208 3.034c-1.196.94-2.293 1.974-3.15 3.241-.912 1.348-1.47 2.809-1.48 4.453-.004.627.052 1.247.246 1.845.379 1.171 1.03 2.18 1.878 3.065.987 1.03 2.16 1.794 3.443 2.407 1.928.922 3.941 1.27 6.062.949a8.351 8.351 0 0 0 3.764-1.541c.15-.111.294-.233.44-.35-.284.08-.546.193-.81.303-.589.244-1.19.449-1.834.48-1.024.05-1.999-.172-2.933-.579-1.353-.589-2.505-1.456-3.52-2.518-.564-.592-1.022-1.237-1.23-2.046-.211-.821-.405-1.642-.245-2.496.109-.584.196-1.178.37-1.744.31-1.017.89-1.891 1.588-2.687.911-1.039 2.019-1.826 3.215-2.501 1.43-.807 2.93-1.411 4.565-1.665 1.272-.197 2.425.088 3.48.802a4.921 4.921 0 0 1 1.683 1.964l.062-.018c-.175-.525-.327-1.06-.53-1.575-.405-1.022-1.003-1.916-1.885-2.595zm-.206 2.758c-1.146-.597-2.343-.727-3.6-.419-1.717.422-3.25 1.196-4.572 2.367-2.071 1.834-3.052 4.14-2.954 6.901.003.082.008.164.012.245.134-.339.23-.677.328-1.015.21-.727.437-1.453.858-2.089 1.507-2.278 3.625-3.366 6.368-3.192.892.057 1.63.446 2.21 1.13.523.617.834 1.334.984 2.121.167.872.134 1.755.004 2.621-.267 1.78-1.123 3.244-2.524 4.382-.269.218-.564.402-.847.602l.016.048c.39-.146.796-.261 1.17-.443 1.895-.92 3.171-2.408 3.924-4.356.577-1.495.811-3.053.798-4.65a5.632 5.632 0 0 0-.53-2.387c-.368-.779-.858-1.456-1.645-1.866z" fill="#86929E"/></svg>