<svg width="32" height="32" xmlns="http://www.w3.org/2000/svg"><g fill-rule="evenodd" clip-rule="evenodd" fill="#86929E"><path opacity=".6" d="M11.047 20.174c0 5.15 5.533 10.336 12.03 8.272a.555.555 0 0 0-.372-.143c-3.232-.06-6.772-2.318-6.772-5.963 0-2.02.54-3.45 1.55-4.537-1.35-1.245-2.569-2.766-3.854-4.16-1.626 1.55-2.582 3.741-2.582 6.53"/><path opacity=".4" d="M6.108 18.11c0-3.443 1.071-5.977 3.09-7.942a7.216 7.216 0 0 0-2.864-.586c-1.622 0-4.242.744-5.13 3.923A14.816 14.816 0 0 0 1 15.955c0 8.26 6.809 14.956 15.208 14.956 2.417 0 4.702-.554 6.73-1.54a.548.548 0 0 0 .321-.503c-8.84 3.17-17.151-2.822-17.151-10.757"/><path opacity=".5" d="M23.077 28.446c-6.497 2.064-12.03-3.122-12.03-8.273 0-2.789.956-4.98 2.582-6.53-1.333-1.446-2.736-2.754-4.43-3.475-2.02 1.965-3.091 4.5-3.091 7.943 0 7.935 8.31 13.927 17.151 10.757a.57.57 0 0 0-.182-.422"/><path d="M6.334 9.582c7.449 0 9.57 10.81 16.915 10.81 4.42 0 8.6-3.412 7.557-8.644C29.59 5.642 23.122 1 16.208 1 8.658 1 2.394 6.411 1.204 13.505c.888-3.18 3.508-3.923 5.13-3.923"/><path opacity=".4" d="M16.242 19.993a5.425 5.425 0 0 1 1.241-2.19c-1.35-1.245-2.569-2.766-3.854-4.16-1.332-1.446-2.736-2.754-4.43-3.475a7.216 7.216 0 0 0-2.865-.586c-1.512 0-3.89.647-4.925 3.31 1.123-.98 2.515-1.266 3.522-1.266 5.157 0 7.76 5.179 11.31 8.367"/></g></svg>