<svg width="32" height="32" xmlns="http://www.w3.org/2000/svg"><path fill-rule="evenodd" clip-rule="evenodd" d="M19.551 1.731c3.818 1.326 4.72 4.631 3.818 7.871-1.031 3.707-5.1 6.6-9.242 6.638-.587.006-.813.143-.951.696-.81 3.242-1.63 6.482-2.53 9.703-.804 2.873-3.132 4.473-6.317 4.355.11-.426.22-.846.329-1.262.234-.891.463-1.765.67-2.643.436-1.848.865-3.698 1.295-5.547.685-2.95 1.37-5.9 2.078-8.846.56-2.325 1.14-4.651 1.868-6.933.646-2.023 2.75-2.744 4.797-1.82.498.226.682.464.54 1.045-.606 2.49-1.168 4.99-1.73 7.49l-.42 1.86c-.029.126-.035.256-.044.45-.005.112-.011.246-.024.412.27-.11.531-.204.78-.294.511-.185.975-.352 1.375-.606 2.257-1.43 3.409-3.54 3.793-5.982.16-1.022.083-2.132-.17-3.14-.379-1.518-1.549-2.446-3.232-2.598-4.76-.428-8.455 1.614-9.877 5.463-.56 1.516-.516 3.062.072 4.672l-.07-.003c-1.373-.049-2.689-.096-3.6-1.122-.95-1.07-.914-2.335-.409-3.563.747-1.817 2.215-3.091 3.9-4.15 2.876-1.806 6.008-2.99 9.53-2.868 1.269.043 2.58.309 3.771.722zm-2.55 22.835c-.055-3.193 2.88-6.438 6.705-6.272 3.305.143 6.385 2.828 6.292 6.481-.09 3.551-2.96 6.255-6.68 6.212-3.546-.041-6.355-2.897-6.317-6.421z" fill="#86929E"/></svg>