<svg width="32" height="32" xmlns="http://www.w3.org/2000/svg"><path fill-rule="evenodd" clip-rule="evenodd" d="M18.104.08H6c.096.057.197.1.298.145l.09.039c2.314 1.061 4.533 2.372 6.503 4.02 1.808 1.523 3.405 3.36 4.547 5.484 1.07 1.985 1.743 4.226 1.809 6.51 0 .322 0 .645-.037.967h6.173a21.35 21.35 0 0 0-.967-7.162 23.971 23.971 0 0 0-2.943-6.121c-.894-1.34-1.904-2.6-3.054-3.713a.722.722 0 0 1-.07-.065c-.067-.067-.136-.136-.245-.103zm-1.082 23.926a5863.97 5863.97 0 0 0-6.203-11.694v19.661c1.286-.857 2.567-1.715 3.849-2.574 1.281-.859 2.563-1.717 3.848-2.574a992.73 992.73 0 0 0-1.494-2.819z" fill="#86929E"/></svg>