<svg width="32" height="32" xmlns="http://www.w3.org/2000/svg"><g fill="#86929E"><path fill-rule="evenodd" clip-rule="evenodd" d="M23.029 2.82a15.005 15.005 0 0 0-8.575-1.69A14.995 14.995 0 0 0 2.8 8.916a14.907 14.907 0 0 0-1.783 7.756A14.858 14.858 0 0 0 4.82 25.99a14.786 14.786 0 0 0 4.912 3.636 15.029 15.029 0 0 0 8.09 1.255 14.936 14.936 0 0 0 8.084-3.647 14.921 14.921 0 0 0 3.652-4.896 15.004 15.004 0 0 0 1.281-8.154 14.977 14.977 0 0 0-7.81-11.364zM9.284 8.158c1.104.048 2.116.673 2.773 1.546a10.372 10.372 0 0 1 5.381-2.052c.2-.038.415.086.41.307.01.374.009.75.007 1.126l-.002.446c.016.162-.07.372-.259.377-1.723.194-3.366.9-4.793 1.875-.127.068-.113.215-.1.338l.003.039c.065.59.06 1.181.055 1.773-.003.332-.006.664.004.995 2.327.006 4.653.004 6.98.003 2.328-.001 4.656-.003 6.986.003.22-.022.452.107.436.355.017 1.008.015 2.015.012 3.023-.001.56-.003 1.12-.001 1.679 0 .851-.178 1.734-.695 2.43-.819 1.092-2.246 1.75-3.609 1.507-.964-.145-1.798-.743-2.38-1.502a10.461 10.461 0 0 1-5.467 2.073.335.335 0 0 1-.323-.388c.005-.235.003-.47.002-.706-.002-.314-.004-.628.009-.942.037-.225.254-.245.448-.263.061-.005.12-.01.171-.022 1.632-.253 3.194-.937 4.524-1.907a36.28 36.28 0 0 1-.07-3.06c-2.853-.019-5.71-.017-8.564-.014-1.817.001-3.634.003-5.45-.001-.205.021-.404-.13-.382-.35a762.044 762.044 0 0 1 0-4.955c.005-.868.28-1.74.85-2.397.755-.857 1.891-1.406 3.044-1.336z"/><path d="M7.576 12.238c.022-.883.83-1.659 1.713-1.621.905-.016 1.723.78 1.745 1.686.022.942.005 1.885.005 2.827-1.152.027-2.305.011-3.463.011v-2.903zm14.36 5.01c1.152 0 2.305-.005 3.457.006.011.92.006 1.842.006 2.768.005.7-.431 1.4-1.099 1.648-.722.28-1.605.006-2.047-.63a1.712 1.712 0 0 1-.317-1.029c0-.92-.006-1.842 0-2.763"/></g></svg>