<svg width="32" height="32" xmlns="http://www.w3.org/2000/svg"><path fill-rule="evenodd" clip-rule="evenodd" d="M8.986 5.947l8.578-5.02a9.029 9.029 0 0 1-.153-.096l-.377-.22c-.306-.179-.613-.357-.917-.54-.094-.057-.16-.05-.25.003-3.159 1.851-6.319 3.7-9.478 5.55l-1.475.863-.338.198c-.818.479-1.636.957-2.453 1.439-.046.027-.098.08-.107.128a.88.88 0 0 0-.007.198l.002.107L6.026 6.21l.316.55 2.327-1.361.317.55zm10.776-3.731l-8.576 5.019-.317-.55-4.524 2.647-.321-.547-3.985 2.33c-.076-.27-.05-.343.168-.47l13.637-7.979.495-.289h.002c.556-.325 1.112-.65 1.664-.981.136-.082.233-.09.371-.005.286.178.578.347.869.516l.002.001.014.008.355.207c.028.016.056.034.089.056l.057.037zm2.197 1.289l-8.573 5.017-.317-.55-6.725 3.935-.319-.549L2.04 13.69c-.079-.268-.05-.342.178-.476l10.625-6.217 4.281-2.505.26-.152.027-.016 2.865-1.678c.07-.04.125-.07.21-.019a103.173 103.173 0 0 0 1.413.832c.01.006.02.013.033.024l.002.001.001.002h.002l.022.019zM2.034 16.268c-.09-.27.028-.395.24-.518C7.3 12.816 12.322 9.876 17.345 6.937L19.63 5.6l.459-.269c.791-.463 1.582-.925 2.371-1.392.098-.057.17-.058.265 0 .344.206.69.408 1.048.616l.006.004.39.227-8.583 5.023-.318-.55-8.923 5.222-.322-.546-3.989 2.333zM26.37 6.074l-8.523 4.988-.318-.55-11.185 6.545-.317-.55-3.99 2.335c-.07-.29-.05-.343.172-.472l5.92-3.464.301-.176.132-.078 1.221-.714 7.64-4.47.818-.48.03-.016.007-.005.04-.024c2.098-1.227 4.195-2.454 6.29-3.685.136-.08.234-.087.371-.003.321.198.647.387.985.583l.003.001.002.002.006.003.395.23zm2.186 1.296l-8.51 4.98-.317-.55-13.384 7.832-.318-.55-4.015 2.35c0-.038-.002-.074-.003-.107a.786.786 0 0 1 .008-.197c.012-.053.069-.108.12-.138 1.14-.67 2.282-1.339 3.423-2.007l.342-.2 3.64-2.13 10.52-6.157c2.276-1.331 4.551-2.663 6.829-3.99.047-.029.132-.042.175-.018.397.225.79.456 1.184.687l.005.003.243.142c.01.006.02.015.032.026a.848.848 0 0 0 .026.024zM6.341 22.208l-.316-.55-4.008 2.344a2.337 2.337 0 0 1-.002-.062.691.691 0 0 0-.006-.094c-.024-.153.035-.239.172-.317.803-.463 1.603-.931 2.403-1.4l.672-.394 1.5-.878.875-.511.633-.371.425-.248.338-.198 11.445-6.698.496-.29c2.693-1.576 5.387-3.152 8.079-4.731.105-.062.184-.073.29-.003.089.06.181.113.274.166h.001c.09.053.18.105.267.162.048.032.09.109.093.167.006.111.005.223.004.334 0 .108-.001.215.003.322.006.115-.035.176-.132.232-1.313.765-2.626 1.534-3.938 2.302l-.605.354-2.3 1.347-2.842 1.663c-.023.014-.047.026-.074.04h-.001l-.046.024-.313-.546-13.387 7.834zM29.977 9.843v.378c.001.477.001.939-.005 1.4 0 .047-.07.107-.12.137-1.118.657-2.237 1.312-3.355 1.966l-.519.303-5.784 3.385-.127.074-.01.005-.073.043-.316-.55-13.363 7.82-.32-.547-.24.14a193.587 193.587 0 0 0-.847.493l-.003.002c-.326.19-.653.379-.974.576-.137.084-.247.1-.37-.005-.02-.017-.044-.031-.073-.049a2.03 2.03 0 0 1-.053-.032L29.977 9.843zM8.228 25.523l.316.546 11.124-6.51.317.546.052-.029.003-.001.09-.05 1.009-.591.941-.551 1.148-.672 6.601-3.86c.11-.064.155-.131.153-.266A45.039 45.039 0 0 1 29.977 13v-.583L5.637 26.662c.177.167.326.199.54.066.453-.283.915-.55 1.378-.818l.527-.307.096-.053h.002l.048-.027zm11.44-3.39l.317.548.055-.031.002-.001.005-.003.004-.002.073-.042 1.502-.88 2.479-1.45.17-.1.04-.023c1.84-1.077 3.68-2.154 5.523-3.228.1-.058.145-.117.143-.241a56.22 56.22 0 0 1-.004-1.095v-.454c0-.025-.003-.05-.005-.08a2.665 2.665 0 0 1-.005-.052L7.84 27.948c.261.218.262.218.528.062l1.951-1.14a.919.919 0 0 1 .071-.037l.003-.001.037-.018.312.543 8.926-5.223zm10.31-4.173v-.392l-19.941 11.67c.269.212.269.213.531.06l.757-.443 1.168-.683c.028-.017.058-.031.09-.046l.005-.004h.003l.04-.02.311.542 6.727-3.936.314.548.056-.031.001-.001.004-.002.002-.001.003-.002h.001l.082-.047 6.948-4.066.588-.344c.73-.427 1.46-.854 2.19-1.284.052-.031.114-.102.115-.156.006-.438.006-.876.005-1.33v-.032zm-10.31 9.323l.316.547.064-.035.103-.059 1.479-.865.037-.022 2.077-1.216.86-.503.004-.002.032-.02.01-.004v-.001c1.72-1.006 3.44-2.012 5.162-3.015.128-.074.173-.154.17-.304a41.169 41.169 0 0 1-.006-1.036v-.143l.001-.306c0-.029-.002-.058-.005-.092l-.005-.058-17.729 10.375c.268.215.268.215.533.06l.001-.001 1.149-.672.533-.312.086-.05.284-.166.321.546 4.524-2.646zm10.296-4.558L14.439 31.81c.256.215.266.216.515.07l1.656-.97.275-.157h.001l.01-.006.132-.075.314.546 2.325-1.359.316.541.029-.012v-.001c.018-.008.033-.014.047-.023l1.797-1.05c2.674-1.565 5.349-3.13 8.024-4.693.08-.047.1-.101.099-.187-.002-.338-.002-.675-.002-1.012v-.568a.61.61 0 0 0-.007-.08v-.001l-.006-.048z" fill="#86929E"/></svg>