<svg width="32" height="32" xmlns="http://www.w3.org/2000/svg"><path d="M6.016 0H16.18c1.027.166 2.081.018 3.1.24 2.272.426 4.329 1.883 5.522 3.897 1.412 2.333 1.597 5.375.522 7.882-.972 2.307-3.006 4.113-5.383 4.767-1.509.445-3.093.279-4.643.31 2.654 4.484 5.304 8.973 7.947 13.467-.692.493-1.54.79-2.112 1.437h-.09c-3.437-5.865-6.91-11.71-10.36-17.567 2.45-.013 4.9.02 7.35-.016 2.826-.079 5.298-2.627 5.357-5.51.186-2.491-1.399-4.974-3.715-5.794-.96-.382-2.006-.364-3.021-.353-3.547 0-7.093 0-10.64-.002" fill="#86929E"/></svg>