<svg width="32" height="32" xmlns="http://www.w3.org/2000/svg"><path fill-rule="evenodd" clip-rule="evenodd" d="M21.625 26.905c.978 0 1.664-.934 1.342-1.845a.482.482 0 0 1 .048-.455c1.382-2.34 2.758-4.684 4.132-7.03.107-.182.223-.3.448-.361a1.377 1.377 0 0 0 1.018-1.42c-.042-.653-.546-1.178-1.216-1.303a.542.542 0 0 1-.316-.242c-1.36-2.297-2.713-4.598-4.057-6.905a.595.595 0 0 1-.038-.421c.188-.649-.068-1.322-.651-1.647-.586-.326-1.299-.206-1.777.279a.578.578 0 0 1-.369.158c-2.745.01-5.491.01-8.237 0a.612.612 0 0 1-.39-.17 1.474 1.474 0 0 0-1.755-.273c-.589.32-.855.989-.677 1.636a.566.566 0 0 1-.055.395 1249.23 1249.23 0 0 1-4.103 6.98.498.498 0 0 1-.307.206c-.709.123-1.218.658-1.245 1.335-.026.69.42 1.25 1.122 1.436a.585.585 0 0 1 .329.231c1.408 2.382 2.808 4.768 4.2 7.16a.64.64 0 0 1 .06.446c-.179.647.086 1.313.678 1.634a1.462 1.462 0 0 0 1.772-.298.602.602 0 0 1 .385-.183c2.736-.012 5.472-.013 8.208-.004.121 0 .27.084.36.174.303.307.653.485 1.091.487zM16.02 2.003h6.415c1.203 0 2.107.513 2.708 1.536 2.129 3.62 4.254 7.24 6.385 10.858.645 1.095.621 2.161-.026 3.254a2926.863 2926.863 0 0 0-6.34 10.783C24.546 29.482 23.634 30 22.41 30c-4.276 0-8.553.001-12.83-.002-1.176 0-2.078-.495-2.67-1.499C4.74 24.815 2.57 21.13.414 17.437c-.549-.94-.552-1.926-.002-2.868A3192.25 3192.25 0 0 1 6.907 3.506C7.517 2.47 8.452 1.996 9.664 2c2.118.008 4.237.002 6.356.003zm-4.094 23.252c-.155-.528-.45-.949-1.02-1.087a1.926 1.926 0 0 0-.75-.018c-.175.029-.245-.002-.32-.142-.12-.23-.26-.45-.403-.696.576-.33 1.141-.654 1.708-.976 2.926-1.664 5.853-3.328 8.777-4.994.145-.083.252-.124.42-.018a1.394 1.394 0 0 0 1.706-.168c.478-.451.59-1.14.277-1.697a1.445 1.445 0 0 0-1.632-.681c-.625.169-1.07.734-1.054 1.37.004.162-.021.257-.176.345-3.447 1.953-6.89 3.914-10.334 5.872-.058.033-.121.056-.197.09-1.069-1.816-2.131-3.624-3.19-5.426.715-.949.728-1.358.067-2.217L9.925 7.8c.432.14.861.151 1.271-.076.403-.222.625-.572.725-1.019h8.26c.31 1.005 1.045 1.355 1.979 1.121l.701 1.189c-.493.274-.976.545-1.46.812-2.905 1.602-5.812 3.203-8.715 4.81-.166.09-.27.093-.436-.02-.674-.461-1.622-.248-2.024.433a1.394 1.394 0 0 0 .584 1.978 1.44 1.44 0 0 0 1.952-.69c.043-.096.094-.205.085-.302-.031-.347.177-.49.451-.64 3.295-1.807 6.583-3.625 9.873-5.439.05-.028.104-.051.187-.092l2.893 4.916c-.695.902-.677 1.505.081 2.248-1.394 2.373-2.793 4.755-4.19 7.13-1.138-.13-1.52.085-1.954 1.095h-8.262z" fill="#86929E"/></svg>