<svg width="32" height="32" xmlns="http://www.w3.org/2000/svg"><path fill-rule="evenodd" clip-rule="evenodd" d="M16 30.993c-8.274-.025-15-6.739-15-14.997S7.726 1.025 16 1c8.274.025 15 6.738 15 14.996s-6.726 14.98-15 14.997zm13.302-12.61a1.513 1.513 0 0 1-1.971.8c.53.554.861 1.297.861 2.115 0 .24-.033.462-.083.685.564-1.139.965-2.35 1.193-3.6zm-.638-.603a.753.753 0 0 1-.754.752.755.755 0 0 1-.753-.752.753.753 0 0 1 1.507 0zm-.414-7.465c.24.68.364 1.394.365 2.114a6.29 6.29 0 0 1-1.49 4.071c.223-.132.488-.223.778-.223.787 0 1.433.603 1.499 1.38.066-.546.107-1.09.107-1.652.01-1.967-.42-3.91-1.259-5.69zm-5.988-3.097c2.882 0 5.218 2.337 5.218 5.203 0 2.865-2.344 5.202-5.218 5.202-2.883 0-5.218-2.337-5.218-5.202 0-2.874 2.344-5.203 5.218-5.203zm-.207 14.08c0-1.132.627-2.171 1.631-2.7a6.352 6.352 0 0 1-3.818-.298 6.34 6.34 0 0 1 2.187 3.114.316.316 0 0 0 .001-.084.383.383 0 0 1-.001-.032zm.116 3.502a6.3 6.3 0 0 0 .182-1.487 5.385 5.385 0 0 0-.067-.826c.282.66.786 1.2 1.425 1.528a1.052 1.052 0 0 0-.232-.025 1.466 1.466 0 0 0-1.308.81zm2.948-1.578a1.936 1.936 0 0 0 1.938-1.924c0-1.065-.87-1.924-1.938-1.924a1.93 1.93 0 0 0-1.93 1.924 1.93 1.93 0 0 0 1.931 1.924zm1.466-6.16a1.486 1.486 0 0 0 .1 1.61 3.048 3.048 0 0 0-1.566-.43c-.14 0-.272.017-.403.033h-.003a6.57 6.57 0 0 0 1.872-1.213zm-10.586-.091c.818 0 1.628.156 2.385.462A6.3 6.3 0 0 1 16 13.453a6.315 6.315 0 0 1-2.385 3.98A6.522 6.522 0 0 1 16 16.971zm-1.631-8.886a3.041 3.041 0 0 0 1.631.471H16a3.041 3.041 0 0 0 1.632-.47A6.354 6.354 0 0 0 16 11.371a6.262 6.262 0 0 0-1.632-3.287zm4.729-2.617c0 .691-.234 1.363-.663 1.907a6.315 6.315 0 0 1 2.154-1.057.3.3 0 0 0-.047.005l-.036.003a1.516 1.516 0 0 1-1.408-.958.22.22 0 0 0-.001.066l.002.034h-.001zm2.916-.66c0-.471-.224-.884-.564-1.165h.001a13.687 13.687 0 0 1 5.656 4.674 6.363 6.363 0 0 0-4.845-2.238 6.634 6.634 0 0 0-1.151.107c.549-.24.903-.78.903-1.379zm-1.516-.744a.753.753 0 1 0-.004 1.506.753.753 0 0 0 .005-1.506h-.001zm-1.507.627a3.086 3.086 0 0 0-2.054-2.172c1.292.1 2.543.364 3.702.793a.916.916 0 0 0-.149-.016c-.795 0-1.44.619-1.499 1.395zm-4.945.777a1.955 1.955 0 0 0 3.91-.001 1.955 1.955 0 0 0-3.91 0zm-2.542-2.172a.915.915 0 0 0-.15.016c1.168-.43 2.41-.693 3.703-.793a3.086 3.086 0 0 0-2.054 2.172 1.5 1.5 0 0 0-1.5-1.395zm1.4 2.172a.403.403 0 0 1 .007-.1c-.223.562-.77.958-1.408.958a.33.33 0 0 1-.047-.004.233.233 0 0 0-.035-.004 6.39 6.39 0 0 1 2.153 1.057 3.04 3.04 0 0 1-.67-1.907zm-1.4.099a.753.753 0 0 1-.754-.752.753.753 0 1 1 .754.752zm-6.61 2.758a6.337 6.337 0 0 1 5.996-2.13 1.497 1.497 0 0 1-.34-2.543 13.564 13.564 0 0 0-5.656 4.673zm4.845 9.298c-2.882 0-5.218-2.337-5.218-5.202 0-2.866 2.344-5.195 5.218-5.203 2.883 0 5.218 2.337 5.218 5.203 0 2.873-2.344 5.202-5.218 5.202zm.207 3.675a.513.513 0 0 1-.004.054.503.503 0 0 0-.004.053 6.377 6.377 0 0 1 2.187-3.113 6.352 6.352 0 0 1-3.819.297 3.066 3.066 0 0 1 1.64 2.709zm-4.638-2.626a1.44 1.44 0 0 0 .1-1.61c.545.514 1.18.925 1.871 1.214a2.182 2.182 0 0 0-.405-.033 3.046 3.046 0 0 0-1.566.429zm-.365 2.626a1.93 1.93 0 0 0 3.86 0 1.93 1.93 0 0 0-1.93-1.924 1.924 1.924 0 0 0-1.93 1.924zm3.411 2.707l-.073.01a3.05 3.05 0 0 0 1.417-1.536 6.939 6.939 0 0 0-.058.834c.001.5.062 1 .182 1.486a1.466 1.466 0 0 0-1.309-.809c-.056 0-.108.008-.159.015zM2.59 17.648a1.51 1.51 0 0 1 1.5-1.379 1.5 1.5 0 0 1 .778.223 6.29 6.29 0 0 1-1.491-4.071 6.4 6.4 0 0 1 .364-2.114 13.343 13.343 0 0 0-1.151 7.341zm.746.14a.753.753 0 1 1 1.505.003.753.753 0 0 1-1.505-.003zm.472 3.51c0-.79.309-1.548.862-2.114a1.52 1.52 0 0 1-1.971-.801 13.39 13.39 0 0 0 1.192 3.6 3.074 3.074 0 0 1-.083-.685zm3.875 2.949h.002-.002zm-.81.107c.281 0 .554-.033.81-.107a1.467 1.467 0 0 0-.644 1.213c0 .355.132.669.34.925a13.64 13.64 0 0 1-2.585-2.849 3.062 3.062 0 0 0 2.08.818zm.928 1.106a.711.711 0 1 0 .712-.71.716.716 0 0 0-.713.71zm2.178-.132a6.373 6.373 0 0 0 4.191 4.055 13.518 13.518 0 0 1-6.287-2.602 1.47 1.47 0 0 0 2.113-1.321.374.374 0 0 0-.01-.072c-.003-.02-.007-.04-.007-.06zm11.23-2.015c0-2.865-2.335-5.194-5.209-5.202a5.208 5.208 0 0 0-5.21 5.202c0 2.874 2.336 5.194 5.21 5.203 2.874-.009 5.21-2.337 5.21-5.203zm1.492 3.393c.43.27.968.298 1.424.076a13.598 13.598 0 0 1-6.286 2.6 6.373 6.373 0 0 0 4.19-4.054.716.716 0 0 0-.016.132c-.002.506.258.977.688 1.246zm1.5-1.246a.711.711 0 1 0-.713.71.717.717 0 0 0 .712-.71zm.927-1.107a3.06 3.06 0 0 0 2.078-.817 13.642 13.642 0 0 1-2.584 2.849c.207-.256.34-.57.34-.925 0-.486-.242-.94-.646-1.214.265.07.538.106.812.108z" fill="#86929E"/></svg>