<svg width="32" height="32" xmlns="http://www.w3.org/2000/svg"><path fill-rule="evenodd" clip-rule="evenodd" d="M30.984 15.996c0 8.275-6.717 14.992-14.992 14.992C7.718 30.988 1 24.267 1 15.992 1 7.718 7.714 1 15.992 1c8.279 0 14.992 6.722 14.992 14.996zm-16.235 9.91c.722.76 1.87 1.13 3.447 1.13 1.07 0 2.063-.216 2.98-.664a4.33 4.33 0 0 0 2.063-2.062 6.72 6.72 0 0 0 .683-2.98c0-.487-.079-1.012-.197-1.616-.117-.604-.392-1.228-.8-1.89-.407-.663-.992-1.189-1.753-1.557-.737-.389-1.42-.585-2.023-.585-.369.04-.722.118-1.051.255l5.565-5.592-.894-.894-9.094.02V5.553l-.875-.447h-2.337v.663l.8.8V9.49H7.737v1.286h3.506v6.895c0 .992.29 1.792.855 2.376.584.584 1.6.875 3.098.875a2.97 2.97 0 0 0 1.655-.506c.506-.33.894-.816 1.169-1.46.009-.07.022-.134.034-.19a.856.856 0 0 0 .024-.158.692.692 0 0 0-.176-.467c-.133-.098-.231-.137-.33-.137-.058 0-.098.02-.156.059-.04.02-.079.078-.118.157a4.55 4.55 0 0 1-.953.972c-.369.27-.741.408-1.149.408-.506 0-.894-.177-1.149-.545-.25-.373-.369-.84-.369-1.404v-6.875h6.871l-4.965 6.62v.545l1.098-.525c.604-.33 1.09-.506 1.498-.506.624 0 1.189.157 1.714.486.526.31.914.816 1.188 1.498.27.663.408 1.463.408 2.416 0 .878-.114 1.655-.368 2.337-.255.682-.644 1.208-1.17 1.557a3.12 3.12 0 0 1-1.772.525c-.47 0-.937-.058-1.404-.196-.466-.137-.815-.353-1.03-.643.254-.078.485-.25.662-.486.176-.232.274-.545.274-.933 0-.314-.078-.585-.196-.8a1.257 1.257 0 0 0-.506-.506c-.215-.137-.486-.196-.8-.196-.313 0-.584.078-.8.196-.215.117-.388.29-.506.506-.137.215-.196.49-.196.8 0 .878.35 1.674 1.071 2.435z" fill="#86929E"/></svg>