<svg width="32" height="32" xmlns="http://www.w3.org/2000/svg"><g fill="#86929E" fill-rule="evenodd"><path d="M1 30.968V1.038h29.93v29.93H1zM2 30h28V2H2v28z"/><path d="M25.48 18.627c-.242.346-.561.58-.98.662-.29.056-.57.013-.838-.106l-.088-.044c-.07-.036-.13-.023-.19.03-.175.16-.354.315-.53.472l-1.366 1.213-1.273 1.13c-.01.009-.017.02-.027.026-.094.053-.11.137-.112.239-.007.23-.052.454-.162.66-.238.442-.6.713-1.099.796-.795.133-1.597-.482-1.674-1.313a1.505 1.505 0 0 1 .022-.413.195.195 0 0 0-.067-.197c-.448-.394-.895-.788-1.341-1.184L14.51 19.49l-.036-.034c-.132-.114-.18-.11-.29.026a1.53 1.53 0 0 1-.604.468 1.446 1.446 0 0 1-1.569-.294c-.032-.03-.063-.064-.096-.095-.084-.08-.145-.082-.234-.004l-.33.293-1.402 1.245-1.245 1.108-.155.139c-.084.075-.09.107-.051.215.036.1.077.199.098.302a1.452 1.452 0 0 1-.724 1.57 1.466 1.466 0 0 1-2.157-1.012c-.125-.637.223-1.277.757-1.556.494-.257.982-.238 1.46.046.111.067.156.067.252-.018.34-.3.678-.603 1.017-.904l1.374-1.22.917-.813a.19.19 0 0 0 .068-.183 1.469 1.469 0 0 1 1.236-1.622c.573-.084 1.035.124 1.387.576.195.25.291.54.303.853a.27.27 0 0 0 .1.21l.68.6 1.366 1.212c.226.201.45.403.678.602.121.107.174.104.292-.01a1.443 1.443 0 0 1 2.065.062c.039.042.075.087.113.13.07.078.13.088.211.02.135-.113.265-.23.397-.347l1.714-1.52.84-.753c.091-.082.095-.113.038-.223a1.492 1.492 0 0 1-.183-.85 1.493 1.493 0 0 1 1.22-1.314c.08-.013.163-.011.245-.016.76-.014 1.45.61 1.469 1.455.006.29-.086.556-.252.793zM5.606 13.214c-.173.065-.35.118-.535.123a2.392 2.392 0 0 1-.427-.024c-.353-.056-.586-.286-.658-.653a2.458 2.458 0 0 1-.05-.461c-.005-.847-.003-1.694-.003-2.54 0-.029.003-.057.006-.102l.528-.093c.018.297-.002.585.012.888h1.075v.454c-.353.016-.707 0-1.071.01-.003.04-.008.074-.008.11-.001.433-.004.867.001 1.3.002.109.02.22.049.325.056.205.181.297.391.308.194.01.384-.003.564-.086.026-.012.054-.019.099-.034l.095.39c.013.055-.03.07-.068.085zm.715-2.769c.351-.103.708-.168 1.075-.137.153.012.305.042.474.067-.031.164-.06.31-.087.46-.178-.023-.35-.05-.521-.064-.177-.015-.349.025-.53.075v2.42h-.52c-.002-.041-.007-.08-.007-.12v-2.54c0-.126 0-.127.116-.16zm1.86 1.665c.089-.264.287-.421.542-.51a1.9 1.9 0 0 1 1.004-.063l.108.02c.012.002.024 0 .053 0 .005-.181-.006-.35-.081-.51a.464.464 0 0 0-.296-.255 1.041 1.041 0 0 0-.362-.039 2.745 2.745 0 0 0-.65.107l-.063-.446c.113-.028.213-.058.316-.077.288-.052.577-.067.866-.016.455.08.721.365.773.824.014.13.022.26.023.39.003.512.001 1.023.001 1.535v.14c-.033.012-.062.027-.093.032a6.254 6.254 0 0 1-1.12.096 1.423 1.423 0 0 1-.628-.139.777.777 0 0 1-.424-.594.989.989 0 0 1 .03-.495zm3.096-1.125c.238-.444.62-.668 1.121-.689.255-.01.506.013.748.099.03.01.06.023.1.038l-.113.44c-.134-.033-.258-.07-.385-.092a1.14 1.14 0 0 0-.51.018.727.727 0 0 0-.519.495 1.6 1.6 0 0 0 .01 1.069c.102.282.318.434.609.488.272.05.536.012.795-.072l.084-.027c.024.137.05.268.067.4.002.021-.028.06-.052.07a.98.98 0 0 1-.186.058c-.297.066-.597.098-.897.03-.531-.117-.874-.439-1.006-.97-.117-.466-.096-.925.134-1.355zm2.452.296c.156-.529.491-.878 1.05-.972.228-.038.458-.026.678.052.313.111.52.33.633.64.108.296.127.605.116.917 0 .01-.008.022-.017.046H14.24a.814.814 0 0 0 .68.886c.3.047.594.022.883-.073.03-.01.062-.02.093-.028.008-.002.016.001.04.004l.073.42c-.037.018-.067.039-.1.05a2.25 2.25 0 0 1-1.207.076c-.547-.122-.873-.472-.993-1.012a1.984 1.984 0 0 1 .022-1.006zm3.165-1.608c0-.036.004-.073.006-.118l.503-.087c.036.1.014.197.018.293.004.093 0 .188 0 .282v.309c.37.01.728-.002 1.094.007v.449c-.358.012-.716-.002-1.085.007-.003.046-.008.086-.008.125 0 .38-.004.76.002 1.14.002.147.016.295.046.437.048.233.187.334.426.343.186.007.367-.01.54-.086.025-.012.053-.018.094-.031l.058.21c.017.072.032.143.05.227-.382.168-.764.213-1.156.104a.701.701 0 0 1-.51-.516 1.874 1.874 0 0 1-.073-.47c-.008-.875-.005-1.75-.005-2.625zm2.331 1.131a1.25 1.25 0 0 1 .988-.51c.368-.015.694.081.97.33a1.2 1.2 0 0 1 .297.401c.24.532.251 1.071-.005 1.596-.234.48-.636.717-1.171.727-.393.007-.733-.122-.998-.413a1.497 1.497 0 0 1-.38-.947c-.004-.057-.001-.114-.001-.171-.01-.37.075-.715.3-1.013zm3.382 1.783c.227.001.38.16.377.39-.002.221-.157.371-.382.37a.37.37 0 0 1-.38-.388.366.366 0 0 1 .385-.372zm1.119.678v-2.9h.516v2.9h-.516zm3.819-.708c-.228.509-.63.774-1.194.791-.709.022-1.234-.465-1.359-1.131-.071-.381-.055-.757.101-1.117.193-.445.529-.716 1.012-.794.072-.012.146-.01.22-.015.579-.014 1.08.341 1.269.916.15.453.148.912-.05 1.35zm-3.56-3.4c.211.005.353.16.334.357.016.222-.18.347-.348.341a.335.335 0 0 1-.333-.35c0-.2.145-.352.348-.348zM7.175 22.272a.884.884 0 0 1 .865.893c-.002.428-.364.883-.893.861-.468.014-.869-.4-.867-.876a.886.886 0 0 1 .895-.878zm11.436-.895c.534.003.883.45.867.877a.863.863 0 0 1-.88.877.871.871 0 0 1-.87-.878c0-.436.341-.879.883-.876zm-9.58-8.525c-.266-.067-.387-.246-.349-.518.028-.198.165-.3.337-.348.272-.076.55-.066.825-.003.014.003.027.016.042.025v.844c-.084.01-.164.026-.244.028-.204.003-.409.024-.61-.028zm6.601-1.323h-1.377c-.018-.323.228-.688.554-.761a.7.7 0 0 1 .443.032c.262.115.423.422.38.729zm4.665 1.346c-.321.003-.558-.14-.687-.424a1.441 1.441 0 0 1 .014-1.289c.25-.5.86-.478 1.143-.235.137.119.227.27.27.443.036.145.051.295.076.444-.013.222-.044.434-.144.632-.14.274-.357.425-.672.429zm-7.274 4.84c.457.003.88.346.876.881-.004.571-.448.88-.878.88-.432 0-.874-.3-.881-.876-.007-.554.435-.888.883-.884zm11.234-.743c.478 0 .862.388.876.858a.884.884 0 0 1-.873.887.865.865 0 0 1-.864-.877c-.029-.416.357-.868.86-.868zm2.552-6.037c.171.142.254.337.295.55.02.107.026.218.039.327-.005.207-.032.41-.119.598-.107.234-.275.4-.54.451a.748.748 0 0 1-.838-.405 1.245 1.245 0 0 1-.126-.483c-.018-.276.002-.545.133-.798a.754.754 0 0 1 1.156-.24z"/></g></svg>