<svg width="32" height="32" xmlns="http://www.w3.org/2000/svg"><g fill-rule="evenodd" clip-rule="evenodd" fill="#86929E"><path d="M30.93 30.968H1V1.038h29.93v29.93zM30 30H2V2h28v28z"/><path d="M24.5 19.29c.419-.082.738-.317.98-.663.165-.237.257-.503.25-.793-.017-.845-.709-1.469-1.468-1.455l-.078.003a1.285 1.285 0 0 0-.167.013 1.492 1.492 0 0 0-1.22 1.314 1.49 1.49 0 0 0 .183.85c.057.11.053.14-.038.223-.28.252-.56.503-.84.752-.526.468-1.053.934-1.58 1.401l-.134.12-.086.076-.007.006c-.1.09-.2.179-.304.265-.08.068-.14.058-.21-.02a4.397 4.397 0 0 1-.046-.052c-.022-.026-.044-.052-.068-.077a1.443 1.443 0 0 0-2.065-.063c-.118.114-.17.117-.292.01-.16-.14-.318-.28-.476-.422l-.202-.18-.379-.335-.212-.189-.775-.688-.68-.6a.271.271 0 0 1-.1-.21 1.443 1.443 0 0 0-.303-.853c-.352-.452-.814-.66-1.386-.576a1.47 1.47 0 0 0-1.237 1.622.19.19 0 0 1-.068.183l-.844.75-.073.064-.527.467-.847.752-.377.336-.005.004-.046.04-.589.524c-.096.085-.14.085-.252.018-.478-.284-.966-.303-1.46-.046-.534.28-.882.919-.757 1.556a1.466 1.466 0 0 0 2.157 1.013c.53-.296.857-.895.724-1.57a1.587 1.587 0 0 0-.075-.242l-.006-.016-.017-.045c-.038-.108-.033-.14.051-.215l.155-.14.286-.254.145-.129.096-.085.078-.07.089-.079.551-.49.85-.754.552-.49.118-.106.016-.014.009-.008.187-.166c.089-.078.15-.076.235.004l.038.038.002.002.002.002.003.003.004.004.005.005.003.003.038.038c.407.39 1.015.529 1.569.294a1.54 1.54 0 0 0 .604-.467c.11-.137.158-.14.29-.027a.417.417 0 0 1 .036.034l.34.303.061.055.037.032a325.314 325.314 0 0 0 2.148 1.902.195.195 0 0 1 .067.197 1.507 1.507 0 0 0-.022.413c.077.831.88 1.446 1.674 1.313.499-.082.86-.354 1.099-.796.11-.206.155-.43.162-.66.003-.102.017-.186.112-.24a.07.07 0 0 0 .017-.014l.001-.002.009-.008 1.273-1.131.66-.586.705-.627.133-.118.038-.033.36-.32c.06-.054.12-.067.19-.031l.015.007a1.374 1.374 0 0 0 .91.143zM5.071 13.336c.185-.005.362-.058.535-.123l.002-.001c.038-.014.079-.03.066-.084a28.471 28.471 0 0 0-.058-.24l-.008-.032v-.002l-.03-.116a1.98 1.98 0 0 1-.04.014c-.023.007-.041.012-.058.02a1.17 1.17 0 0 1-.564.086c-.21-.01-.335-.103-.39-.308a1.293 1.293 0 0 1-.05-.325 68.861 68.861 0 0 1-.002-1.017v-.284c0-.023.003-.047.006-.071v-.013l.001-.007.002-.017c.168-.005.333-.004.498-.003.192 0 .383.002.573-.007v-.454H4.48a7.594 7.594 0 0 1-.005-.42v-.006a6.705 6.705 0 0 0-.007-.462l-.528.093c0 .015-.002.027-.003.039V9.6a.828.828 0 0 0-.003.058v.594c0 .65-.001 1.298.003 1.947 0 .154.02.31.05.461.073.367.305.597.658.653.14.022.285.027.427.024zm2.325-3.03c-.367-.03-.724.035-1.074.138-.116.034-.117.035-.117.162v2.54c0 .024.002.05.004.075v.004l.004.04h.52v-2.42c.18-.05.352-.09.529-.075.119.01.237.026.358.042h.001c.054.007.107.015.162.021l.087-.46a10.18 10.18 0 0 1-.158-.024c-.108-.017-.212-.034-.316-.042zM8.723 11.6c-.255.088-.453.245-.543.51a.989.989 0 0 0-.03.494c.047.268.18.469.423.594.198.102.412.134.629.14.376.009.749-.04 1.12-.097a.298.298 0 0 0 .062-.02.71.71 0 0 1 .031-.011v-.566l-.001-1.11c0-.13-.009-.26-.023-.39-.052-.459-.318-.745-.773-.824a2.451 2.451 0 0 0-1.077.066H8.54l-.004.002a7.333 7.333 0 0 1-.098.025l.063.446c.222-.066.434-.096.65-.107a1.05 1.05 0 0 1 .362.039.465.465 0 0 1 .296.256c.075.16.086.328.081.51h-.026l-.027-.001a3.25 3.25 0 0 1-.108-.02 1.9 1.9 0 0 0-1.004.064zm3.675-1.305c-.501.02-.883.245-1.12.689-.231.43-.252.89-.135 1.356.132.53.475.852 1.006.97.3.067.6.035.897-.03a1.01 1.01 0 0 0 .187-.059c.023-.01.053-.049.05-.07a5.76 5.76 0 0 0-.045-.282l-.002-.008v-.004l-.02-.106-.082.027c-.26.084-.524.122-.796.072-.291-.054-.507-.206-.61-.488a1.605 1.605 0 0 1-.008-1.07.726.726 0 0 1 .518-.494 1.14 1.14 0 0 1 .51-.018c.087.015.173.037.261.06l.124.032.114-.44-.038-.014-.003-.002-.06-.022a1.965 1.965 0 0 0-.748-.099zm2.382.013c-.56.094-.895.443-1.051.972-.098.331-.097.67-.022 1.006.12.54.446.89.993 1.012a2.25 2.25 0 0 0 1.207-.076.384.384 0 0 0 .066-.032.824.824 0 0 1 .034-.018l-.073-.42a.437.437 0 0 1-.021-.003.046.046 0 0 0-.019-.001 1.636 1.636 0 0 0-.093.028c-.289.095-.582.12-.883.073a.814.814 0 0 1-.68-.886h1.951a.38.38 0 0 1 .01-.022c.004-.01.007-.017.007-.024.011-.312-.008-.62-.116-.917a1.012 1.012 0 0 0-.633-.64c-.22-.078-.45-.09-.677-.052zm2.118-.713a1.232 1.232 0 0 0-.004.077v.633c0 .664-.001 1.328.004 1.992.002.157.032.317.074.47a.7.7 0 0 0 .51.516c.392.109.774.064 1.156-.104l-.017-.077V13.1a5.974 5.974 0 0 0-.033-.147l-.039-.144-.019-.067a1.715 1.715 0 0 1-.038.011.457.457 0 0 0-.056.02 1.186 1.186 0 0 1-.54.086c-.239-.009-.378-.11-.427-.343a2.332 2.332 0 0 1-.045-.436c-.005-.285-.004-.57-.003-.856l.001-.285c0-.027.002-.053.004-.081v-.002l.004-.042c.174-.004.345-.003.515-.002.192 0 .38.001.57-.005v-.45a23.255 23.255 0 0 0-.528-.002c-.187 0-.375 0-.565-.004v-.395a4.269 4.269 0 0 0 0-.196c-.002-.027 0-.054 0-.08v-.007a.518.518 0 0 0-.02-.206l-.502.087-.002.041zm3.315.699a1.24 1.24 0 0 0-.987.51c-.226.297-.312.642-.301 1.012v.063c-.001.036-.002.072 0 .108.022.358.139.681.381.947.265.291.605.42.998.413.535-.01.937-.248 1.171-.727.256-.525.245-1.064.005-1.596a1.2 1.2 0 0 0-.297-.401c-.276-.249-.603-.345-.97-.33zm2.771 2.682c.003-.23-.15-.389-.377-.39a.366.366 0 0 0-.385.372.37.37 0 0 0 .38.388c.225.001.38-.148.382-.37zm1.258.288h-.516v-2.9h.516v2.9zm2.11.083c.562-.017.965-.282 1.193-.79.197-.44.198-.898.049-1.351-.19-.575-.69-.93-1.27-.916a.802.802 0 0 1-.07.003c-.05.002-.1.004-.15.012-.482.078-.818.349-1.011.794-.156.36-.172.736-.1 1.117.124.666.65 1.153 1.358 1.131zm-2.366-4.19c.21.004.352.158.333.356.016.222-.18.347-.348.341a.335.335 0 0 1-.333-.35c0-.2.145-.352.348-.348z"/></g></svg>