<svg width="32" height="32" xmlns="http://www.w3.org/2000/svg"><g fill-rule="evenodd" clip-rule="evenodd" fill="none"><path d="M30.238 11.554a6.566 6.566 0 0 0-.5-1.095l.5 1.095z" fill="#00CEF7"/><path d="M14.447 26.507c-.914.255-1.86.38-2.809.373a10.568 10.568 0 0 1-3.815-.788c-3.786-1.559-5.436-4.938-5.738-5.588-.884-1.901-.985-3.584-1.054-4.722l-.005-.09c-.08-1.336.012-2.836.462-4.343.162-.528.362-1.043.598-1.542.02-.043.042-.086.064-.13l.004-.007C6.053 1.36 16.972-1.476 24.5 3.89a15.466 15.466 0 0 1 2.778 2.554c.396.468.6.771.632.823.335.471.645.959.928 1.462.47.832.863 1.705 1.173 2.609a6.68 6.68 0 0 0-.496-1.104l.496 1.104c-1.932-3.083-4.696-5.692-8.13-7.029-3.206-1.248-6.873-1.34-10.15-.296-3.666 1.168-6.747 3.84-7.9 7.539-1.21 3.876-.543 8.933 3.01 11.417 2.812 1.966 7.044 2.201 9.698.184 2.13-1.619 2.971-4.45 2.971-7.011v-2.356h2.213l.001 1.628a472.246 472.246 0 0 0-.012 1.055c-.026 1.424-.176 2.94-.71 4.273a9.642 9.642 0 0 1-2.07 3.15c-.396.403-1.941 1.905-4.486 2.614zm4.485-19.215c1.454.201 2.884.637 4.19 1.308a11.03 11.03 0 0 1 4.46 4.169c1.846 3.101 1.788 6.126 1.363 8.22-.349 1.714-.942 2.804-.942 2.804-.344.616-1.641 2.827-4.204 4.64a13.737 13.737 0 0 1-3.882 1.915c-.83.26-1.682.442-2.546.543l-.045.005-.092.01-.061.007c-.484.05-.97.074-1.457.073h-.031a14.987 14.987 0 0 1-2.365-.187 14.81 14.81 0 0 1-4.329-1.397l-.216-.107a11.778 11.778 0 0 1-.618-.321 5.249 5.249 0 0 1-.52-.344l-.017-.012a2.137 2.137 0 0 1-.051-.038c.703.285 1.43.51 2.171.671.81.143 1.626.243 2.446.3 4.202.275 9.1-1.093 12.07-4.2 1.278-1.336 2.199-2.995 2.552-4.984.155-.877.54-3.232-.634-5.692-1.58-3.314-5.019-5.07-8.59-5.07h-7.05v4.317h4.85v2.107c.005.858-.004 1.915-.05 3.052-.115 2.822-2.173 3.423-2.173 3.423v-6.246h-5.2v-9.02l2.177-.012 4.654-.023c.318-.001.637-.008.959-.014 1.062-.02 2.138-.042 3.18.103z" fill="#86929E"/></g></svg>