<svg width="32" height="32" xmlns="http://www.w3.org/2000/svg"><g fill-rule="evenodd" clip-rule="evenodd" fill="#86929E"><path d="M15.854 14.198L2 22.333v4.47l13.854-8.134 13.854 8.134v-4.47l-13.854-8.135z"/><path opacity=".4" d="M6.048 9.264l9.806-5.662 9.806 5.662 3.661-1.489L15.854 0 2.387 7.775l3.66 1.489z"/><path d="M25.66 10.21v12.52l-1.456.842 3.093 1.816 2.411-1.392V8.565L25.66 10.21zM7.504 23.573l-1.468-.848V10.206L2 8.565v15.43l2.41 1.393 3.094-1.816z"/><path opacity=".4" d="M23.34 24.07l-7.486 4.322-7.486-4.322-3.094 1.816 10.58 6.108 10.58-6.108-3.094-1.816z"/></g></svg>