<?xml version="1.0" standalone="no"?>
<!DOCTYPE svg PUBLIC "-//W3C//DTD SVG 20010904//EN"
 "http://www.w3.org/TR/2001/REC-SVG-20010904/DTD/svg10.dtd">
<svg version="1.0" xmlns="http://www.w3.org/2000/svg"
 width="160.000000pt" height="160.000000pt" viewBox="0 0 160.000000 160.000000"
 preserveAspectRatio="xMidYMid meet">
<metadata>
Created by potrace 1.11, written by Peter Selinger 2001-2013
</metadata>
<g transform="translate(0.000000,160.000000) scale(0.100000,-0.100000)"
fill="#000000" stroke="none">
<path d="M644 1525 c-263 -58 -467 -243 -557 -503 -39 -115 -46 -283 -16 -405
72 -287 291 -501 575 -561 87 -19 267 -14 349 8 250 70 445 259 525 511 28 87
35 278 15 371 -31 145 -98 266 -206 373 -80 81 -150 128 -249 168 -126 51
-306 66 -436 38z m331 -29 c83 -22 231 -97 285 -145 l45 -40 -27 -25 c-15 -14
-30 -26 -33 -26 -4 0 -25 15 -48 34 -59 47 -121 80 -202 107 -59 20 -90 24
-195 24 -106 0 -136 -4 -195 -24 -91 -31 -118 -47 -241 -136 -9 -6 -21 -1 -40
20 l-27 29 44 38 c82 70 247 143 369 161 53 7 208 -2 265 -17z m-185 -127 l0
-38 -57 -7 c-201 -24 -379 -169 -441 -359 -18 -53 -30 -115 -32 -153 0 -8 -12
-11 -38 -9 -36 3 -37 3 -35 42 13 208 163 419 361 508 54 24 171 53 213 53 27
0 29 -2 29 -37z m201 5 c231 -73 407 -294 422 -529 2 -39 1 -40 -30 -42 -39
-2 -40 -1 -48 57 -16 120 -70 226 -159 315 -76 75 -165 121 -279 143 l-85 17
3 30 c1 16 3 34 4 38 2 12 88 -3 172 -29z m-41 -94 c218 -65 374 -283 364
-509 -14 -334 -345 -570 -661 -472 -226 70 -383 295 -366 526 17 232 206 441
428 472 22 3 41 6 43 8 9 8 137 -8 192 -25z m-640 -15 c17 -18 21 -30 15 -39
-44 -58 -105 -161 -123 -206 -32 -82 -37 -114 -36 -245 1 -165 28 -236 159
-421 7 -10 2 -21 -18 -41 l-28 -28 -39 45 c-102 117 -170 319 -164 487 5 158
76 338 177 451 26 28 28 28 57 -3z m1064 -31 c168 -214 198 -522 75 -766 -30
-60 -99 -161 -118 -172 -14 -9 -66 45 -55 58 117 155 162 276 162 440 0 163
-36 257 -163 432 -6 9 -2 21 15 39 13 14 27 25 32 25 4 0 28 -25 52 -56z
m-1103 -536 c9 -46 28 -108 42 -138 85 -176 267 -298 465 -309 7 -1 12 -16 12
-41 0 -38 -1 -40 -27 -36 -16 2 -48 8 -73 11 -259 40 -474 273 -505 548 l-5
47 38 0 38 0 15 -82z m1143 73 c8 -13 -13 -128 -34 -189 -59 -166 -211 -318
-373 -371 -87 -29 -180 -42 -189 -27 -11 16 -6 66 7 67 138 9 256 62 354 158
95 93 152 219 160 349 1 18 7 22 35 22 19 0 37 -4 40 -9z m-952 -525 c98 -62
196 -89 323 -90 120 -1 151 3 237 33 47 16 146 74 215 126 9 7 20 2 40 -18
l28 -28 -40 -35 c-71 -61 -215 -135 -292 -149 -15 -2 -49 -8 -74 -13 -64 -12
-181 -7 -264 12 -87 20 -235 93 -295 145 l-45 40 29 30 30 31 25 -24 c14 -13
52 -40 83 -60z"/>
</g>
</svg>
