<svg width="32" height="32" viewBox="0 0 32 32" version="1.1" xmlns="http://www.w3.org/2000/svg" xmlns:xlink="http://www.w3.org/1999/xlink">
<g id="Canvas" fill="none">
<g id="Icon/0x/normal">
<g id="0x">
<path id="Shape" fill-rule="evenodd" clip-rule="evenodd" d="M 22.3882 2.1232C 21.3096 2.88986 20.231 3.65653 19.1523 4.38986C 17.702 5.4068 16.2518 6.44413 14.8177 7.46995L 14.8163 7.47094C 14.4176 7.75614 14.0201 8.04046 13.6242 8.3232C 13.3882 8.48986 13.2197 8.5232 13.0175 8.28986C 12.7141 7.9732 12.4023 7.6732 12.0905 7.3732C 11.7787 7.0732 11.4669 6.7732 11.1635 6.45653C 10.995 6.28986 10.8265 6.25653 10.5905 6.35653C 9.14105 7.08986 7.995 8.1232 7.05121 9.4232C 6.98376 9.48986 6.91632 9.58986 6.84894 9.68986C 6.62769 9.40272 6.41217 9.1268 6.19995 8.85519L 6.19324 8.84658C 5.89044 8.45905 5.59442 8.08017 5.29834 7.68986C 4.98871 7.2879 4.69012 6.88594 4.39624 6.4903L 4.39282 6.48573C 4.17615 6.19393 3.96198 5.90557 3.7478 5.6232C 3.57928 5.38986 3.54553 5.2232 3.78149 4.98986C 6.37701 2.15653 9.57928 0.489864 13.4219 0.0898634C 16.4557 -0.24347 19.3546 0.35653 22.0511 1.78986C 22.1017 1.8232 22.1523 1.8482 22.2029 1.8732L 22.2034 1.87347C 22.2538 1.89838 22.3042 1.92332 22.3546 1.95653C 22.3546 2.05653 22.3546 2.08986 22.3882 2.1232ZM 8.99841 23.4336C 9.26495 23.235 9.53638 23.0327 9.81519 22.8232C 9.74371 22.7761 9.6806 22.7331 9.62152 22.6928C 9.51343 22.6191 9.41852 22.5545 9.30957 22.4899C 8.09613 21.5899 7.11859 20.4899 6.41071 19.1565C 6.27588 18.9232 6.30957 18.7565 6.51184 18.5565C 7.21973 17.8899 7.89386 17.1899 8.56799 16.4899C 8.61713 16.4413 8.64825 16.3928 8.68768 16.3314L 8.68799 16.3309L 8.68829 16.3305C 8.70282 16.3078 8.71851 16.2834 8.73657 16.2565C 7.64008 14.8272 6.53528 13.3978 5.43054 11.9684L 5.40662 11.9375L 5.38269 11.9066C 4.26184 10.4566 3.14105 9.00655 2.02869 7.55653C 2.00891 7.5663 1.99207 7.57321 1.97809 7.57893C 1.9444 7.59273 1.92755 7.59964 1.92755 7.6232C 1.91064 7.65661 1.88531 7.69839 1.85999 7.74015L 1.85974 7.74056C 1.83459 7.78199 1.80951 7.82338 1.79272 7.85653C 0.174744 10.8899 -0.364563 14.0899 0.242188 17.4565C 0.848938 20.7899 2.46692 23.5899 5.02869 25.8565C 5.29834 26.0899 5.46692 26.0899 5.70288 25.8899C 5.98639 25.6754 6.27002 25.4692 6.55353 25.263L 6.55792 25.2598L 6.56244 25.2565C 6.84894 25.0482 7.13544 24.8399 7.42194 24.6232C 7.93976 24.2224 8.45758 23.8366 8.99548 23.4358L 8.99841 23.4336ZM 26.3658 24.2565C 25.2534 22.7899 24.1411 21.3232 23.0624 19.8899C 23.0118 19.9232 22.9781 19.9399 22.9612 19.9482C 22.9526 19.9525 22.9484 19.9546 22.9486 19.9556C 22.9489 19.9565 22.9531 19.9565 22.9612 19.9565C 22.9445 19.9897 22.9194 20.0228 22.8943 20.0559L 22.8938 20.0566C 22.8685 20.0899 22.8433 20.1232 22.8264 20.1565C 22.0175 21.3232 20.9725 22.2899 19.7253 22.9899C 19.6341 23.04 19.5547 23.0847 19.4851 23.124C 19.2108 23.2787 19.0864 23.3488 18.9796 23.3282C 18.891 23.3111 18.8145 23.2317 18.6744 23.0864C 18.5982 23.0073 18.5031 22.9086 18.377 22.7899C 18.0529 22.4862 17.7287 22.174 17.4002 21.8575L 17.399 21.8564C 17.0789 21.548 16.7545 21.2356 16.4219 20.9232C 14.6147 22.2485 12.8196 23.5738 11.0148 24.9064L 10.9854 24.9281C 9.80389 25.8005 8.6181 26.6759 7.42194 27.5565C 10.8264 29.4232 14.332 29.9899 18.0399 29.2232C 21.377 28.5232 24.1411 26.8565 26.3658 24.2565ZM 25.8939 19.5565C 26.5343 20.3899 27.1747 21.2232 27.8826 22.1232C 27.9838 21.8899 28.0848 21.7232 28.186 21.5899C 29.332 19.3565 29.9051 16.9899 29.8376 14.4899C 29.6691 10.1899 27.95 6.6232 24.7478 3.75653C 24.5118 3.5232 24.3433 3.58986 24.1411 3.75653C 23.5006 4.23986 22.8602 4.71486 22.2197 5.18986C 21.5792 5.66486 20.9388 6.13986 20.2983 6.6232C 20.268 6.65319 20.2309 6.68317 20.19 6.7162C 20.14 6.75658 20.0844 6.80151 20.0287 6.85653C 20.1151 6.89927 20.1877 6.9557 20.2553 7.00827C 20.2932 7.03771 20.3295 7.06593 20.3658 7.08986C 21.6804 8.0232 22.6916 9.18986 23.4332 10.5899C 23.568 10.8232 23.5006 10.9899 23.332 11.1565C 23.0118 11.4732 22.7 11.7899 22.3882 12.1065C 22.0764 12.4232 21.7646 12.7399 21.4444 13.0565C 21.2084 13.2899 21.2084 13.4565 21.4107 13.7232C 22.4713 15.0749 23.5153 16.443 24.5544 17.8045C 25.0015 18.3903 25.4477 18.9749 25.8939 19.5565Z" transform="translate(1.02747 1.2768)" fill="#86929E"/>
</g>
</g>
</g>
</svg>
