<svg width="32" height="32" viewBox="0 0 32 32" version="1.1" xmlns="http://www.w3.org/2000/svg" xmlns:xlink="http://www.w3.org/1999/xlink">
<g id="Canvas" fill="none">
<g id="Icon/acroplis/normal">
<g id="Page 1">
<path id="Stroke 1" opacity="0.3" fill-rule="evenodd" clip-rule="evenodd" d="M 26.5946 24.8856L 15.1837 31.589C 14.4055 32.0462 13.4466 32.0462 12.6685 31.589L 1.25761 24.8856C 0.47945 24.4285 0 23.5836 0 22.6692L 0 9.26259C 0 8.34821 0.47945 7.50337 1.25761 7.04618L 12.6685 0.342791C 13.4466 -0.114264 14.4055 -0.114264 15.1837 0.342791L 26.5946 7.04618C 27.3727 7.50337 27.8522 8.34821 27.8522 9.26259L 27.8522 22.6692C 27.8522 23.5836 27.3727 24.4285 26.5946 24.8856Z" transform="translate(2.06635 0.0675186)" fill="#86929E"/>
<path id="Stroke 3" opacity="0.3" fill-rule="evenodd" clip-rule="evenodd" d="M 21.1489 19.8467L 12.1484 25.1341C 11.4991 25.5155 10.6991 25.5155 10.0497 25.1341L 1.0494 19.8467C 0.399962 19.4653 0 18.7603 0 17.9974L 0 7.42276C 0 6.65974 0.399962 5.95478 1.0494 5.57334L 10.0497 0.286081C 10.6991 -0.0953605 11.4991 -0.0953605 12.1484 0.286081L 21.1489 5.57334C 21.7982 5.95478 22.1983 6.65974 22.1983 7.42276L 22.1983 17.9974C 22.1983 18.7603 21.7982 19.4653 21.1489 19.8467Z" transform="translate(4.89331 3.32341)" fill="#86929E"/>
<path id="Stroke 5" opacity="0.3" fill-rule="evenodd" clip-rule="evenodd" d="M 15.7623 14.7298L 8.97367 18.7179C 8.52301 18.9825 7.96766 18.9825 7.517 18.7179L 0.728398 14.7298C 0.277611 14.4651 0 13.9757 0 13.4462L 0 5.47018C 0 4.94062 0.277611 4.45129 0.728398 4.18651L 7.517 0.198586C 7.96766 -0.0661954 8.52301 -0.0661954 8.97367 0.198586L 15.7623 4.18651C 16.2129 4.45129 16.4907 4.94062 16.4907 5.47018L 16.4907 13.4462C 16.4907 13.9757 16.2129 14.4651 15.7623 14.7298Z" transform="translate(7.74713 6.57524)" fill="#86929E"/>
<path id="Stroke 7" fill-rule="evenodd" clip-rule="evenodd" d="M 8.43331 8.19405L 5.20827 10.0886C 4.79915 10.3289 4.29515 10.3289 3.88616 10.0886L 0.661119 8.19405C 0.252 7.95371 0 7.50961 0 7.02893L 0 3.23989C 0 2.75921 0.252 2.31512 0.661119 2.07477L 3.88616 0.180257C 4.29515 -0.0600855 4.79915 -0.0600855 5.20827 0.180257L 8.43331 2.07477C 8.84243 2.31512 9.09443 2.75921 9.09443 3.23989L 9.09443 7.02893C 9.09443 7.50961 8.84243 7.95371 8.43331 8.19405Z" transform="translate(11.4453 10.899)" fill="#86929E"/>
</g>
</g>
</g>
</svg>
