<svg width="32" height="32" viewBox="0 0 32 32" version="1.1" xmlns="http://www.w3.org/2000/svg" xmlns:xlink="http://www.w3.org/1999/xlink">
<g id="Canvas" fill="none">
<g id="Icon/Aeternity/normal">
<g id="aeternity">
<path id="Shape" d="M 6.912 0L 8.2272 0C 10.2816 0.214468 12.1824 1.31404 13.5904 2.89702C 16.512 6.1583 18.1184 10.7609 21.8368 13.1881C 24.5248 14.9447 28.2848 13.5081 29.6064 10.543C 30.2784 10.5294 30.9536 10.5294 31.6256 10.5328C 30.7008 13.5455 28.0064 15.7106 25.0592 16L 23.9744 16C 22.16 15.84 20.3968 15.0979 19.024 13.8145C 17.0304 12.017 15.7504 9.55234 14.2016 7.3566C 12.8704 5.41617 11.5104 3.23404 9.3056 2.35234C 6.5824 1.26638 3.2544 2.96511 2.2624 5.85191C 1.3888 8.22809 2.0992 11.1762 4.0512 12.6979C 5.5136 13.903 7.552 14.3523 9.3088 13.6511C 11.2608 12.9021 12.7104 11.2 13.8208 9.39574C 14.2592 10.063 14.6848 10.7404 15.1072 11.4213C 13.3792 13.7362 10.9824 15.7243 8.1312 16L 6.9632 16C 3.3696 15.7345 0.2464 12.4868 0 8.65021L 0 7.39404C 0.2336 3.56426 3.3152 0.279149 6.912 0" transform="translate(0 8)" fill="#83929F"/>
<path id="Shape_2" d="M 6.9568 0L 8.048 0C 11.6736 0.251915 14.7584 3.56426 15.056 7.40085L 15.056 9.36851C 12.064 9.39915 9.0688 9.37872 6.0768 9.38213C 6.08 8.80681 6.08 8.23489 6.0768 7.65957C 8.4416 7.65277 10.8032 7.66979 13.1648 7.65277C 12.9984 6.63489 12.7808 5.59319 12.2144 4.73191C 10.832 2.48511 7.9104 1.56596 5.5744 2.53957C 3.712 3.27489 2.3104 4.88511 1.2288 6.60426C 0.8128 5.96766 0.4 5.32426 0 4.67404C 1.7056 2.32511 4.0864 0.292766 6.9568 0" transform="translate(16.944 8)" fill="#83929F"/>
</g>
</g>
</g>
</svg>
