<svg width="32" height="32" viewBox="0 0 32 32" version="1.1" xmlns="http://www.w3.org/2000/svg" xmlns:xlink="http://www.w3.org/1999/xlink">
<g id="Canvas" fill="none">
<g id="Icon/Aion/normal">
<g id="Group">
<path id="path0_fill" d="M 13.4258 3.6167C 11.471 2.42827 9.22581 1.79872 6.92258 1.79872C 4.80645 1.79872 2.71613 2.33191 0.883871 3.34689L 0 1.77302C 2.09677 0.610278 4.49032 0 6.91613 0C 9.55484 0 12.1355 0.719486 14.3742 2.08137L 13.4258 3.6167L 13.4258 3.6167Z" transform="translate(8.72302 1)" fill="#86929E"/>
<path id="path1_fill" opacity="0.4" d="M 2.45806 5.59529C 1.98065 3.88651 1.15484 2.33191 0 0.963597L 1.16774 0C 2.45806 1.53533 3.38065 3.28266 3.91613 5.19058L 2.45806 5.59529L 2.45806 5.59529Z" transform="translate(26.5312 6.56799)" fill="#86929E"/>
<path id="path2_fill" d="M 1.17419 10.7859L 0 9.41113C 2.8 7.05996 4.40645 3.62955 4.40645 0L 6.22581 0C 6.22581 4.15632 4.3871 8.08779 1.17419 10.7859Z" transform="translate(24.7728 16.167)" fill="#86929E"/>
<path id="path3_fill" d="M 9.08387 4.62527C 5.77419 4.62527 2.54839 3.47537 0 1.394L 1.16129 0C 3.38065 1.81799 6.2 2.82013 9.08387 2.82013C 11.1032 2.82013 13.0323 2.3576 14.8065 1.4454L 15.6452 3.04497C 13.6387 4.07923 11.3677 4.62527 9.08387 4.62527Z" transform="translate(6.39832 26.3598)" fill="#86929E"/>
<path id="path4_fill" opacity="0.4" d="M 2.32258 17.743C 0.8 15.4561 0 12.7966 0 10.0535C 0 6.23126 1.52903 2.65953 4.30323 0L 5.35484 1.08565C 2.88387 3.4561 1.51613 6.6424 1.51613 10.0535C 1.51613 12.5011 2.23226 14.8779 3.5871 16.9143L 2.32258 17.743Z" transform="translate(1 5.37615)" fill="#86929E"/>
<path id="path5_fill" fill-rule="evenodd" clip-rule="evenodd" d="M 0 9.19914C 0 14.2677 4.16772 18.3983 9.29028 18.3983C 14.413 18.3983 18.5807 14.2741 18.5807 9.19914C 18.5807 4.13062 14.413 0 9.29028 0C 4.16772 0 0 4.1242 0 9.19914ZM 1.81934 9.19914C 1.81934 5.11991 5.17419 1.79872 9.29028 1.79872C 13.4128 1.79872 16.7612 5.11991 16.7612 9.19914C 16.7612 13.2784 13.4064 16.5996 9.29028 16.5996C 5.16772 16.5996 1.81934 13.2784 1.81934 9.19914Z" transform="translate(6.17688 6.29227)" fill="#86929E"/>
</g>
</g>
</g>
</svg>
