<svg width="32" height="32" viewBox="0 0 32 32" version="1.1" xmlns="http://www.w3.org/2000/svg" xmlns:xlink="http://www.w3.org/1999/xlink">
<g id="Canvas" fill="none">
<g id="Icon/aira/normal">
<path id="Combined Shape" fill-rule="evenodd" clip-rule="evenodd" d="M 25 4.94999C 24.7403 4.89728 24.4952 4.80432 24.2716 4.6779L 15.9783 12.9712C 16.3054 13.3939 16.5 13.9242 16.5 14.5C 16.5 15.7095 15.6411 16.7184 14.5 16.95L 14.5 23.05C 14.8069 23.1123 15.0934 23.2308 15.3483 23.3944L 23.3943 15.3483C 23.1447 14.9592 23 14.4965 23 14C 23 12.7905 23.8589 11.7816 25 11.55L 25 4.94999ZM 23.5151 4.02017L 15.2187 12.3166C 14.8582 12.115 14.4425 12 14 12C 12.6193 12 11.5 13.1193 11.5 14.5C 11.5 14.9425 11.615 15.3581 11.8167 15.7187L 4.02014 23.5151C 3.59894 23.192 3.0719 23 2.5 23C 1.11926 23 0 24.1193 0 25.5C 0 26.8807 1.11926 28 2.5 28C 3.70947 28 4.71838 27.1411 4.95001 26L 11.55 26C 11.7816 27.1411 12.7905 28 14 28C 15.2095 28 16.2184 27.1411 16.45 26L 23.05 26C 23.2816 27.1411 24.2905 28 25.5 28C 26.8807 28 28 26.8807 28 25.5C 28 24.2905 27.1411 23.2816 26 23.05L 26 16.45C 27.1411 16.2184 28 15.2095 28 14C 28 12.7905 27.1411 11.7816 26 11.55L 26 4.94999C 27.1411 4.71836 28 3.70948 28 2.5C 28 1.11929 26.8807 0 25.5 0C 24.1193 0 23 1.11929 23 2.5C 23 3.07189 23.192 3.59894 23.5151 4.02017ZM 23.05 25C 23.2488 24.0204 24.0204 23.2488 25 23.05L 25 16.45C 24.6686 16.3827 24.361 16.2499 24.0912 16.0656L 16.0656 24.0912C 16.2499 24.3609 16.3828 24.6686 16.45 25L 23.05 25ZM 11.55 25C 11.7488 24.0204 12.5204 23.2488 13.5 23.05L 13.5 16.95C 13.1183 16.8725 12.7682 16.7081 12.4713 16.4783L 4.67792 24.2716C 4.80432 24.4952 4.89728 24.7403 4.95001 25L 11.55 25Z" transform="translate(2 2)" fill="#86929E"/>
</g>
</g>
</svg>
