<svg width="32" height="32" viewBox="0 0 32 32" version="1.1" xmlns="http://www.w3.org/2000/svg" xmlns:xlink="http://www.w3.org/1999/xlink">
<g id="Canvas" fill="none">
<g id="Icon/augmate/normal">
<g id="Page 1">
<path id="Fill 1" fill-rule="evenodd" clip-rule="evenodd" d="M 4.90162 9.93076e-06C 2.1828 0.0053994 -0.0135789 2.21407 6.32076e-05 4.92919C 0.0135369 7.64498 2.22019 9.83344 4.93952 9.82788C 7.64301 9.82233 9.85674 7.59597 9.84781 4.89163C 9.83872 2.18359 7.62533 -0.00537954 4.90162 9.93076e-06" transform="translate(22.1282 21.2214)" fill="#86929E"/>
<path id="Fill 3" fill-rule="evenodd" clip-rule="evenodd" d="M 8.6577 4.33231C 8.66831 1.93483 6.74309 0.00540098 4.33467 1.15015e-05C 1.90941 -0.00537797 0.00726258 1.88397 2.04792e-05 4.30553C -0.00722163 6.71412 1.90722 8.64675 4.30739 8.65399C 6.69324 8.66106 8.64709 6.72001 8.6577 4.33231" transform="translate(10.7109 1.16834)" fill="#86929E"/>
<path id="Fill 6" fill-rule="evenodd" clip-rule="evenodd" d="M 3.67653 0.000187315C 1.6767 -0.0200232 0.0228017 1.59783 0.000233276 3.59665C -0.0223351 5.598 1.59552 7.24566 3.60175 7.26436C 5.61859 7.28322 7.24874 5.68541 7.2671 3.67193C 7.28529 1.65627 5.68579 0.0205663 3.67653 0.000187315" transform="translate(-6.10352e-05 21.6029)" fill="#86929E"/>
<path id="Fill 9" fill-rule="evenodd" clip-rule="evenodd" d="M 2.9058 0.000616694C 1.30631 -0.032057 0.0077823 1.23767 3.49361e-05 2.84188C -0.00754401 4.41948 1.2189 5.67068 2.797 5.69544C 4.42563 5.72087 5.68862 4.48937 5.69772 2.86714C 5.70665 1.29241 4.47987 0.0327851 2.9058 0.000616694" transform="translate(8.68054 11.2414)" fill="#86929E"/>
<path id="Fill 11" fill-rule="evenodd" clip-rule="evenodd" d="M 2.90931 0.000315403C 1.29263 -0.0229267 -0.0021867 1.24124 2.77261e-06 2.8404C 0.00219225 4.40453 1.26417 5.66179 2.84026 5.6697C 4.42257 5.67762 5.67748 4.44596 5.69516 2.86752C 5.71301 1.2852 4.48657 0.0228838 2.90931 0.000315403" transform="translate(16.2275 18.0288)" fill="#86929E"/>
<path id="Fill 13" fill-rule="evenodd" clip-rule="evenodd" d="M 1.88267 3.79321C 2.92233 3.7991 3.75417 3.00382 3.79139 1.96819C 3.82996 0.892489 3.01631 0.024447 1.94701 0.000531222C 0.861871 -0.0237214 0.0162288 0.785205 0.000228832 1.86293C -0.0157712 2.94116 0.809155 3.78714 1.88267 3.79321" transform="translate(15.8049 12.6557)" fill="#86929E"/>
</g>
</g>
</g>
</svg>
