<svg width="32" height="32" viewBox="0 0 32 32" version="1.1" xmlns="http://www.w3.org/2000/svg" xmlns:xlink="http://www.w3.org/1999/xlink">
<g id="Canvas" fill="none">
<g id="Icon/Bitstamp/normal">
<path id="Fill 5" fill-rule="evenodd" clip-rule="evenodd" d="M 20.0236 18.4747C 19.1549 19.14 17.9559 19.4727 16.4263 19.4727L 9.1496 19.4727L 9.1496 17.6548C 10.3606 17.6548 11.3423 16.6731 11.3423 15.4621C 11.3423 14.2511 10.3606 13.2694 9.1496 13.2694L 9.1496 11.8077C 10.3606 11.8077 11.3423 10.826 11.3423 9.615C 11.3423 8.40402 10.3606 7.42228 9.1496 7.42228L 9.1496 5.8294L 15.5124 5.8294C 17.0744 5.8294 18.2962 6.14021 19.1777 6.76169C 20.0591 7.38338 20.4999 8.31252 20.4999 9.54941C 20.4999 10.1491 20.3232 10.6895 19.9701 11.1705C 19.6168 11.6516 19.1257 12.017 18.4971 12.2668C 19.4045 12.4106 20.1028 12.7885 20.5923 13.4006C 21.0816 14.013 21.3263 14.7312 21.3263 15.5559C 21.3263 16.8365 20.892 17.8094 20.0236 18.4747L 20.0236 18.4747ZM 9.14966 24.382L 20.9572 24.382L 20.9572 22.4055L 9.14966 22.4055L 9.14966 24.382ZM 14.9952 0C 6.71361 0 0 6.71361 0 14.9953C 0 23.2769 6.71361 29.9905 14.9952 29.9905C 23.2769 29.9905 29.9905 23.2769 29.9905 14.9953C 29.9905 6.71361 23.2769 0 14.9952 0L 14.9952 0ZM 17.5006 11.0721C 17.9251 10.738 18.1374 10.2648 18.1374 9.65248C 18.1374 8.9778 17.9138 8.4765 17.4666 8.14854C 17.0194 7.82057 16.368 7.65657 15.5124 7.65657L 13.2375 7.65657L 13.2375 11.5734L 15.7652 11.5734C 16.4976 11.5734 17.0761 11.4064 17.5006 11.0721L 17.5006 11.0721ZM 18.3221 13.916C 17.8878 13.51 17.2785 13.2945 16.4944 13.2694L 16.368 13.2694L 13.2374 13.2694L 13.2374 17.6548L 16.4263 17.6548C 17.243 17.6548 17.8716 17.4753 18.3124 17.116C 18.7531 16.7568 18.9735 16.2368 18.9735 15.5559C 18.9735 14.8687 18.7563 14.3222 18.3221 13.916L 18.3221 13.916Z" transform="translate(1 1)" fill="#86929E"/>
</g>
</g>
</svg>
