<svg width="32" height="32" viewBox="0 0 32 32" version="1.1" xmlns="http://www.w3.org/2000/svg" xmlns:xlink="http://www.w3.org/1999/xlink">
<g id="Canvas" fill="none">
<g id="Icon/Blockstack/normal">
<path id="Combined Shape" fill-rule="evenodd" clip-rule="evenodd" d="M 0 6C 0 2.68629 2.68628 0 6 0L 22 0C 25.3137 0 28 2.68629 28 6L 28 22C 28 25.3137 25.3137 28 22 28L 6 28C 2.68628 28 0 25.3137 0 22L 0 6ZM 8 11C 9.65686 11 11 9.65685 11 8C 11 6.34315 9.65686 5 8 5C 6.34314 5 5 6.34315 5 8C 5 9.65685 6.34314 11 8 11ZM 11 20C 11 21.6569 9.65686 23 8 23C 6.34314 23 5 21.6569 5 20C 5 18.3431 6.34314 17 8 17C 9.65686 17 11 18.3431 11 20ZM 20 11C 21.6569 11 23 9.65685 23 8C 23 6.34315 21.6569 5 20 5C 18.3431 5 17 6.34315 17 8C 17 9.65685 18.3431 11 20 11ZM 23 20C 23 21.6569 21.6569 23 20 23C 18.3431 23 17 21.6569 17 20C 17 18.3431 18.3431 17 20 17C 21.6569 17 23 18.3431 23 20Z" transform="translate(2 2)" fill="#86929E"/>
</g>
</g>
</svg>
