<?xml version="1.0" encoding="UTF-8" standalone="no"?>
<svg width="32px" height="32px" viewBox="0 0 32 32" version="1.1" xmlns="http://www.w3.org/2000/svg" xmlns:xlink="http://www.w3.org/1999/xlink">
    <!-- Generator: Sketch 49.3 (51167) - http://www.bohemiancoding.com/sketch -->
    <title>Icon/civic/normal</title>
    <desc>Created with Sketch.</desc>
    <defs></defs>
    <g id="Icon/civic/normal" stroke="none" stroke-width="1" fill="none" fill-rule="evenodd">
        <g id="civic" transform="translate(1.000000, 1.000000)" fill="#86929E" fill-rule="nonzero">
            <path d="M16.49055,16.16775 C17.6950881,15.5758257 18.4577422,14.3499696 18.45645,13.00785 C18.45645,11.0667 16.887,9.4935 14.9526,9.4935 C13.0182,9.4935 11.448,11.06655 11.448,13.0077 C11.4464524,14.3503097 12.2099045,15.576513 13.4154,16.1676 L13.4154,20.508 L16.4904,20.508 L16.4904,16.16775 M14.95275,26.25 C8.7687,26.25 3.7383,21.2037 3.7383,15 C3.7383,8.7963 8.76945,3.7509 14.95275,3.7509 C19.99905,3.7509 24.27645,7.1109 25.67985,11.7183 L29.5449,11.7183 C28.0536,5.01255 22.0866,0 14.95275,0 C6.69465,0 0,6.71565 0,15 C0,23.28435 6.69465,30 14.95275,30 C22.0866,30 28.0536,24.98745 29.54505,18.28155 L25.68,18.28155 C24.27555,22.89 19.99905,26.25 14.95275,26.25" id="Shape"></path>
        </g>
    </g>
</svg>