<svg width="32" height="32" viewBox="0 0 32 32" version="1.1" xmlns="http://www.w3.org/2000/svg" xmlns:xlink="http://www.w3.org/1999/xlink">
<g id="Canvas" fill="none">
<g id="Icon/civic/normal">
<g id="civic">
<path id="Shape" fill-rule="evenodd" clip-rule="evenodd" d="M 3.73831 15C 3.73831 21.2037 8.76871 26.25 14.9528 26.25C 19.9991 26.25 24.2755 22.89 25.68 18.2815L 29.545 18.2815C 28.0536 24.9874 22.0866 30 14.9528 30C 6.69464 30 0 23.2844 0 15C 0 6.71565 6.69464 0 14.9528 0C 22.0866 0 28.0536 5.01255 29.5449 11.7183L 25.6798 11.7183C 24.2765 7.1109 19.9991 3.7509 14.9528 3.7509C 8.76944 3.7509 3.73831 8.7963 3.73831 15ZM 18.4565 13.0078C 18.4565 11.0667 16.887 9.4935 14.9526 9.4935ZM 14.9526 9.4935C 13.0182 9.4935 11.448 11.0665 11.448 13.0077ZM 11.448 13.0077C 11.4464 14.3503 12.2099 15.5765 13.4154 16.1676ZM 13.4154 16.1676L 13.4154 20.508ZM 13.4154 20.508L 16.4904 20.508ZM 16.4904 20.508L 16.4905 16.1677Z" transform="translate(1 1)" fill="#86929E"/>
</g>
</g>
</g>
</svg>
