<svg width="32" height="32" viewBox="0 0 32 32" version="1.1" xmlns="http://www.w3.org/2000/svg" xmlns:xlink="http://www.w3.org/1999/xlink">
<g id="Canvas" fill="none">
<g id="Icon/Dmarket/normal">
<g id="dmarket">
<path id="Shape" opacity="0.25" d="M 11.2339 12.404L 7.8729 6.636L 4.45543 0.812C 4.25772 0.476 3.97529 0.196 3.66461 0L 3.63636 0C 3.29744 0.196 3.015 0.476 2.8173 0.84L 0.275375 5.208C -0.0917917 5.824 -0.0917917 6.608 0.275375 7.224L 3.32568 12.46C 3.55163 12.824 3.63636 13.244 3.63636 13.664C 3.63636 14.084 3.52339 14.504 3.32568 14.868L 0.303619 20.048C -0.0635481 20.664 -0.0635481 21.448 0.303619 22.064L 2.84554 26.432C 3.04325 26.768 3.32568 27.076 3.66461 27.272L 3.69285 27.272C 4.03177 27.076 4.28597 26.796 4.48367 26.46L 7.8729 20.636L 11.2339 14.812C 11.6575 14.056 11.6575 13.16 11.2339 12.404Z" transform="translate(3.19324 2.392)" fill="#86929E"/>
<g id="Group 2" opacity="0.6">
<path id="Shape_2" opacity="0.25" d="M 12.0654 12.628L 8.6762 6.832L 5.20223 0.868C 5.03277 0.588 4.83507 0.364 4.58087 0.168C 4.43966 0.056 4.29844 0 4.12898 0C 2.34963 0 1.13516 0.056 0.23136 0.056C 0.0901423 0.056 0.00541152 0.224 0.0336551 0.364L 0.909207 5.236C 0.909207 5.292 0.909207 5.348 0.880963 5.404C 0.54204 6.02 0.570284 6.776 0.93745 7.392L 4.04425 12.768C 4.2702 13.16 4.38317 13.58 4.38317 14C 4.38317 14.42 4.2702 14.84 4.04425 15.232L 0.909207 20.608C 0.54204 21.224 0.54204 21.98 0.85272 22.596C 0.880963 22.652 0.880963 22.708 0.880963 22.764L 0.00541152 27.608C -0.0228321 27.748 0.0618987 27.916 0.203117 27.916C 1.02218 27.916 -0.135807 28 4.21371 28C 4.29844 28 4.41141 27.972 4.49614 27.944C 4.80682 27.832 5.00453 27.468 5.17399 27.16L 8.64795 21.168L 12.0089 15.372C 12.5456 14.532 12.5456 13.496 12.0654 12.628L 12.0654 12.628Z" transform="translate(18.5736 2)" fill="#86929E"/>
<path id="Shape_3" d="M 23.6117 12.796L 16.8614 1.204C 16.4378 0.476 15.647 0 14.7714 0L 1.27096 0C 0.819064 0 0.39541 0.14 0 0.364L 0 0.392C 0.31068 0.588 0.593116 0.868 0.790821 1.204L 4.18005 7.028C 4.49073 6.888 4.8579 6.804 5.19682 6.804L 10.7891 6.804C 11.6646 6.804 12.4554 7.252 12.8791 8.008L 15.6752 12.796C 16.0989 13.524 16.0989 14.448 15.6752 15.204L 12.8791 19.992C 12.4554 20.72 11.6364 21.196 10.7891 21.196L 5.22507 21.196C 4.8579 21.196 4.51898 21.112 4.2083 20.972L 0.819064 26.796C 0.621359 27.132 0.338923 27.412 0.0282436 27.608L 0.0282436 27.636C 0.39541 27.86 0.847308 28 1.29921 28L 14.8279 28C 15.7034 28 16.4943 27.552 16.9179 26.796L 23.6681 15.204C 24.0635 14.448 24.0635 13.552 23.6117 12.796Z" transform="translate(5.64343 2)" fill="#86929E"/>
</g>
<path id="Shape_4" d="M 11.1774 12.404L 7.81642 6.636L 4.42718 0.812C 4.22948 0.476 3.94704 0.196 3.63636 0L 3.60812 0C 3.2692 0.196 2.98676 0.476 2.78906 0.84L 0.275375 5.18C -0.0917917 5.796 -0.0917917 6.58 0.275375 7.196L 3.32568 12.432C 3.55163 12.796 3.63636 13.216 3.63636 13.636C 3.63636 14.056 3.52339 14.476 3.32568 14.84L 0.275375 20.048C -0.0917917 20.664 -0.0917917 21.448 0.275375 22.064L 2.8173 26.432C 3.015 26.768 3.29744 27.076 3.63636 27.272L 3.66461 27.272C 4.00353 27.076 4.25772 26.796 4.45543 26.46L 7.84466 20.636L 11.2056 14.868C 11.6293 14.056 11.6293 13.16 11.1774 12.404Z" transform="translate(2.00708 2.392)" fill="#86929E"/>
</g>
</g>
</g>
</svg>
