<svg width="33" height="32" viewBox="0 0 33 32" version="1.1" xmlns="http://www.w3.org/2000/svg" xmlns:xlink="http://www.w3.org/1999/xlink">
<g id="Canvas" fill="none">
<g id="Icon/Dreamteam/normal">
<g id="dreamteam">
<path id="Shape" fill-rule="evenodd" clip-rule="evenodd" d="M 19.8345 0L 23.2012 0C 29.2028 0 33.0087 4.88889 31.7644 10.8889L 30.6666 16.1481C 29.0564 21.6296 23.5671 26 17.9315 26L 0 26L 12.5886 17.1111L 19.8345 22.2963L 19.8345 15.2593L 29.0564 8.74074L 19.8345 8.74074L 19.8345 0ZM 19.8345 0L 2.26892 0L 3.65955 2L 18.3707 2L 19.8345 0ZM 13.2474 8.74074L 8.56323 8.74074L 7.09949 6.81482L 14.7113 6.81482L 13.2474 8.74074ZM 6.14795 5.33333L 15.809 5.33333L 17.2728 3.40741L 4.75732 3.40741L 6.14795 5.33333Z" transform="translate(0.284424 3)" fill="#86929E"/>
</g>
</g>
</g>
</svg>
