<svg width="32" height="32" viewBox="0 0 32 32" version="1.1" xmlns="http://www.w3.org/2000/svg" xmlns:xlink="http://www.w3.org/1999/xlink">
<g id="Canvas" fill="none">
<g id="Icon/Enigma/normal">
<g id="enigma-1">
<path id="Shape" fill-rule="evenodd" clip-rule="evenodd" d="M 27.4879 7.74466C 27.4552 7.72592 27.4225 7.70717 27.385 7.68375C 26.0601 6.92364 24.7368 6.16178 23.4143 5.4003C 22.5765 4.91797 21.739 4.43579 20.9016 3.95432C 20.0419 3.46038 19.1827 2.96576 18.3239 2.47124L 18.2946 2.45437L 18.2827 2.44759C 16.8905 1.64598 15.4987 0.844645 14.105 0.0468521L 14.0255 0L 13.9413 0.0327965C 13.7917 0.089019 13.6749 0.145242 13.5674 0.206149L 13.3662 0.324132C 11.4607 1.44205 9.5553 2.55981 7.65417 3.67321C 6.7959 4.17718 5.93713 4.68057 5.07898 5.18359C 3.48792 6.11623 1.89905 7.04757 0.319946 7.97892C 0.0178223 8.1187 0.0253906 8.43459 0.0300293 8.627L 0.0301514 8.63016C 0.0301514 8.64239 0.0306396 8.65502 0.0311279 8.66793L 0.0311279 8.66881L 0.0311279 8.66972L 0.0311279 8.67067L 0.0311279 8.67165L 0.0311279 8.67266C 0.0322266 8.70283 0.0333252 8.73443 0.0301514 8.76603C 0.0255127 12.4018 0.020752 16.0375 0.0114746 19.6732L 0.0020752 23.7212C -0.0166016 23.9649 0.0909424 24.171 0.273193 24.2553C 3.08252 25.853 5.89197 27.4553 8.70129 29.0577L 13.6702 31.8922C 13.7823 31.9625 13.8945 32 13.9974 32C 14.0862 32 14.1656 31.9719 14.2312 31.9204L 21.4392 27.7599C 22.3354 27.243 23.2318 26.7253 24.1268 26.2082L 24.272 26.1243C 25.373 25.4883 26.4722 24.8534 27.5674 24.2225C 27.7964 24.1195 27.932 23.8899 27.9039 23.6744L 27.9272 8.35373C 27.9601 8.00234 27.6655 7.83836 27.4879 7.74466ZM 13.9741 8.70981L 19.9012 12.1675L 13.9834 15.5877L 11.9688 14.4445C 11.3048 14.0673 10.641 13.6912 9.97705 13.3151C 9.31335 12.9392 8.64966 12.5633 7.98608 12.1862L 13.9741 8.70981ZM 14.2732 7.94612L 20.7098 11.699L 26.7073 8.23192C 25.9463 7.79293 25.1853 7.35499 24.4243 6.91711L 24.296 6.84325L 24.295 6.84268C 23.4911 6.38004 22.6871 5.9174 21.8832 5.45359C 19.2468 3.94026 16.6151 2.42694 13.9834 0.904246C 11.1133 2.58155 8.2478 4.25886 5.38232 5.94085L 1.25012 8.3631L 7.17261 11.7177L 13.6935 7.93206C 13.8618 7.81962 14.0956 7.81962 14.2732 7.94612ZM 0.843506 9.06589L 6.73792 12.4111L 6.8595 19.7903C 6.84546 20.0199 6.95764 20.2261 7.13525 20.3057C 7.93176 20.7664 8.72986 21.2253 9.52881 21.6846C 10.0381 21.9774 10.5476 22.2703 11.0571 22.564L 13.572 24.0117L 13.5674 30.9037L 0.81543 23.6322L 0.843506 9.06589ZM 13.5814 16.2905L 7.55603 12.875L 7.66821 19.6779L 13.572 23.0794L 13.5814 16.2905ZM 14.3855 24.0164L 16.905 22.5687C 17.5707 22.1843 18.2377 21.8012 18.9059 21.4174L 18.9326 21.402L 19.0381 21.3414C 19.6208 21.0066 20.2047 20.6712 20.7894 20.3338L 20.8269 20.3104C 20.897 20.2682 20.9905 20.212 21.0559 20.1183L 21.0933 20.0668L 21.0933 20.0059C 21.0792 18.3801 21.0792 16.7215 21.084 15.1192C 21.084 14.8193 21.0845 14.5195 21.085 14.2196C 21.0861 13.6199 21.087 13.0202 21.084 12.4205L 27.114 8.9347L 27.1046 14.8802L 27.0906 23.5619C 25.4617 24.5002 23.8326 25.4402 22.2025 26.3809L 21.9777 26.5106L 21.8215 26.6008L 19.0085 28.2237L 14.3761 30.899L 14.3855 24.0164ZM 14.39 16.2905L 14.3854 23.084C 16.3673 21.9408 18.3494 20.8023 20.3267 19.6685L 20.3267 12.8609L 14.39 16.2905Z" transform="translate(2.04468 0)" fill="#86929E"/>
<path id="Shape_2" fill-rule="evenodd" clip-rule="evenodd" d="M 12.3358 0.00833416C 12.163 0.0270751 12.0087 0.13952 11.9292 0.303502C 11.8497 0.476855 11.859 0.664264 11.9573 0.80482C 12.0507 0.954747 12.2236 1.04377 12.4106 1.04377C 12.4434 1.04377 12.4807 1.03908 12.5182 1.0344C 12.7379 0.996914 12.9015 0.846987 12.9388 0.654894C 12.9856 0.486226 12.9435 0.308188 12.8174 0.177002C 12.6958 0.0411307 12.5088 -0.0244623 12.3358 0.00833416ZM 12.6771 2.24318C 12.4949 2.14479 12.2798 2.14948 12.1208 2.25724C 11.9807 2.33688 11.8872 2.48681 11.8685 2.66016C 11.8545 2.83352 11.9246 2.99281 12.0367 3.08183C 12.1349 3.17554 12.2611 3.22239 12.3967 3.22239C 12.4762 3.22239 12.5557 3.20365 12.6304 3.17085C 12.8314 3.08183 12.953 2.89911 12.9482 2.70702C 12.9576 2.51961 12.8547 2.34157 12.6771 2.24318ZM 12.1349 4.4218C 12.3031 4.32341 12.5228 4.3281 12.7004 4.44054C 12.8688 4.5483 12.9623 4.72634 12.9482 4.91844C 12.9388 5.10116 12.822 5.26046 12.635 5.34479C 12.5602 5.37759 12.4807 5.39633 12.4012 5.39633C 12.2798 5.39633 12.163 5.35885 12.0695 5.28388C 11.9338 5.19486 11.8544 5.01683 11.8684 4.8341C 11.8824 4.65138 11.9806 4.50145 12.1349 4.4218ZM 4.02002 18.7914C 3.83777 18.8429 3.69751 18.9928 3.6554 19.1896C 3.6134 19.3911 3.68347 19.5925 3.82373 19.7003C 3.91248 19.7799 4.02466 19.8221 4.1416 19.8221C 4.17896 19.8221 4.22107 19.8174 4.25842 19.808C 4.42676 19.7706 4.56689 19.6534 4.61841 19.5129C 4.70715 19.3302 4.67444 19.1099 4.52954 18.946C 4.39868 18.7914 4.20239 18.7351 4.02002 18.7914ZM 20.6517 19.808C 20.605 19.8221 20.5629 19.8268 20.5209 19.8268C 20.3993 19.8268 20.2825 19.7846 20.1982 19.6956C 20.0627 19.5878 19.9926 19.3911 20.03 19.1896C 20.0674 18.9928 20.203 18.8382 20.3806 18.7867C 20.5629 18.7258 20.7639 18.782 20.9042 18.9366C 21.0491 19.1053 21.0864 19.3302 20.9929 19.5176C 20.9509 19.6487 20.8199 19.7659 20.6517 19.808ZM 2.15967 19.8971C 1.97266 19.9627 1.84644 20.1313 1.82776 20.3422C 1.80908 20.5577 1.91187 20.7591 2.07544 20.8528C 2.15027 20.8997 2.23914 20.9278 2.32788 20.9278C 2.40271 20.9278 2.47278 20.9091 2.54761 20.8763C 2.71118 20.8013 2.82336 20.6514 2.8374 20.5015C 2.87952 20.3187 2.80469 20.1126 2.65051 19.9861C 2.50549 19.8596 2.32324 19.8268 2.15967 19.8971ZM 22.5168 20.8903C 22.4561 20.9138 22.3953 20.9231 22.3346 20.9231C 22.2223 20.9231 22.1101 20.881 22.0214 20.8107C 21.8811 20.7029 21.8063 20.5061 21.839 20.3047C 21.8718 20.1079 22.0027 19.9533 22.1757 19.8924C 22.3439 19.8268 22.5402 19.8689 22.6804 20.0001C 22.8301 20.136 22.8907 20.3328 22.8394 20.5155C 22.8207 20.6701 22.6945 20.8247 22.5168 20.8903ZM 0.757202 21.0262C 0.598389 20.9372 0.416016 20.9372 0.266479 21.0262C 0.102783 21.1152 0 21.2933 0 21.4947C 0 21.7009 0.112183 21.8789 0.271118 21.9586C 0.341187 22.0007 0.420654 22.0195 0.500122 22.0195C 0.593628 22.0195 0.691772 21.9913 0.78064 21.9351C 0.948975 21.8274 1.04236 21.6353 1.02368 21.4713C 1.02832 21.2886 0.925537 21.1199 0.757202 21.0262ZM 24.1576 22.0195C 24.0454 22.0195 23.938 21.9773 23.8538 21.9023C 23.7275 21.818 23.6482 21.6446 23.6575 21.4619C 23.6669 21.2745 23.765 21.1152 23.9146 21.0262C 24.0735 20.9231 24.2745 20.9278 24.4381 21.0403C 24.6157 21.1574 24.7092 21.3635 24.6719 21.565C 24.6625 21.729 24.5363 21.8976 24.354 21.9773C 24.2886 22.0054 24.2231 22.0195 24.1576 22.0195Z" transform="translate(3.50989 1.69708)" fill="#86929E"/>
</g>
</g>
</g>
</svg>
