<svg width="32" height="32" viewBox="0 0 32 32" version="1.1" xmlns="http://www.w3.org/2000/svg" xmlns:xlink="http://www.w3.org/1999/xlink">
<g id="Canvas" fill="none">
<g id="Icon/icon/normal">
<g id="icon-2">
<g id="Subtract">
<path id="path0_fill" fill-rule="evenodd" clip-rule="evenodd" d="M 16.3119 5.79672L 19.7158 2.39563C 17.6641 0.888889 15.1315 0 12.392 0C 5.54895 0 0 5.549 0 12.392C 0 15.1315 0.888916 17.6641 2.3927 19.7158L 5.79382 16.3148C 5.11182 15.1665 4.71838 13.8259 4.71838 12.392C 4.71838 8.15738 8.15149 4.72131 12.389 4.72131C 13.823 4.72131 15.1636 5.11184 16.3119 5.79672ZM 12.392 20.0627C 16.6266 20.0627 20.0626 16.6295 20.0626 12.392C 20.0626 10.9523 19.6664 9.60583 18.9756 8.45173L 22.3767 5.05064C 23.8893 7.10528 24.7839 9.64372 24.7839 12.392C 24.7839 19.235 19.235 24.784 12.392 24.784C 9.64368 24.784 7.10535 23.8893 5.05066 22.3767L 8.45471 18.9756C 9.60583 19.6663 10.9523 20.0627 12.392 20.0627Z" transform="translate(3.36157 3.2895)" fill="#86929E"/>
</g>
<g id="Ellipse_2">
<path id="path1_fill" d="M 6.45537 3.22914C 6.45537 5.01275 5.00984 6.45829 3.22623 6.45829C 1.44262 6.45829 0 5.01275 0 3.22914C 0 1.44554 1.44554 0 3.22623 0C 5.00692 0 6.45537 1.44554 6.45537 3.22914Z" transform="translate(25.5267 0)" fill="#86929E"/>
</g>
<g id="Ellipse_2.1">
<path id="path1_fill_1_" d="M 6.45537 3.22914C 6.45537 5.01275 5.00984 6.45829 3.22623 6.45829C 1.44262 6.45829 0 5.01275 0 3.22914C 0 1.44554 1.44554 0 3.22914 0C 5.01275 0 6.45537 1.44845 6.45537 3.22914Z" transform="translate(0 25.5238)" fill="#86929E"/>
</g>
</g>
</g>
</g>
</svg>
