<svg width="32" height="32" viewBox="0 0 32 32" version="1.1" xmlns="http://www.w3.org/2000/svg" xmlns:xlink="http://www.w3.org/1999/xlink">
<g id="Canvas" fill="none">
<g id="Icon/nebulas/normal">
<g id="nebulas">
<path id="path0_fill" fill-rule="evenodd" clip-rule="evenodd" d="M 4.59167 13.7066C 3.08728 14.4466 1.58777 15.1914 0 15.9804L 0.131958 16.0315C 0.246948 16.0762 0.328979 16.108 0.416504 16.1372L 0.439087 16.1449C 3.39148 17.1518 6.34387 18.1587 9.30103 19.151C 9.62451 19.2588 9.81067 19.4401 9.95776 19.739C 11.5361 22.9702 13.1261 26.1935 14.7175 29.4195L 15.2797 30.5593C 15.4952 31.0003 15.7158 31.4413 15.9755 31.9559C 16.0145 31.8506 16.0426 31.7805 16.0652 31.7238C 16.0795 31.6881 16.0916 31.6579 16.1029 31.6276L 16.6722 29.957C 17.4878 27.565 18.303 25.1744 19.1021 22.7773C 19.2343 22.3804 19.4401 22.1452 19.8175 21.959C 22.5183 20.6397 25.2142 19.3082 27.9104 17.9766C 29.03 17.4237 30.1497 16.8707 31.2698 16.3185C 31.3929 16.2599 31.5143 16.1978 31.6508 16.1279C 31.7423 16.081 31.8407 16.0306 31.951 15.9755L 31.7753 15.9126C 31.6733 15.8761 31.6001 15.8498 31.5247 15.8236C 30.5369 15.4867 29.5485 15.1509 28.5602 14.8151C 26.587 14.1446 24.6138 13.4742 22.645 12.7951C 22.4294 12.7216 22.1746 12.5599 22.0814 12.3688C 20.4756 9.14117 18.8829 5.91032 17.2898 2.67887L 16.2058 0.480245C 16.1372 0.338132 16.0637 0.196018 15.9608 0C 15.9294 0.0830455 15.9031 0.150671 15.8801 0.209939C 15.8528 0.280074 15.8302 0.338506 15.8088 0.396937L 15.2461 2.05466C 14.4232 4.47817 13.5994 6.90432 12.7853 9.33047C 12.6873 9.6245 12.5305 9.80092 12.2561 9.93323C 9.71838 11.1777 7.18567 12.4271 4.65283 13.6764L 4.59167 13.7066ZM 17.7041 6.02643L 17.5975 5.81065L 16.1421 2.86187C 14.957 6.3659 13.7909 9.81008 12.6173 13.2764L 12.1929 14.5303L 11.0946 17.774C 12.7955 16.9321 14.4717 16.104 16.1404 15.2795L 16.2604 15.2202L 16.3285 15.1865C 17.9091 14.4056 19.4835 13.6276 21.067 12.8441C 19.9432 10.5627 18.8284 8.30432 17.7041 6.02643ZM 2.8717 15.8089C 4.15503 16.2437 5.41064 16.6699 6.65918 17.0936L 6.84521 17.1568C 7.82751 17.4902 8.80615 17.8223 9.79114 18.1562C 10.1595 17.0672 10.5258 15.9869 10.8939 14.9009L 10.917 14.8329C 11.3199 13.6444 11.7253 12.4488 12.1384 11.227C 10.1036 12.2364 8.11438 13.2189 6.11694 14.2055L 6.0531 14.237L 6.03101 14.2479L 5.86157 14.3316C 4.86975 14.8215 3.87537 15.3126 2.8717 15.8089ZM 11.2269 19.8322L 12.4768 22.367L 12.5826 22.5815C 13.6541 24.7545 14.713 26.9024 15.7942 29.0989C 16.1215 28.1331 16.443 27.1821 16.7625 26.2371C 17.2227 24.8758 17.6787 23.5271 18.1415 22.1648C 15.8579 21.3954 13.6036 20.6358 11.2269 19.8322ZM 11.731 18.8078C 11.7039 18.7917 11.6713 18.7723 11.6288 18.7492C 12.0863 18.5241 12.5142 18.3097 12.9324 18.1002L 12.9514 18.0906L 12.9562 18.0882L 13.3684 17.8818C 14.0905 17.526 14.8118 17.1699 15.5328 16.8138C 17.5231 15.8312 19.5116 14.8493 21.5081 13.8781C 21.6992 13.7801 21.9933 13.7654 22.1991 13.834C 23.7601 14.3485 25.3136 14.8756 26.8667 15.4027L 26.8702 15.4039L 26.9231 15.4218L 27.0103 15.4514C 27.5692 15.641 28.1279 15.8306 28.6873 16.0196C 28.7638 16.0438 28.8405 16.0746 28.9606 16.1229L 29.045 16.1568C 28.2561 16.5538 27.5308 16.9164 26.8055 17.2741L 25.699 17.82C 23.5157 18.8973 21.3345 19.9735 19.1461 21.0426C 18.9697 21.1308 18.71 21.1798 18.5287 21.121C 16.2941 20.381 14.0643 19.6214 11.8346 18.8619C 11.8019 18.85 11.7728 18.8327 11.731 18.8078Z" fill="#86929E"/>
</g>
</g>
</g>
</svg>
