<svg width="32" height="32" viewBox="0 0 32 32" version="1.1" xmlns="http://www.w3.org/2000/svg" xmlns:xlink="http://www.w3.org/1999/xlink">
<g id="Canvas" fill="none">
<g id="Icon/obsidian/normal">
<path id="Combined Shape" fill-rule="evenodd" clip-rule="evenodd" d="M 14.9716 29.1608C 7.08734 29.1596 0.717647 22.7867 0.722293 14.9042C 0.726872 7.06007 7.12882 0.713842 15.0302 0.720663C 22.8593 0.727485 29.23 7.1096 29.2297 14.9456C 29.2294 22.7967 22.8449 29.1619 14.9716 29.1608L 14.9716 29.1608ZM 15.0326 6.74105e-05C 6.72186 -0.0245021 0.000265487 6.67033 0 14.9299C -0.000199115 23.1683 6.69763 29.8774 14.9285 29.8835C 23.2213 29.8896 29.9423 23.2164 29.9505 14.9756C 29.9587 6.72795 23.307 0.0245707 15.0326 6.74105e-05L 15.0326 6.74105e-05ZM 22.3387 5.87121C 21.2742 5.05246 20.0414 4.73849 18.7212 4.73697C 17.209 4.73525 15.7633 5.07902 14.3677 5.64306C 12.4858 6.40379 10.7548 7.42372 9.15987 8.67717C 7.96365 9.61717 6.86713 10.6503 6.00934 11.9182C 5.09772 13.2656 4.54067 14.7267 4.53011 16.3709C 4.526 16.9979 4.58241 17.6177 4.77602 18.2161C 5.1548 19.3869 5.80584 20.3958 6.65401 21.2806C 7.64109 22.3103 8.81341 23.0748 10.0968 23.6881C 12.0252 24.6096 14.0381 24.9576 16.1585 24.6364C 17.5381 24.4275 18.7982 23.9248 19.923 23.0957C 20.0739 22.9845 20.2171 22.8628 20.3638 22.746C 20.0791 22.825 19.8172 22.9388 19.5533 23.0483C 18.9642 23.2927 18.3623 23.4975 17.719 23.5285C 16.6948 23.5779 15.7204 23.3566 14.7857 22.9499C 13.4329 22.3612 12.2805 21.494 11.2664 20.4313C 10.7018 19.8396 10.2444 19.1945 10.0364 18.3862C 9.82498 17.5643 9.63138 16.7439 9.79067 15.8901C 9.89972 15.3056 9.98746 14.7121 10.1605 14.1457C 10.4711 13.1289 11.0501 12.2548 11.749 11.4585C 12.6604 10.4199 13.7679 9.6326 14.9637 8.9577C 16.3933 8.15081 17.8949 7.54644 19.5289 7.29299C 20.8005 7.09578 21.9537 7.38068 23.0087 8.09472C 23.7474 8.59478 24.3022 9.25684 24.6919 10.0584C 24.7125 10.0527 24.7331 10.0469 24.7538 10.0411C 24.5786 9.51531 24.4269 8.98021 24.2233 8.46558C 23.8187 7.44346 23.2207 6.54955 22.3387 5.87121L 22.3387 5.87121ZM 22.1325 8.62856C 20.9872 8.03134 19.7902 7.90141 18.5335 8.21008C 16.8156 8.632 15.283 9.40617 13.9606 10.5771C 11.8897 12.4107 10.9094 14.7166 11.0071 17.478C 11.0099 17.5597 11.0152 17.6413 11.0193 17.7229C 11.1526 17.3839 11.2485 17.0454 11.3465 16.7076C 11.5574 15.9806 11.7839 15.2547 12.2045 14.619C 13.7115 12.3411 15.8304 11.2525 18.5728 11.4271C 19.4651 11.4839 20.2038 11.8731 20.7826 12.5562C 21.3056 13.1733 21.6166 13.8911 21.7671 14.6782C 21.9338 15.5499 21.9008 16.4327 21.7708 17.299C 21.5037 19.078 20.6477 20.5431 19.2467 21.6807C 18.9784 21.8986 18.6828 22.083 18.3998 22.2829L 18.4157 22.3311C 18.8065 22.1852 19.2123 22.0697 19.5857 21.8882C 21.4808 20.967 22.757 19.4794 23.5095 17.5321C 24.0873 16.0368 24.3214 14.4787 24.3079 12.8815C 24.301 12.0501 24.1343 11.249 23.7776 10.4945C 23.4097 9.71624 22.9198 9.03909 22.1325 8.62856L 22.1325 8.62856Z" transform="translate(1 1.06624)" fill="#86929E"/>
</g>
</g>
</svg>
