<svg width="32" height="32" viewBox="0 0 32 32" version="1.1" xmlns="http://www.w3.org/2000/svg" xmlns:xlink="http://www.w3.org/1999/xlink">
<g id="Canvas" fill="none">
<g id="Icon/oceanx/normal">
<g id="Group">
<g id="Page 1">
<path id="Fill 1" opacity="0.6" fill-rule="evenodd" clip-rule="evenodd" d="M 0 6.53033C 0 11.6808 5.53389 16.8665 12.03 14.8025C 11.9374 14.7182 11.8124 14.663 11.6586 14.6602C 8.42625 14.6002 4.88666 12.3416 4.88666 8.69671C 4.88666 6.67774 5.42605 5.24621 6.43682 4.16003C 5.08662 2.91528 3.86757 1.39395 2.58264 0C 0.956453 1.54924 0 3.74113 0 6.53033" transform="translate(11.0466 13.6432)" fill="#86929E"/>
<path id="Fill 3" opacity="0.4" fill-rule="evenodd" clip-rule="evenodd" d="M 5.10801 8.52837C 5.10801 5.08485 6.17899 2.5505 8.19821 0.585349C 7.32963 0.215681 6.38483 0 5.33372 0C 3.71189 0 1.09226 0.743123 0.204426 3.92223C 0.0707432 4.71987 0 5.53834 0 6.37316C 0 14.633 6.80899 21.3289 15.2084 21.3289C 17.6248 21.3289 19.9097 20.7747 21.9386 19.7884C 22.1597 19.681 22.2588 19.4826 22.259 19.2857C 13.4183 22.4555 5.10801 16.4639 5.10801 8.52837" transform="translate(1 9.5825)" fill="#86929E"/>
<path id="Fill 6" opacity="0.5" fill-rule="evenodd" clip-rule="evenodd" d="M 16.9685 18.2779C 10.4724 20.3419 4.93855 15.1563 4.93855 10.0057C 4.93855 7.21664 5.895 5.02465 7.52118 3.47542C 6.18841 2.02953 4.78459 0.721096 3.0902 0C 1.07098 1.96525 0 4.4996 0 7.94312C 0 15.8786 8.3103 21.8702 17.151 18.7005C 17.1512 18.5426 17.0876 18.3861 16.9685 18.2779" transform="translate(6.10803 10.1678)" fill="#86929E"/>
<path id="Fill 8" fill-rule="evenodd" clip-rule="evenodd" d="M 5.12929 8.58249C 12.5786 8.58249 14.7003 19.3925 22.0448 19.3925C 26.4637 19.3925 30.6443 15.9801 29.6019 10.7475C 28.3857 4.64183 21.9174 0 15.004 0C 7.45358 0 1.18936 5.41106 0 12.5047C 0.887736 9.32561 3.50747 8.58249 5.12929 8.58249" transform="translate(1.20441 1)" fill="#86929E"/>
<path id="Fill 10" opacity="0.4" fill-rule="evenodd" clip-rule="evenodd" d="M 14.833 10.4105C 15.0915 9.54429 15.5092 8.82837 16.0746 8.2208C 14.7243 6.97595 13.5053 5.45472 12.2204 4.06076C 10.8877 2.61478 9.48385 1.30635 7.78936 0.585349C 6.92078 0.215681 5.97598 0 4.92486 0C 3.41311 0 1.0349 0.646645 0 3.30917C 1.12318 2.33043 2.51503 2.04319 3.52236 2.04319C 8.67872 2.04319 11.2827 7.22203 14.833 10.4105" transform="translate(1.40881 9.58249)" fill="#86929E"/>
</g>
</g>
</g>
</g>
</svg>
