<svg width="32" height="32" viewBox="0 0 32 32" version="1.1" xmlns="http://www.w3.org/2000/svg" xmlns:xlink="http://www.w3.org/1999/xlink">
<g id="Canvas" fill="none">
<g id="Icon/Polkadot/normal">
<g id="Page 1">
<path id="Combined Shape" fill-rule="evenodd" clip-rule="evenodd" d="M 17.5511 0.73146C 21.3694 2.05694 22.2715 5.36213 21.3694 8.60244C 20.3376 12.3094 16.2689 15.2023 12.1268 15.2404C 11.5402 15.2458 11.3139 15.3825 11.1757 15.9363C 10.3669 19.1781 9.54663 22.4184 8.64612 25.6387C 7.84229 28.5124 5.51361 30.1119 2.32904 29.9939C 2.43848 29.5679 2.54877 29.1481 2.65796 28.7322C 2.89209 27.8406 3.12146 26.967 3.32831 26.0889C 3.76361 24.2406 4.19312 22.3911 4.62256 20.5416C 5.30768 17.5914 5.9928 14.6412 6.70148 11.6959C 7.26093 9.3711 7.84076 7.04483 8.56946 4.763C 9.21545 2.73999 11.3189 2.01875 13.3658 2.94358C 13.8644 3.1689 14.0483 3.40671 13.9069 3.98753C 13.3005 6.47827 12.7378 8.97832 12.1751 11.4783C 12.0356 12.098 11.8962 12.7177 11.756 13.3372C 11.7274 13.4636 11.7213 13.5944 11.7122 13.7877C 11.7069 13.9002 11.7006 14.0339 11.6884 14.2003C 11.9585 14.09 12.2192 13.9958 12.4686 13.9057C 12.9792 13.7212 13.4426 13.5538 13.8429 13.3001C 16.1002 11.8703 17.2518 9.76025 17.636 7.31756C 17.7966 6.29619 17.7187 5.1858 17.4666 4.17735C 17.0872 2.6602 15.9175 1.73154 14.2338 1.58005C 9.474 1.15171 5.77875 3.19417 4.3573 7.04256C 3.79742 8.55871 3.84052 10.1054 4.42877 11.7148L 4.35822 11.7123C 2.98645 11.663 1.67004 11.6156 0.759216 10.5895C -0.190369 9.51989 -0.155029 8.25546 0.350037 7.02722C 1.09717 5.21022 2.56506 3.93571 4.24957 2.87756C 7.12628 1.07078 10.2579 -0.112727 13.7808 0.00852001C 15.0486 0.0522485 16.3594 0.317885 17.5511 0.73146ZM 15.0008 23.5657C 14.9456 20.3731 17.8808 17.1283 21.7062 17.294C 25.0114 17.4371 28.0915 20.1225 27.9979 23.7753C 27.9071 27.3264 25.0379 30.03 21.3184 29.9869C 17.7725 29.9455 14.9633 27.0904 15.0008 23.5657Z" transform="translate(2 1)" fill="#86929E"/>
</g>
</g>
</g>
</svg>
