<svg width="32" height="32" viewBox="0 0 32 32" version="1.1" xmlns="http://www.w3.org/2000/svg" xmlns:xlink="http://www.w3.org/1999/xlink">
<g id="Canvas" fill="none">
<g id="Icon/raiden/normal">
<g id="raiden-network-token">
<path id="Shape" fill-rule="evenodd" clip-rule="evenodd" d="M 12.1044 0.00840202L 0 0.00840202C 0.0963135 0.0650149 0.196899 0.108497 0.298462 0.152384C 0.328247 0.165264 0.358154 0.178177 0.388062 0.191468C 2.70203 1.25325 4.92078 2.56401 6.89062 4.21161C 8.69934 5.73472 10.2957 7.5727 11.438 9.69627C 12.5071 11.6807 13.1808 13.9214 13.2467 16.2061C 13.2467 16.5283 13.2467 16.8505 13.2101 17.1727L 19.3831 17.1727C 19.4783 14.7489 19.1342 12.3178 18.4165 10.0111C 17.7355 7.829 16.725 5.77133 15.4728 3.88941C 14.5793 2.54936 13.5688 1.28987 12.4192 0.176823C 12.3949 0.158117 12.3719 0.13511 12.349 0.111953C 12.2819 0.0444599 12.2134 -0.0243103 12.1044 0.00840202ZM 11.0217 23.9339C 8.95679 20.0309 6.89172 16.1352 4.81946 12.2396L 4.81946 31.9009C 6.10474 31.0441 7.38623 30.1855 8.66772 29.3269C 9.9491 28.4683 11.2306 27.6098 12.5156 26.7531C 12.0176 25.8085 11.5197 24.8712 11.0217 23.9339Z" transform="translate(6 0.0721472)" fill="#86929E"/>
</g>
</g>
</g>
</svg>
