<svg width="32" height="32" viewBox="0 0 32 32" version="1.1" xmlns="http://www.w3.org/2000/svg" xmlns:xlink="http://www.w3.org/1999/xlink">
<g id="Canvas" fill="none">
<g id="Icon/rchain/normal">
<g id="rchain">
<g id="Vector">
<path id="path1_fill" fill-rule="evenodd" clip-rule="evenodd" d="M 22.028 1.76793C 19.4211 0.367575 16.3943 -0.224885 13.4535 0.0767311C 10.5558 0.372961 7.74976 1.53095 5.49841 3.38373C 3.99023 4.61713 2.71924 6.14675 1.79822 7.86488C 0.516357 10.2239 -0.108398 12.9385 0.0153809 15.6207C 0.150024 19.0408 1.5127 22.3963 3.81799 24.9385C 5.18604 26.4789 6.85559 27.7177 8.72998 28.574C 11.2399 29.732 14.0782 30.1683 16.8197 29.829C 19.7982 29.4681 22.6636 28.1809 24.9042 26.1827C 26.4391 24.8254 27.6941 23.1503 28.5558 21.2868C 29.7354 18.7608 30.1824 15.9008 29.8376 13.1324C 29.4768 10.1539 28.1842 7.28858 26.186 5.04801C 25.0065 3.72305 23.5953 2.59738 22.028 1.76793ZM 8.28284 7.10546C 9.38696 7.15393 10.3995 7.77871 11.0566 8.65124C 12.6133 7.48248 14.4983 6.74998 16.4373 6.59917C 16.6366 6.56147 16.8521 6.68535 16.8466 6.90617C 16.8582 7.28002 16.856 7.65662 16.8538 8.03203C 16.8529 8.18125 16.8521 8.33029 16.8521 8.47889C 16.8682 8.64047 16.782 8.85052 16.5935 8.8559C 14.87 9.0498 13.2272 9.75537 11.7999 10.7302C 11.6735 10.7983 11.6876 10.9455 11.6995 11.0687L 11.703 11.1073C 11.7686 11.6969 11.7634 12.2888 11.7583 12.8801C 11.7554 13.2123 11.7526 13.5443 11.7622 13.8757C 14.0889 13.881 16.4155 13.8797 18.7429 13.8783C 21.0704 13.877 23.3986 13.8757 25.7281 13.881C 25.949 13.8595 26.1805 13.9888 26.1644 14.2365C 26.1816 15.2441 26.179 16.2516 26.1763 17.2592C 26.1748 17.819 26.1732 18.3787 26.1752 18.9385C 26.1752 19.7895 25.9974 20.6728 25.4803 21.3676C 24.6617 22.4609 23.2344 23.118 21.8717 22.8757C 20.9077 22.7302 20.0729 22.1324 19.4911 21.373C 17.9131 22.5633 15.9956 23.2958 14.0244 23.4466C 13.8197 23.4466 13.6688 23.2527 13.7012 23.0588C 13.7058 22.8233 13.7045 22.5879 13.7031 22.3524C 13.7014 22.0385 13.6996 21.7246 13.7119 21.4107C 13.7488 21.1856 13.9659 21.1657 14.1602 21.1479C 14.2217 21.1423 14.2809 21.1369 14.3313 21.1252C 15.9633 20.8721 17.5253 20.188 18.8556 19.2186C 18.7855 18.2006 18.7694 17.1827 18.7855 16.1593C 15.9319 16.1396 13.0762 16.1419 10.2209 16.1443C 8.40393 16.1458 6.58716 16.1473 4.77124 16.1432C 4.56653 16.1647 4.36731 16.0139 4.38879 15.7931C 4.38342 14.1396 4.38342 12.4861 4.38879 10.838C 4.39417 9.97081 4.66882 9.09828 5.23975 8.44118C 5.99377 7.58481 7.13025 7.03544 8.28284 7.10546Z" transform="translate(1.00073 1.05253)" fill="#86929E"/>
</g>
<g id="Vector_1_">
<path id="path2_fill" d="M 0 1.6225C 0.021544 0.739201 0.829443 -0.0363822 1.71275 0.00131975C 2.61759 -0.0148382 3.43627 0.782289 3.45781 1.68714C 3.47935 2.62969 3.4632 3.57224 3.4632 4.51478C 2.31059 4.54171 1.15799 4.52556 0 4.52556L 0 1.6225Z" transform="translate(7.57617 10.6156)" fill="#86929E"/>
</g>
<g id="Vector_2_">
<path id="path3_fill" d="M 0.00239378 0.0013465C 1.155 0.0013465 2.3076 -0.0040395 3.4602 0.0067325C 3.47098 0.927738 3.46559 1.84874 3.46559 2.77513C 3.47098 3.47531 3.03471 4.17549 2.36685 4.42325C 1.64512 4.70332 0.761819 4.42864 0.320168 3.79309C 0.104728 3.49147 -0.00299222 3.136 0.00239378 2.76436C 0.00239378 1.84336 -0.00299222 0.922352 0.00239378 0.0013465" transform="translate(21.9332 17.247)" fill="#86929E"/>
</g>
</g>
</g>
</g>
</svg>
