<svg width="32" height="32" viewBox="0 0 32 32" version="1.1" xmlns="http://www.w3.org/2000/svg" xmlns:xlink="http://www.w3.org/1999/xlink">
<g id="Canvas" fill="none">
<g id="Icon/republic/normal">
<g id="Page 1">
<path id="Combined Shape" fill-rule="evenodd" clip-rule="evenodd" d="M 6.98615 5.91596L 15.5641 0.895991C 15.5409 0.881312 15.5206 0.868316 15.5023 0.856531C 15.4677 0.834337 15.4397 0.816443 15.4111 0.79971C 15.2857 0.726197 15.1601 0.652989 15.0344 0.579779C 14.7277 0.401 14.4208 0.222211 14.1167 0.0389666C 14.0233 -0.0173071 13.9565 -0.00970596 13.8666 0.0430018C 10.708 1.89412 7.54834 3.74339 4.38873 5.59265L 2.91382 6.45589L 2.57642 6.65333C 1.75818 7.13217 0.939941 7.61099 0.123169 8.09236C 0.0769653 8.11958 0.0252686 8.17197 0.0157471 8.22058C 0.00378418 8.28164 0.00598145 8.34551 0.00854492 8.41916C 0.00964355 8.45248 0.0108643 8.48779 0.0108643 8.52575L 4.026 6.17752L 4.34192 6.72706L 6.66925 5.36626L 6.98615 5.91596ZM 17.7617 2.18468L 9.18567 7.20336L 8.8689 6.65354L 4.34485 9.30047L 4.0235 8.75362L 0.0388794 11.0843C -0.0370483 10.8136 -0.010376 10.7405 0.206543 10.6136L 13.8442 2.63505C 14.009 2.5386 14.174 2.44232 14.339 2.34605L 14.3408 2.34501C 14.8969 2.02042 15.4531 1.69582 16.0053 1.36438C 16.1411 1.28289 16.238 1.27432 16.3761 1.36015C 16.6621 1.53793 16.9536 1.70686 17.2449 1.87575L 17.2469 1.87692L 17.2607 1.88491C 17.3792 1.95353 17.4976 2.02217 17.6155 2.09143C 17.644 2.10811 17.6716 2.12615 17.7047 2.1477L 17.7053 2.1481C 17.7224 2.15925 17.7409 2.17135 17.7617 2.18468ZM 19.9592 3.4734L 11.3864 8.49052L 11.0692 7.94089L 4.3443 11.8756L 4.02502 11.3271L 0.0395508 13.6591C -0.0389404 13.3907 -0.0108643 13.3162 0.217957 13.1823L 10.8431 6.96519L 15.1244 4.46018L 15.3833 4.30867L 15.4112 4.29235C 16.3663 3.73348 17.3215 3.17457 18.2759 2.61456C 18.3453 2.5739 18.4007 2.5449 18.4854 2.59567C 18.8232 2.79824 19.1632 2.99693 19.5033 3.19562C 19.6353 3.27276 19.7673 3.3499 19.8992 3.42726C 19.9097 3.4334 19.9192 3.44115 19.9324 3.45194L 19.9338 3.45307L 19.9353 3.45431L 19.9365 3.45524C 19.943 3.46056 19.9504 3.46656 19.9592 3.4734ZM 0.0343018 16.2365C -0.0550537 15.9662 0.0618286 15.842 0.27356 15.7185C 5.2995 12.7845 10.3223 9.84505 15.3452 6.90556L 17.6301 5.56838L 18.0888 5.29997C 18.88 4.83711 19.6712 4.37425 20.4604 3.90785C 20.5576 3.85039 20.6291 3.8501 20.7255 3.90788C 21.0692 4.11367 21.4152 4.31541 21.7726 4.52379L 21.7789 4.5275C 21.9073 4.60234 22.0372 4.67805 22.1689 4.75511L 13.586 9.77802L 13.2681 9.22848L 4.34485 14.45L 4.02307 13.9036L 0.0343018 16.2365ZM 24.3688 6.0425L 15.8459 11.0302L 15.5285 10.4805L 4.3429 17.0261L 4.02594 16.4762L 0.0366821 18.8102C -0.0332642 18.5214 -0.0136108 18.4681 0.208252 18.3383L 6.12756 14.8747L 6.42896 14.6983L 6.56128 14.6209L 7.78217 13.9065L 15.4222 9.43594L 16.2401 8.95742L 16.2695 8.94017L 16.2772 8.93571L 16.3176 8.91205C 18.4146 7.68501 20.5117 6.45791 22.6063 5.22645C 22.743 5.14609 22.8405 5.13921 22.978 5.22379C 23.2991 5.42124 23.6252 5.61044 23.9626 5.80624L 23.9658 5.80803L 23.9678 5.80921L 23.9738 5.81271C 24.1036 5.88803 24.2352 5.96434 24.3688 6.0425ZM 26.5545 7.33826L 18.0454 12.3179L 17.7283 11.768L 4.34351 19.6004L 4.02576 19.0514L 0.0108643 21.3999C 0.0108643 21.3622 0.00946045 21.3269 0.00811768 21.2936C 0.00518799 21.2204 0.00262451 21.1566 0.0162354 21.0965C 0.0281982 21.0436 0.0848999 20.9885 0.135498 20.9588C 1.27582 20.288 2.4176 19.6198 3.55939 18.9516L 3.90094 18.7517L 7.54016 16.6219C 11.0471 14.5696 14.554 12.5172 18.061 10.465C 20.3365 9.13342 22.6121 7.80199 24.8896 6.47382C 24.9371 6.44608 25.0223 6.43231 25.0652 6.45665C 25.462 6.68156 25.8553 6.91241 26.2487 7.14329L 26.2542 7.14647L 26.2546 7.14672L 26.4971 7.28896C 26.5075 7.2951 26.5166 7.30356 26.529 7.3151L 26.5294 7.31544C 26.5364 7.32201 26.5445 7.32957 26.5545 7.33826ZM 4.34174 22.1763L 4.02643 21.626L 0.0176392 23.9704C 0.0166016 23.9475 0.0161743 23.9272 0.0158081 23.9086C 0.0150757 23.8725 0.0144653 23.8431 0.0098877 23.8143C -0.0142822 23.6618 0.0453491 23.5759 0.182007 23.4972C 0.985229 23.0348 1.78503 22.5662 2.58484 22.0976L 2.58539 22.0972C 2.8092 21.9661 3.03308 21.8349 3.25702 21.7039L 4.75739 20.826L 5.63171 20.3144L 6.26544 19.9435L 6.68988 19.6952L 7.02777 19.4975C 10.8429 17.2651 14.658 15.0326 18.473 12.8001L 18.9688 12.51C 21.6624 10.9337 24.356 9.35741 27.048 7.77831C 27.1529 7.71675 27.2318 7.70539 27.3375 7.77587C 27.4265 7.83515 27.5192 7.88853 27.6119 7.94191L 27.6131 7.94259C 27.7034 7.99454 27.7936 8.04652 27.8804 8.10397C 27.928 8.1356 27.9702 8.21233 27.973 8.27048C 27.9785 8.38178 27.9777 8.49339 27.9769 8.60501C 27.9762 8.71241 27.9755 8.81982 27.9803 8.92696C 27.9855 9.04207 27.9453 9.10235 27.8483 9.15884C 26.5345 9.92405 25.2224 10.6922 23.9103 11.4603L 23.3052 11.8145L 21.0047 13.1613L 18.1625 14.8251C 18.1396 14.8385 18.116 14.8506 18.0891 14.8644L 18.0879 14.865C 18.0738 14.8722 18.0588 14.8799 18.0424 14.8885L 17.729 14.3422L 4.34174 22.1763ZM 27.9772 9.81201L 27.9775 10.1892C 27.978 10.6667 27.9784 11.1286 27.9719 11.5905C 27.9712 11.6371 27.9021 11.6967 27.8513 11.7266C 26.7339 12.3836 25.6152 13.0382 24.4965 13.6927L 23.9783 13.996L 18.1937 17.3809C 18.1525 17.405 18.1111 17.4289 18.0671 17.4544L 18.0577 17.4599L 17.9841 17.5025L 17.6683 16.9526L 4.30463 24.7729L 3.98492 24.2261L 3.74475 24.3658C 3.5744 24.4647 3.40771 24.5616 3.24127 24.6589C 3.12695 24.7258 3.01239 24.7923 2.89783 24.8588L 2.89502 24.8604C 2.56873 25.0499 2.24243 25.2394 1.92096 25.437C 1.78448 25.5208 1.67377 25.5376 1.55054 25.4317C 1.53033 25.4143 1.5072 25.4005 1.47772 25.3828C 1.46204 25.3735 1.44464 25.363 1.42493 25.3505L 27.9772 9.81201ZM 6.22833 25.4916L 6.5437 26.0372L 17.6683 19.5275L 17.9847 20.0738L 18.0374 20.0447L 18.0399 20.0433C 18.0723 20.0255 18.1013 20.0095 18.1298 19.9928L 19.1387 19.4024L 20.08 18.8515L 21.2278 18.1799C 23.4279 16.8926 25.628 15.6053 27.8295 14.3205C 27.9398 14.2561 27.9845 14.1884 27.9817 14.0534C 27.9742 13.6921 27.9754 13.3306 27.9766 12.9692L 27.9766 12.9617L 27.9767 12.9162C 27.9772 12.7949 27.9775 12.6736 27.9775 12.5522L 27.9775 12.3867L 3.63702 26.6308C 3.81403 26.7979 3.96271 26.8295 4.17621 26.6963C 4.62952 26.4133 5.0921 26.1458 5.55475 25.8782C 5.73083 25.7763 5.90692 25.6745 6.08246 25.5718C 6.11365 25.5536 6.14545 25.5364 6.17828 25.5187L 6.1795 25.5181L 6.22833 25.4916ZM 17.6678 22.1025L 17.9846 22.6499L 18.0402 22.6185L 18.0421 22.6175L 18.0467 22.6149L 18.0513 22.6123L 18.0518 22.6121C 18.0781 22.5973 18.1011 22.5843 18.1238 22.571L 19.6258 21.6916C 20.452 21.2078 21.2782 20.724 22.1046 20.2405L 22.2756 20.1404L 22.3143 20.1178C 24.155 19.0409 25.9957 17.964 27.838 16.8899C 27.9374 16.8319 27.9832 16.7728 27.9811 16.6482C 27.9749 16.2835 27.9757 15.9187 27.9766 15.5539L 27.9767 15.5085L 27.9767 15.4631C 27.977 15.342 27.9772 15.221 27.9771 15.0999C 27.977 15.075 27.9745 15.0501 27.9716 15.0198C 27.97 15.0042 27.9684 14.9871 27.9668 14.9678L 5.83954 27.9167C 6.1015 28.1346 6.10168 28.1345 6.36786 27.9787L 6.36841 27.9784C 7.01862 27.598 7.66888 27.2178 8.3194 26.8379C 8.34167 26.8249 8.36499 26.8138 8.39014 26.8019L 8.39081 26.8016L 8.39252 26.8007C 8.4046 26.795 8.41705 26.7891 8.43005 26.7826L 8.74194 27.3255L 17.6678 22.1025ZM 27.978 17.9282L 27.9777 17.5363L 8.03668 29.2059L 8.03705 29.2062C 8.3056 29.419 8.30591 29.4192 8.56836 29.2658L 9.32501 28.8233C 9.71417 28.5957 10.1033 28.368 10.4926 28.1407C 10.5211 28.1241 10.5507 28.1096 10.5822 28.0942L 10.5884 28.0911L 10.5905 28.0901C 10.6034 28.0838 10.6166 28.0773 10.6301 28.0704L 10.9424 28.6126L 17.6688 24.6767L 17.9832 25.2244L 18.0387 25.1934L 18.0401 25.1927L 18.0439 25.1906L 18.0462 25.1893L 18.0489 25.1878L 18.0503 25.187C 18.0799 25.1706 18.1064 25.1558 18.1325 25.1406L 25.0798 21.0749L 25.6678 20.731C 26.3984 20.3039 27.1288 19.8767 27.8575 19.4464C 27.9097 19.4156 27.9718 19.3443 27.9726 19.291C 27.979 18.8528 27.9785 18.4144 27.978 17.9605L 27.978 17.9572L 27.978 17.9538L 27.978 17.9505L 27.978 17.9471L 27.978 17.9437L 27.978 17.9282ZM 17.6686 27.2519L 17.9843 27.7987L 18.048 27.7632C 18.0861 27.742 18.1186 27.7239 18.1508 27.7051L 19.63 26.8392L 19.6668 26.8177C 20.3593 26.4123 21.0517 26.0069 21.7443 25.6018L 22.604 25.0988L 22.6077 25.0966L 22.6403 25.0775L 22.6491 25.0724L 22.6505 25.0716C 24.3702 24.0654 26.0898 23.0593 27.8118 22.057C 27.9399 21.9824 27.9847 21.9029 27.9814 21.7531C 27.9739 21.4077 27.975 21.0621 27.9762 20.7165L 27.9762 20.7093L 27.9763 20.6754L 27.9764 20.6414L 27.9766 20.6074L 27.9767 20.5734C 27.9769 20.4714 27.9772 20.3695 27.9771 20.2675C 27.977 20.2387 27.9746 20.2099 27.9717 20.1753C 27.9703 20.1577 27.9687 20.1386 27.9672 20.1172L 10.2383 30.4922C 10.5062 30.7073 10.5063 30.7073 10.7712 30.552L 10.7722 30.5514C 11.155 30.3271 11.538 30.1032 11.921 29.8792L 12.4541 29.5678L 12.5397 29.5179L 12.8242 29.3518L 13.1452 29.8981L 17.6686 27.2519ZM 27.9638 22.694L 12.439 31.7791C 12.6949 31.9939 12.7053 31.9946 12.9539 31.8489C 13.5059 31.5254 14.058 31.2021 14.6105 30.8794C 14.7009 30.8265 14.7921 30.7747 14.8851 30.7217L 14.8864 30.721L 14.8954 30.7159L 15.0276 30.6405L 15.3423 31.1866L 17.6672 29.8278L 17.9829 30.3691C 17.9932 30.3643 18.0027 30.3601 18.0115 30.3562L 18.0126 30.3557C 18.0303 30.3479 18.0454 30.3413 18.0595 30.333L 19.8561 29.2819C 22.5303 27.7172 25.2047 26.1526 27.8799 24.5896C 27.9599 24.5429 27.9794 24.4885 27.9789 24.4023C 27.9769 24.0649 27.977 23.7276 27.9771 23.3902L 27.9771 23.3621C 27.9771 23.1823 27.9772 23.0026 27.9769 22.8228C 27.9769 22.798 27.9737 22.7732 27.9698 22.7436L 27.9695 22.7414C 27.9677 22.7269 27.9656 22.7113 27.9638 22.694Z" transform="translate(2 0.0313302)" fill="#86929E"/>
</g>
</g>
</g>
</svg>
