<svg width="32" height="32" viewBox="0 0 32 32" version="1.1" xmlns="http://www.w3.org/2000/svg" xmlns:xlink="http://www.w3.org/1999/xlink">
<g id="Canvas" fill="none">
<g id="Icon/request/normal">
<g id="request-network">
<path id="Shape" d="M 0.00156852 0L 10.1656 0C 11.1929 0.166392 12.247 0.0175991 13.2665 0.239988C 15.5377 0.665567 17.5941 2.12309 18.7877 4.13739C 20.1994 6.47008 20.3844 9.51152 19.31 12.0186C 18.3375 14.3257 16.3032 16.132 13.9269 16.7864C 12.4179 17.2311 10.8337 17.0647 9.28405 17.0951C 11.938 21.5797 14.5872 26.0691 17.2302 30.5633C 16.5384 31.056 15.6914 31.3536 15.1189 32L 15.0295 32C 11.5913 26.1347 8.11864 20.2902 4.66791 14.4329C 7.11793 14.4201 9.56952 14.4521 12.018 14.4169C 14.8444 14.3385 17.3164 11.7898 17.376 8.90675C 17.5611 6.41568 15.9769 3.9326 13.6602 3.11344C 12.7003 2.73106 11.6541 2.74866 10.6393 2.75986C 7.09283 2.75986 3.54642 2.75986 0 2.75826" transform="translate(6.0144 0)" fill="#86929E"/>
</g>
</g>
</g>
</svg>
