<svg width="32" height="32" viewBox="0 0 32 32" version="1.1" xmlns="http://www.w3.org/2000/svg" xmlns:xlink="http://www.w3.org/1999/xlink">
<g id="Canvas" fill="none">
<g id="Icon/santinel/normal">
<path id="Combined Shape" fill-rule="evenodd" clip-rule="evenodd" d="M 21.6254 24.9048C 22.6031 24.9058 23.2892 23.9705 22.9674 23.0596C 22.9065 22.8872 22.9234 22.7606 23.0151 22.6054C 24.397 20.2647 25.7735 17.921 27.1469 15.5755C 27.2535 15.3934 27.3698 15.2747 27.5952 15.2135C 28.2433 15.0378 28.655 14.437 28.6132 13.7946C 28.5708 13.1413 28.0666 12.6158 27.3972 12.4905C 27.2788 12.4683 27.144 12.3564 27.0807 12.2494C 25.7207 9.95217 24.3675 7.65101 23.0239 5.34446C 22.9583 5.23182 22.949 5.05149 22.9861 4.92299C 23.1735 4.27409 22.9178 3.60142 22.335 3.27628C 21.7494 2.94952 21.0363 3.06997 20.5576 3.5545C 20.47 3.64319 20.3142 3.71285 20.1895 3.71331C 17.4437 3.72222 14.6978 3.72251 11.9521 3.71285C 11.82 3.71239 11.6548 3.63735 11.5619 3.54293C 11.1011 3.07489 10.3878 2.95403 9.80683 3.27032C 9.2184 3.59054 8.95202 4.25899 9.13017 4.90644C 9.16307 5.02597 9.13788 5.19288 9.07462 5.3013C 7.71478 7.63226 6.34741 9.959 4.97244 12.2813C 4.91518 12.378 4.77775 12.4676 4.66458 12.4871C 3.95638 12.6095 3.44664 13.1446 3.42045 13.8217C 3.39373 14.5122 3.84061 15.0715 4.54245 15.258C 4.66587 15.2908 4.80842 15.3836 4.87086 15.4893C 6.27878 17.8709 7.67899 20.2569 9.07008 22.6481C 9.1413 22.7706 9.16743 22.9595 9.13012 23.095C 8.95202 23.7418 9.21651 24.4082 9.80871 24.7285C 10.404 25.0505 11.1197 24.9206 11.5805 24.4305C 11.6719 24.3334 11.835 24.248 11.9655 24.2475C 14.7015 24.2359 17.4375 24.2351 20.1735 24.2439C 20.2954 24.2443 20.4445 24.3282 20.5336 24.4183C 20.8365 24.7246 21.1874 24.9031 21.6254 24.9048L 21.6254 24.9048ZM 16.0199 0.00258077C 18.1582 0.00287004 20.2966 0.00263862 22.435 0.00298575C 23.6378 0.00315931 24.5417 0.515635 25.1433 1.53873C 27.2719 5.15811 29.3966 8.77963 31.5283 12.3972C 32.1735 13.492 32.1492 14.558 31.5022 15.6511C 29.3784 19.2397 27.2695 22.8369 25.1612 26.4343C 24.5472 27.4821 23.6346 27.9998 22.4105 27.9998C 18.1338 27.9997 13.8571 28.001 9.58039 27.9983C 8.40406 27.9976 7.5017 27.5027 6.91062 26.4994C 4.73971 22.8147 2.56862 19.13 0.41289 15.4367C -0.135754 14.4966 -0.138873 13.5111 0.411006 12.5692C 2.56691 8.87602 4.73618 5.19045 6.90703 1.50576C 7.517 0.470392 8.45197 -0.0047089 9.66367 3.51676e-05C 11.7824 0.00836622 13.9011 0.00234935 16.0199 0.00258077L 16.0199 0.00258077ZM 11.9256 23.2549C 11.7709 22.7272 11.4754 22.3061 10.906 22.1682C 10.667 22.1103 10.3986 22.109 10.1552 22.1496C 9.98126 22.1786 9.91052 22.148 9.8363 22.0075C 9.7153 21.7782 9.57693 21.5577 9.43303 21.3116C 10.0091 20.9824 10.5743 20.6582 11.1407 20.336C 14.0668 18.6716 16.9937 17.0084 19.9183 15.3415C 20.0626 15.2592 20.1696 15.2182 20.3373 15.3243C 20.8848 15.671 21.5829 15.5908 22.0438 15.1561C 22.5224 14.7047 22.6349 14.0154 22.3208 13.4591C 21.9986 12.8883 21.3234 12.6064 20.6892 12.7779C 20.0642 12.9469 19.6193 13.5116 19.6347 14.1475C 19.6386 14.3103 19.614 14.4047 19.4588 14.4927C 16.0121 16.4464 12.5692 18.4065 9.1251 20.3647C 9.06742 20.3975 9.00404 20.4207 8.92753 20.4555C 7.85931 18.6385 6.79652 16.8307 5.73743 15.0292C 6.45251 14.0802 6.46581 13.6714 5.80452 12.8119C 7.17071 10.4871 8.54185 8.1539 9.92476 5.80061C 10.3568 5.9412 10.7865 5.95196 11.1964 5.72546C 11.5991 5.50295 11.8208 5.15333 11.9214 4.70647L 20.1805 4.70647C 20.4905 5.71105 21.2263 6.06067 22.1598 5.82716C 22.3861 6.21028 22.6155 6.59877 22.8615 7.0155C 22.3676 7.29042 21.8854 7.56101 21.4012 7.82801C 18.4957 9.43034 15.5891 11.0305 12.6861 12.6371C 12.5203 12.7289 12.4155 12.7311 12.2497 12.6176C 11.5761 12.157 10.6279 12.3702 10.2257 13.0508C 9.80264 13.7668 10.064 14.6519 10.8099 15.0291C 11.5318 15.3942 12.4302 15.0784 12.762 14.339C 12.8049 14.2434 12.8564 14.1343 12.8475 14.0365C 12.8159 13.6901 13.024 13.547 13.2981 13.3967C 16.5925 11.59 19.8807 9.77238 23.1707 7.958C 23.2214 7.93 23.2749 7.9068 23.3579 7.86642C 24.3259 9.51117 25.2899 11.149 26.2511 12.7822C 25.5565 13.6844 25.5738 14.2868 26.3322 15.0302C 24.938 17.4033 23.539 19.7846 22.1429 22.1609C 21.0041 22.0305 20.6213 22.2445 20.1877 23.2549L 11.9256 23.2549Z" transform="translate(0 2.00001)" fill="#86929E"/>
</g>
</g>
</svg>
