<svg width="32" height="32" viewBox="0 0 32 32" version="1.1" xmlns="http://www.w3.org/2000/svg" xmlns:xlink="http://www.w3.org/1999/xlink">
<g id="Canvas" fill="none">
<g id="Icon/sonm/normal">
<g id="sonm">
<path id="Shape" fill-rule="evenodd" clip-rule="evenodd" d="M 15 29.9928C 6.72556 29.9681 0 23.2543 0 14.9964C 0 6.73848 6.72556 0.0248256 15 0C 23.2744 0.0248256 30 6.73848 30 14.9964C 30 23.2543 23.2744 29.9764 15 29.9928ZM 28.302 17.383C 28.0701 17.9197 27.5317 18.2996 26.9104 18.2996C 26.7114 18.2995 26.5144 18.2602 26.3307 18.1839C 26.8608 18.7373 27.1921 19.4804 27.1921 20.298C 27.1921 20.5373 27.159 20.7604 27.1093 20.9834C 27.6728 19.8443 28.0742 18.6325 28.302 17.383ZM 27.6642 16.7801C 27.6642 17.1951 27.3268 17.5316 26.9105 17.5316L 26.91 17.5316C 26.4945 17.5299 26.1582 17.1944 26.1567 16.7801C 26.1567 16.3651 26.4942 16.0286 26.9105 16.0286C 27.3268 16.0286 27.6642 16.3651 27.6642 16.7801ZM 27.25 9.31495C 27.4904 9.99408 27.6138 10.7089 27.615 11.429C 27.6165 12.9192 27.0883 14.3616 26.1241 15.5002C 26.3478 15.3682 26.6129 15.2773 26.9026 15.2773C 27.6895 15.2773 28.3356 15.8801 28.4017 16.6563C 28.468 16.1113 28.5095 15.5662 28.5095 15.0046C 28.5191 13.0383 28.0889 11.0946 27.25 9.31495ZM 21.2617 6.21835C 24.144 6.21835 26.4798 8.55523 26.4798 11.4208C 26.4798 14.2862 24.1359 16.6232 21.2617 16.6232C 18.3795 16.6232 16.0437 14.2863 16.0437 11.4208C 16.0437 8.54716 18.3876 6.21835 21.2617 6.21835ZM 21.0546 20.298C 21.0544 19.1659 21.6824 18.1266 22.6863 17.5977C 21.4132 17.8938 20.0794 17.79 18.8679 17.3004C 19.899 18.0908 20.6622 19.1774 21.0546 20.4138C 21.0603 20.3798 21.0582 20.3536 21.0563 20.3299L 21.0563 20.3295C 21.0554 20.3186 21.0546 20.3083 21.0546 20.298ZM 21.1706 23.7995C 21.2902 23.3129 21.3514 22.814 21.3528 22.3131C 21.3518 22.0365 21.3295 21.7605 21.2861 21.4874C 21.5685 22.1463 22.0724 22.6865 22.7111 23.0151C 22.6349 22.9982 22.5572 22.9899 22.4792 22.9902C 21.9245 22.9913 21.418 23.3045 21.1706 23.7995ZM 24.1193 22.2223C 25.1877 22.2223 26.0574 21.3549 26.0574 20.2982C 26.0574 19.2329 25.1874 18.374 24.1193 18.374C 23.0511 18.374 22.1894 19.2414 22.1894 20.2982C 22.1894 21.3633 23.0591 22.2221 24.12 22.2221L 24.1193 22.2223ZM 25.5847 16.0618C 25.4619 16.2846 25.3964 16.5343 25.3942 16.7885L 25.395 16.7883C 25.3943 17.1061 25.4957 17.4158 25.6842 17.672C 25.2111 17.3901 24.67 17.2417 24.1188 17.2427C 23.979 17.2427 23.8473 17.259 23.7159 17.2754L 23.7129 17.2757C 24.4017 16.9805 25.0349 16.57 25.5847 16.0618ZM 14.9993 15.9709C 15.8167 15.9703 16.6266 16.1273 17.3842 16.4333C 16.1109 15.4568 15.2581 14.0337 14.9993 12.453C 14.7342 14.0716 13.8563 15.4754 12.6143 16.4333C 13.3513 16.1442 14.1549 15.9709 14.9993 15.9709ZM 13.3676 7.08544C 13.8554 7.39398 14.4215 7.55726 14.9993 7.55608L 15 7.55608C 15.5778 7.55721 16.1438 7.39388 16.6317 7.08529C 15.776 7.9974 15.2085 9.14047 15 10.372C 14.7966 9.13872 14.2281 7.99422 13.3676 7.08544ZM 18.097 4.46755C 18.0968 5.15945 17.8635 5.83122 17.4345 6.37507C 18.0779 5.88853 18.809 5.52969 19.5881 5.31805C 19.5703 5.31805 19.5549 5.32041 19.5406 5.32261C 19.5282 5.3245 19.5167 5.32627 19.5052 5.32627C 18.8675 5.32627 18.3203 4.92996 18.0972 4.36839C 18.0925 4.39013 18.0942 4.41187 18.096 4.43361C 18.0969 4.44492 18.0978 4.45624 18.0978 4.46755L 18.097 4.46755ZM 21.0126 3.80743C 21.0126 3.33664 20.7889 2.92373 20.4493 2.64302L 20.4501 2.64257C 22.7272 3.65811 24.6828 5.27438 26.106 7.31695C 24.9385 5.95439 23.2074 5.07906 21.261 5.07906C 20.8748 5.08128 20.4896 5.11721 20.1097 5.18644C 20.6589 4.94661 21.0134 4.40518 21.0126 3.80743ZM 19.4969 3.06416C 19.0806 3.06416 18.7431 3.40061 18.7431 3.81565C 18.7431 4.23069 19.0806 4.56715 19.4969 4.56715C 19.9131 4.56715 20.2506 4.23069 20.2506 3.81565C 20.2494 3.40128 19.9131 3.06551 19.4975 3.06371L 19.4969 3.06416ZM 17.9901 3.69123C 17.7261 2.66297 16.9501 1.84247 15.936 1.51944C 17.2281 1.61859 18.4788 1.88285 19.6383 2.31206C 19.5891 2.30251 19.5393 2.29701 19.4892 2.29561C 18.6942 2.29561 18.0482 2.91491 17.9901 3.69123ZM 13.0453 4.46755C 13.0453 5.54103 13.9233 6.41575 15 6.41575C 16.0767 6.41575 16.9547 5.54043 16.9547 4.46695C 16.9547 3.39347 16.0767 2.51874 15 2.51874C 13.9233 2.51874 13.0453 3.39407 13.0453 4.46755ZM 10.5026 2.29576C 10.4525 2.29716 10.4026 2.30266 10.3535 2.31221C 11.5212 1.88285 12.7636 1.61859 14.0558 1.51944C 13.0416 1.84249 12.2656 2.66306 12.0016 3.69138C 11.9438 2.90683 11.2975 2.29576 10.5026 2.29576ZM 11.9022 4.46755C 11.9008 4.43428 11.9036 4.40098 11.9104 4.36839C 11.6868 4.92996 11.1402 5.32627 10.5024 5.32627C 10.4846 5.32627 10.4692 5.3239 10.4549 5.32171C 10.4426 5.31981 10.4311 5.31805 10.4196 5.31805C 11.198 5.53141 11.9288 5.89009 12.5732 6.37507C 12.1382 5.83395 11.9015 5.16101 11.9022 4.46755ZM 10.5026 4.5667C 10.0863 4.5667 9.74881 4.23024 9.74881 3.8152C 9.75031 3.40078 10.0869 3.06519 10.5026 3.06371C 10.9189 3.06371 11.2563 3.40016 11.2563 3.8152C 11.2563 4.23024 10.9189 4.5667 10.5026 4.5667ZM 3.89294 7.32473C 5.06085 5.95394 6.79184 5.08684 8.73795 5.08684C 9.12411 5.08867 9.50937 5.1246 9.88919 5.19422C 9.40649 4.98456 9.06903 4.53839 8.99954 4.01805C 8.93008 3.49771 9.13873 2.97905 9.54959 2.6508C 7.26389 3.65833 5.30099 5.29337 3.89294 7.32473ZM 8.73825 16.6232C 5.85599 16.6232 3.5202 14.2863 3.5202 11.4208C 3.5202 8.55523 5.86411 6.22642 8.73825 6.21835C 11.6205 6.21835 13.9563 8.55523 13.9563 11.4208C 13.9563 14.2944 11.6124 16.6232 8.73825 16.6232ZM 8.9454 20.298C 8.9454 20.3146 8.94333 20.3334 8.94125 20.3521C 8.93918 20.3706 8.93713 20.3891 8.93713 20.4054C 9.33173 19.1702 10.0945 18.0842 11.1238 17.2922C 9.91217 17.7819 8.57822 17.8857 7.30499 17.5895C 8.28268 18.1096 8.9454 19.1254 8.9454 20.298ZM 4.30679 17.6719C 4.50156 17.4184 4.60641 17.1076 4.60498 16.7883C 4.60516 16.5328 4.53659 16.2819 4.4064 16.0618C 4.952 16.5757 5.58615 16.9871 6.27838 17.2763C 6.14444 17.2527 6.00854 17.2416 5.8725 17.2433C 5.32126 17.242 4.78006 17.3901 4.30679 17.6719ZM 3.94244 20.298C 3.94244 21.3633 4.81244 22.2221 5.87234 22.2221C 6.9408 22.2221 7.80225 21.3547 7.80225 20.298C 7.80225 19.2327 6.93225 18.3739 5.87234 18.3739C 4.81229 18.3657 3.9426 19.2323 3.94244 20.298ZM 7.353 23.0052C 7.32867 23.0087 7.3046 23.0123 7.2804 23.0149C 7.91922 22.6851 8.42072 22.1412 8.69684 21.479C 8.66074 21.7556 8.64136 22.0341 8.63879 22.3131C 8.64017 22.8139 8.70129 23.3128 8.82089 23.7993C 8.57349 23.3044 8.06696 22.9911 7.5123 22.9901C 7.45621 22.9901 7.40411 22.9977 7.353 23.0052ZM 1.59 16.6481C 1.65631 15.8801 2.30234 15.269 3.08911 15.269C 3.36429 15.2705 3.63373 15.3477 3.86777 15.492C 2.90359 14.3534 2.37537 12.9109 2.37689 11.4208C 2.37689 10.6775 2.50934 9.97567 2.74139 9.30673C 1.92975 11.0327 1.48245 12.9651 1.48245 14.9964C 1.48447 15.5486 1.52039 16.1002 1.59 16.6481ZM 2.33624 16.7885C 2.33624 16.3734 2.67371 16.037 3.09 16.037C 3.50568 16.0385 3.84225 16.3741 3.84375 16.7885C 3.84375 17.2035 3.50629 17.54 3.09 17.54C 2.67371 17.54 2.33624 17.2035 2.33624 16.7885ZM 2.80847 20.2982C 2.80789 19.5084 3.11703 18.7497 3.66992 18.1841C 3.48645 18.2612 3.28925 18.3005 3.09015 18.2997C 2.46899 18.2997 1.93051 17.9198 1.69861 17.3831C 1.93051 18.6543 2.32861 19.8604 2.89127 20.9835C 2.841 20.7604 2.80786 20.5374 2.80786 20.298L 2.80847 20.2982ZM 6.68332 23.2467L 6.68475 23.2463L 6.68414 23.2461L 6.68332 23.2467ZM 5.87311 23.3536C 6.15414 23.3536 6.42694 23.3212 6.68332 23.2467C 6.28033 23.5199 6.03894 23.9742 6.0387 24.4602C 6.0387 24.8152 6.1713 25.129 6.3783 25.385C 5.38629 24.5618 4.51627 23.6026 3.7941 22.536C 4.34085 23.0396 5.0697 23.3536 5.87311 23.3536ZM 6.80072 24.4602C 6.80072 24.8524 7.11963 25.1704 7.51306 25.1704C 7.90649 25.1704 8.2254 24.8524 8.2254 24.4602C 8.2254 24.0679 7.90649 23.75 7.51306 23.75C 7.12067 23.7525 6.80304 24.0688 6.80011 24.46L 6.80072 24.4602ZM 8.979 24.328C 9.63736 26.2749 11.1983 27.7851 13.17 28.3826C 10.8338 28.0605 8.68036 27.1356 6.88336 25.7813C 7.33929 26.0035 7.87805 25.9751 8.30792 25.7062C 8.73782 25.4373 8.99786 24.966 8.99551 24.46C 8.99551 24.4341 8.991 24.4105 8.98669 24.388C 8.98276 24.3674 8.979 24.3477 8.979 24.328ZM 20.2098 22.3131C 20.2098 19.4475 17.874 17.1188 15 17.1106C 12.1259 17.1106 9.79019 19.4394 9.79019 22.3131C 9.79019 25.1867 12.1259 27.5073 15 27.5155C 17.8741 27.5073 20.2098 25.1785 20.2098 22.3131ZM 21.7008 25.7064C 22.1306 25.9753 22.6694 26.0037 23.1253 25.7815C 21.3196 27.1356 19.1662 28.0605 16.8387 28.3828C 18.8104 27.7852 20.3713 26.2751 21.0297 24.3281C 21.0201 24.3715 21.0146 24.4157 21.0132 24.4602C 21.0108 24.9662 21.2709 25.4374 21.7008 25.7064ZM 23.2003 24.4602C 23.2003 24.0679 22.8814 23.75 22.488 23.75C 22.0946 23.75 21.7756 24.0679 21.7756 24.4602C 21.7756 24.8524 22.0946 25.1704 22.488 25.1704C 22.8801 25.1673 23.1971 24.851 23.1999 24.46L 23.2003 24.4602ZM 24.1275 23.3535C 24.9315 23.3535 25.6599 23.0396 26.2065 22.5359C 25.4843 23.6024 24.6143 24.5616 23.6223 25.3848C 23.8295 25.129 23.9619 24.8151 23.9619 24.46C 23.9615 23.9737 23.7196 23.5191 23.3159 23.2461C 23.5808 23.3158 23.8535 23.3519 24.1275 23.3535Z" transform="translate(1 1)" fill="#86929E"/>
</g>
</g>
</g>
</svg>
