<svg width="32" height="32" viewBox="0 0 32 32" version="1.1" xmlns="http://www.w3.org/2000/svg" xmlns:xlink="http://www.w3.org/1999/xlink">
<g id="Canvas" fill="none">
<g id="Icon/telegram/normal">
<g id="Page 1">
<path id="Fill 1" fill-rule="evenodd" clip-rule="evenodd" d="M 27.8237 3.84409L 15.851 24.5245L 15.851 1.81818L 26.6288 1.81818C 27.1245 1.81818 27.5694 2.07045 27.8182 2.49227C 28.0674 2.91455 28.0693 3.42 27.8237 3.84409L 27.8237 3.84409ZM 2.03719 2.49227C 2.28596 2.07045 2.73089 1.81818 3.22704 1.81818L 14.0049 1.81818L 14.0049 24.5245L 2.03166 3.84409C 1.78612 3.42 1.78796 2.91455 2.03719 2.49227L 2.03719 2.49227ZM 29.4147 1.57909C 28.8313 0.590455 27.7901 0 26.6288 0L 3.22699 0C 2.06529 0 1.02406 0.590455 0.440679 1.57909C -0.142244 2.56818 -0.147321 3.75136 0.428217 4.74455L 14.9279 29.79L 29.4276 4.74455C 30.0027 3.75136 29.9976 2.56818 29.4147 1.57909L 29.4147 1.57909Z" transform="translate(1 2)" fill="#86929E"/>
</g>
</g>
</g>
</svg>
