<svg width="32" height="32" viewBox="0 0 32 32" version="1.1" xmlns="http://www.w3.org/2000/svg" xmlns:xlink="http://www.w3.org/1999/xlink">
<g id="Canvas" fill="none">
<g id="Icon/tezos/normal">
<g id="tezos">
<path id="Combined Shape" fill-rule="evenodd" clip-rule="evenodd" d="M 29.9843 14.9961C 29.9843 23.2706 23.2667 29.9882 14.9922 29.9882C 6.71765 29.9882 0 23.2667 0 14.9922C 0 6.71765 6.71371 0 14.9922 0C 23.2706 0 29.9843 6.72157 29.9843 14.9961ZM 13.749 24.9059C 14.4706 25.6667 15.6196 26.0353 17.1961 26.0353C 18.2667 26.0353 19.2588 25.8196 20.1765 25.3725C 21.1098 24.9255 21.7921 24.2235 22.2392 23.3098C 22.6862 22.3922 22.9216 21.4 22.9216 20.3294C 22.9216 19.8431 22.8431 19.3176 22.7255 18.7137C 22.6078 18.1098 22.3333 17.4863 21.9255 16.8235C 21.5176 16.1608 20.9333 15.6353 20.1725 15.2667C 19.4353 14.8784 18.7529 14.6824 18.149 14.6824C 17.7804 14.7216 17.4274 14.8 17.098 14.9373L 22.6627 9.3451L 21.7686 8.45098L 12.6745 8.47059L 12.6745 4.55294L 11.8 4.10588L 9.46274 4.10588L 9.46274 4.76863L 10.2627 5.56863L 10.2627 8.4902L 6.73724 8.4902L 6.73724 9.77647L 10.2431 9.77647L 10.2431 16.6706C 10.2431 17.6627 10.5333 18.4627 11.098 19.0471C 11.6823 19.6314 12.698 19.9216 14.1961 19.9216C 14.8 19.9216 15.3451 19.7451 15.851 19.4157C 16.3568 19.0863 16.7451 18.6 17.0196 17.9569C 17.0287 17.8856 17.0421 17.8219 17.0539 17.7664C 17.0673 17.7028 17.0784 17.6497 17.0784 17.6078C 17.0784 17.4314 17.0196 17.2784 16.9019 17.1412C 16.7686 17.0431 16.6706 17.0039 16.5725 17.0039C 16.5137 17.0039 16.4745 17.0235 16.4157 17.0627C 16.3765 17.0824 16.3372 17.1412 16.298 17.2196C 16.0274 17.5882 15.7137 17.9176 15.3451 18.1922C 14.9765 18.4627 14.6039 18.6 14.1961 18.6C 13.6902 18.6 13.3019 18.4235 13.0471 18.0549C 12.7961 17.6824 12.6784 17.2157 12.6784 16.651L 12.6784 9.77647L 19.549 9.77647L 14.5843 16.3961L 14.5843 16.9412L 15.6823 16.4157C 16.2863 16.0863 16.7726 15.9098 17.1804 15.9098C 17.8039 15.9098 18.3686 16.0667 18.8941 16.3961C 19.4196 16.7059 19.8078 17.2118 20.0823 17.8941C 20.3529 18.5569 20.4902 19.3569 20.4902 20.3098C 20.4902 21.1882 20.3765 21.9647 20.1216 22.6471C 19.8667 23.3294 19.4784 23.8549 18.9529 24.2039C 18.4274 24.5529 17.8431 24.7294 17.1804 24.7294C 16.7098 24.7294 16.2431 24.6706 15.7765 24.5333C 15.3098 24.3961 14.9608 24.1804 14.7451 23.8902C 15 23.8118 15.2314 23.6392 15.4078 23.4039C 15.5843 23.1725 15.6823 22.8588 15.6823 22.4706C 15.6823 22.1569 15.6039 21.8863 15.4863 21.6706C 15.3686 21.4549 15.1961 21.2824 14.9804 21.1647C 14.7647 21.0275 14.4941 20.9686 14.1804 20.9686C 13.8667 20.9686 13.5961 21.0471 13.3804 21.1647C 13.1647 21.2824 12.9922 21.4549 12.8745 21.6706C 12.7372 21.8863 12.6784 22.1608 12.6784 22.4706C 12.6784 23.349 13.0274 24.1451 13.749 24.9059Z" transform="translate(1 1)" fill="#86929E"/>
</g>
</g>
</g>
</svg>
