<svg width="32" height="32" viewBox="0 0 32 32" version="1.1" xmlns="http://www.w3.org/2000/svg" xmlns:xlink="http://www.w3.org/1999/xlink">
<g id="Canvas" fill="none">
<g id="Icon/traceto/normal">
<g id="Page 1">
<path id="Combined Shape" fill-rule="evenodd" clip-rule="evenodd" d="M 29.9298 29.9298L 0 29.9298L 0 0L 29.9298 0L 29.9298 29.9298ZM 29 28.962L 1 28.962L 1 0.961958L 29 0.961958L 29 28.962Z" transform="translate(1 1.03804)" fill="#86929E"/>
<path id="Fill 15" fill-rule="evenodd" clip-rule="evenodd" d="M 20.5659 10.1321C 20.985 10.0507 21.3046 9.81565 21.5459 9.47026C 21.7118 9.2328 21.8032 8.96642 21.7971 8.67653C 21.7794 7.832 21.0878 7.20824 20.328 7.22182C 20.3021 7.22342 20.2761 7.2243 20.2501 7.22519C 20.1941 7.22709 20.1382 7.229 20.0834 7.23809C 19.4388 7.34489 18.9271 7.89881 18.8638 8.55178C 18.8344 8.85512 18.9069 9.13524 19.0461 9.40201C 19.1038 9.51231 19.0996 9.54276 19.0085 9.62493C 18.7292 9.87664 18.4492 10.1274 18.1682 10.3771C 17.6422 10.8445 17.1158 11.3112 16.5892 11.7779L 16.4542 11.8977L 16.368 11.9743L 16.3619 11.9797C 16.2615 12.0692 16.161 12.1586 16.0579 12.245C 15.9771 12.3128 15.9169 12.3033 15.8467 12.2244C 15.8315 12.2073 15.8165 12.1899 15.8016 12.1726C 15.7793 12.1466 15.757 12.1206 15.7336 12.0954C 15.1807 11.4976 14.2526 11.4697 13.668 12.0329C 13.5503 12.1464 13.4977 12.1498 13.3762 12.0431C 13.2169 11.9031 13.0585 11.7621 12.9001 11.6212L 12.698 11.4414L 12.3197 11.1055L 12.1075 10.9172L 11.3324 10.2293C 11.1063 10.0287 10.8802 9.8282 10.6533 9.62866C 10.5894 9.57239 10.5555 9.51094 10.5521 9.41908C 10.5404 9.10501 10.4442 8.81539 10.2496 8.56615C 9.89697 8.11436 9.43518 7.90569 8.86292 7.98976C 8.08386 8.10421 7.53296 8.83178 7.62683 9.61227C 7.6366 9.69383 7.61316 9.74623 7.55847 9.79482C 7.27722 10.0447 6.99585 10.2945 6.71436 10.5442L 6.64172 10.6086L 6.11475 11.076C 5.83215 11.3267 5.54956 11.5774 5.26709 11.8282L 4.89001 12.1637L 4.8855 12.1678L 4.83948 12.2087C 4.64343 12.3832 4.44739 12.5578 4.25073 12.7316C 4.15479 12.8164 4.1095 12.8165 3.99805 12.7501C 3.52014 12.4661 3.03247 12.4468 2.53882 12.7043C 2.00439 12.9831 1.65625 13.6226 1.78113 14.2601C 1.97388 15.2433 3.05396 15.7674 3.93884 15.2728C 4.46924 14.9764 4.79504 14.3774 4.66211 13.702C 4.64587 13.62 4.61646 13.5405 4.58704 13.4612L 4.58105 13.4451C 4.57544 13.4299 4.56982 13.4148 4.56445 13.3996C 4.526 13.2923 4.53149 13.2604 4.61536 13.1848C 4.66699 13.1383 4.71863 13.092 4.77051 13.0458L 5.05627 12.7913L 5.20129 12.6622L 5.29761 12.5764L 5.37573 12.5068L 5.46423 12.4281L 6.01587 11.9375C 6.29871 11.6863 6.58167 11.4352 6.86462 11.1842L 7.41785 10.6933L 7.53552 10.5882L 7.55127 10.5741L 7.5603 10.5661C 7.62244 10.5105 7.68457 10.4551 7.74731 10.4002C 7.8363 10.3223 7.89734 10.3239 7.98193 10.4039C 7.99524 10.4164 8.00806 10.4293 8.02087 10.4423L 8.02258 10.4441L 8.02478 10.4463L 8.02747 10.449L 8.03149 10.4531L 8.03625 10.4579L 8.03943 10.4612C 8.052 10.4739 8.06458 10.4867 8.07764 10.4991C 8.48486 10.8888 9.09241 11.0274 9.64636 10.7931C 9.88928 10.6903 10.0865 10.5302 10.2504 10.3254C 10.3596 10.1887 10.4083 10.1853 10.5404 10.2993C 10.5471 10.3051 10.5535 10.3113 10.5598 10.3175C 10.5652 10.3228 10.5706 10.328 10.5762 10.333L 10.9161 10.6358L 10.9777 10.6906L 11.014 10.7229C 11.2828 10.9625 11.5516 11.202 11.8213 11.4408C 12.2676 11.8365 12.7147 12.2309 13.1624 12.6251C 13.2238 12.6792 13.2441 12.7418 13.2295 12.8221C 13.2047 12.9583 13.1946 13.0937 13.2075 13.2345C 13.2843 14.0659 14.0865 14.6806 14.8817 14.5483C 15.3804 14.4654 15.7421 14.1939 15.98 13.752C 16.0909 13.546 16.1353 13.3217 16.1422 13.0915C 16.1453 12.9896 16.1599 12.906 16.2545 12.8528C 16.2611 12.8491 16.2664 12.8433 16.2716 12.8375L 16.2729 12.836C 16.2756 12.8331 16.2783 12.8302 16.2812 12.8276L 17.5547 11.6969L 18.2145 11.1107L 18.9196 10.4841L 19.0529 10.3662L 19.0906 10.3328C 19.2111 10.2264 19.3314 10.12 19.4507 10.0122C 19.5099 9.9587 19.5699 9.94547 19.6409 9.98193L 19.6552 9.98931C 19.6794 10.0019 19.7037 10.0144 19.7286 10.0256C 19.9969 10.1453 20.2765 10.1883 20.5659 10.1321ZM 1.13831 4.17965C 1.32324 4.17516 1.50037 4.12227 1.67297 4.05668L 1.67554 4.05569C 1.71313 4.0415 1.75415 4.02599 1.74121 3.97181C 1.72253 3.89293 1.70325 3.81419 1.68323 3.73279L 1.67517 3.69985L 1.67468 3.69797L 1.64624 3.58235C 1.63049 3.58757 1.61694 3.59176 1.60474 3.59552C 1.58203 3.6025 1.56421 3.60796 1.54749 3.61565C 1.3678 3.6987 1.17737 3.71185 0.983765 3.70189C 0.773926 3.69105 0.648804 3.59843 0.592529 3.39421C 0.563477 3.28919 0.545166 3.1779 0.543823 3.06919C 0.539673 2.73027 0.540527 2.39131 0.541382 2.05236L 0.541992 1.76824C 0.541992 1.74471 0.544434 1.72119 0.546997 1.69641L 0.546997 1.69615L 0.546997 1.69586L 0.546997 1.69553L 0.548218 1.68306L 0.548828 1.67603L 0.550415 1.65866C 0.71814 1.65377 0.883667 1.65461 1.04797 1.65545C 1.24048 1.65643 1.43127 1.6574 1.62183 1.64915L 1.62183 1.19489L 0.546875 1.19489C 0.539917 1.05222 0.540771 0.912927 0.541626 0.774509L 0.541626 0.768505C 0.542725 0.614767 0.543701 0.462062 0.53418 0.306947L 0.00634766 0.400103C 0.00561523 0.414445 0.00476074 0.427114 0.00390625 0.438646L 0.00366211 0.442639C 0.0020752 0.46499 0.000854492 0.483125 0.000854492 0.501244L 0.000488281 1.09516C -0.00012207 1.74407 -0.000732422 2.39296 0.00292969 3.04181C 0.00378418 3.19581 0.0231934 3.35178 0.0532227 3.50303C 0.125977 3.86965 0.358398 4.10006 0.711304 4.15546C 0.851562 4.17748 0.996094 4.18311 1.13831 4.17965ZM 3.4635 1.15052C 3.09644 1.12033 2.73987 1.18489 2.38904 1.28813C 2.27307 1.32227 2.27234 1.32242 2.27222 1.44976C 2.27197 2.29622 2.27197 3.14269 2.27246 3.98915C 2.27246 4.01413 2.27454 4.03912 2.27673 4.06479L 2.27686 4.06695L 2.2771 4.0693L 2.28027 4.10957L 2.79993 4.10957L 2.79993 1.68927C 2.98083 1.63911 3.15222 1.59908 3.3291 1.6141C 3.44812 1.62419 3.56653 1.63993 3.68713 1.65595L 3.6886 1.65615C 3.74194 1.66325 3.79565 1.6704 3.84998 1.67714L 3.93774 1.21771C 3.88354 1.20985 3.83105 1.20143 3.77991 1.1932C 3.67102 1.17572 3.56763 1.15911 3.4635 1.15052ZM 4.79077 2.44349C 4.53552 2.53185 4.33716 2.68877 4.2478 2.95337C 4.1936 3.11383 4.18762 3.2793 4.21729 3.44832C 4.26428 3.71585 4.39734 3.9166 4.64087 4.04212C 4.83838 4.14391 5.052 4.1755 5.26917 4.18102C 5.64587 4.1906 6.01843 4.14216 6.38965 4.0844C 6.41028 4.08119 6.43018 4.07344 6.45117 4.06524C 6.46118 4.0613 6.47156 4.05726 6.48242 4.05356L 6.48242 3.91257L 6.48267 3.48821C 6.48303 3.11825 6.48328 2.74827 6.48145 2.37832C 6.48071 2.24809 6.47266 2.11729 6.45813 1.98782C 6.40662 1.52889 6.14075 1.24318 5.68542 1.16372C 5.39685 1.11337 5.10706 1.12782 4.81958 1.18026C 4.74988 1.19298 4.68103 1.21082 4.60864 1.2296L 4.60571 1.23037L 4.60132 1.23151C 4.56934 1.23978 4.53662 1.2482 4.50293 1.25642L 4.56677 1.70296C 4.78809 1.63725 5.00049 1.60729 5.21631 1.596C 5.34033 1.58949 5.46069 1.59877 5.57812 1.63451C 5.71326 1.67573 5.81335 1.76086 5.87451 1.89083C 5.94958 2.05052 5.96021 2.21889 5.95569 2.40014C 5.94495 2.40014 5.9364 2.40036 5.92944 2.40054C 5.91748 2.40084 5.90991 2.40104 5.90247 2.39984C 5.86621 2.39398 5.83008 2.38718 5.79407 2.3801C 5.4541 2.31341 5.11853 2.33003 4.79077 2.44349ZM 8.4657 1.13896C 7.96423 1.15972 7.58264 1.38341 7.34497 1.82756C 7.11438 2.25835 7.09338 2.71706 7.20996 3.18353C 7.34265 3.71391 7.68518 4.03565 8.21619 4.15375C 8.51648 4.22052 8.81653 4.18843 9.11377 4.12322C 9.17712 4.1093 9.2406 4.09101 9.29993 4.06516C 9.32373 4.05478 9.35388 4.0163 9.35107 3.99451C 9.33899 3.9008 9.32227 3.80766 9.30518 3.71257L 9.30371 3.70456L 9.30347 3.70305L 9.3031 3.70099C 9.29675 3.66588 9.29041 3.6305 9.28418 3.5947L 9.20093 3.62174C 8.94116 3.70611 8.67773 3.74383 8.4054 3.69345C 8.11414 3.63961 7.8988 3.48759 7.79626 3.20562C 7.66797 2.85238 7.6709 2.492 7.78699 2.13664C 7.86963 1.88334 8.04663 1.71527 8.3053 1.64216C 8.47278 1.59482 8.64502 1.59368 8.81506 1.62341C 8.90222 1.63866 8.98816 1.66106 9.07666 1.68415C 9.11707 1.69469 9.15808 1.70537 9.19995 1.71558L 9.31433 1.27626L 9.27625 1.26146L 9.27356 1.26039C 9.25183 1.25192 9.23291 1.24454 9.21387 1.23775C 8.97156 1.15162 8.7207 1.12839 8.4657 1.13896ZM 10.847 1.15166C 10.2877 1.24546 9.95264 1.59486 9.79626 2.12417C 9.69861 2.45497 9.69897 2.79467 9.77405 3.12968C 9.8949 3.66957 10.2205 4.01965 10.7676 4.14219C 11.1759 4.2336 11.5789 4.1944 11.9745 4.0655C 11.9968 4.0582 12.0178 4.04655 12.0402 4.03409C 12.0509 4.02805 12.0621 4.02182 12.074 4.01581L 12.0018 3.59592C 11.9927 3.59485 11.9857 3.5937 11.9802 3.59279C 11.9713 3.59132 11.9663 3.5905 11.9619 3.5917C 11.9303 3.60006 11.8989 3.60923 11.868 3.61942C 11.5797 3.7144 11.286 3.73942 10.9856 3.69265C 10.5663 3.62737 10.2538 3.22953 10.3053 2.80714L 12.2567 2.80714C 12.2601 2.79811 12.2633 2.79092 12.266 2.78488C 12.2705 2.77457 12.2736 2.76761 12.2739 2.76056C 12.2844 2.4487 12.2656 2.1401 12.1573 1.84371C 12.0443 1.53463 11.8378 1.31524 11.5248 1.20398C 11.3042 1.12554 11.0742 1.11356 10.847 1.15166ZM 12.965 0.439343C 12.9633 0.466744 12.9618 0.491133 12.9618 0.515503L 12.9615 1.14844C 12.9609 1.81263 12.9604 2.47681 12.9659 3.14094C 12.9673 3.2979 12.9979 3.45828 13.0393 3.61045C 13.1108 3.8733 13.2856 4.05398 13.5492 4.12702C 13.9412 4.23569 14.3239 4.19124 14.7054 4.0228L 14.6888 3.94634L 14.6882 3.9435C 14.6771 3.89202 14.6667 3.84418 14.6552 3.79668C 14.6433 3.74908 14.6301 3.70186 14.6165 3.65289L 14.5977 3.58543C 14.5834 3.59005 14.5708 3.59383 14.5593 3.59726C 14.5374 3.60383 14.5198 3.60911 14.5031 3.61661C 14.3308 3.69375 14.1495 3.70976 13.9636 3.70296C 13.7247 3.69421 13.5853 3.59254 13.5369 3.36033C 13.5072 3.21775 13.4938 3.06968 13.4915 2.92375C 13.4869 2.63858 13.4879 2.35333 13.4889 2.06807L 13.4896 1.7828C 13.4897 1.75636 13.4917 1.72991 13.4939 1.70148L 13.494 1.69992L 13.4971 1.65832C 13.6711 1.65409 13.8428 1.65478 14.0129 1.65547C 14.204 1.65624 14.3933 1.657 14.5826 1.65079L 14.5826 1.20143C 14.4053 1.19753 14.23 1.19806 14.0543 1.19859C 13.8673 1.19915 13.6799 1.19972 13.4894 1.19493L 13.4894 0.885578C 13.4894 0.85711 13.4896 0.828632 13.4899 0.800154C 13.4905 0.734529 13.4911 0.668905 13.4885 0.603412C 13.4874 0.57682 13.4885 0.550034 13.4896 0.523067L 13.4896 0.522795L 13.4896 0.522521L 13.4896 0.522246L 13.4896 0.52197L 13.4896 0.521692L 13.4896 0.521413L 13.4896 0.521132L 13.4897 0.516473C 13.4926 0.448898 13.4952 0.380213 13.47 0.310674L 12.9674 0.397556L 12.965 0.439343ZM 16.2803 1.1374C 15.8706 1.15493 15.5389 1.32159 15.293 1.64725C 15.0676 1.94539 14.9817 2.28946 14.9923 2.65969L 14.9919 2.70045L 14.9917 2.71405L 14.9916 2.71841L 14.9916 2.72294C 14.9911 2.75913 14.9906 2.79531 14.9928 2.83132C 15.0146 3.18885 15.131 3.512 15.3734 3.77778C 15.6388 4.06885 15.9781 4.19775 16.3712 4.19056C 16.9061 4.18083 17.3087 3.9433 17.5424 3.46425C 17.7985 2.93915 17.7872 2.39995 17.5472 1.86786C 17.4778 1.71398 17.3773 1.57999 17.2509 1.46657C 16.9742 1.21839 16.6479 1.12166 16.2803 1.1374ZM 19.0519 3.81999C 19.0543 3.589 18.9015 3.43102 18.6748 3.43037C 18.4524 3.42972 18.2932 3.58345 18.2899 3.80181C 18.2866 4.02486 18.4473 4.18931 18.6692 4.19029C 18.8945 4.19132 19.0494 4.0414 19.0519 3.81999ZM 20.3099 4.10794L 19.7931 4.10794L 19.7931 1.20729L 20.3099 1.20729L 20.3099 4.10794ZM 22.4189 4.19113C 22.9819 4.17353 23.384 3.90847 23.6123 3.40018C 23.8092 2.96147 23.8109 2.50269 23.6613 2.04942C 23.4717 1.47489 22.9713 1.11965 22.3918 1.13421C 22.3688 1.13565 22.3455 1.13648 22.3223 1.13732C 22.272 1.13913 22.2216 1.14094 22.1721 1.14892C 21.6891 1.22695 21.3534 1.49763 21.1604 1.94334C 21.0048 2.30295 20.9884 2.67862 21.0597 3.05949C 21.1842 3.72565 21.71 4.21334 22.4189 4.19113ZM 20.0532 0.000102997C 20.2637 0.00489426 20.405 0.159115 20.3861 0.356871C 20.4021 0.578658 20.2069 0.703981 20.0381 0.697898C 19.8428 0.690902 19.7059 0.547859 19.7054 0.348202C 19.705 0.148049 19.8507 -0.00453568 20.0532 0.000102997Z" transform="translate(3.93359 9.1571)" fill="#86929E"/>
</g>
</g>
</g>
</svg>
