<?xml version="1.0" encoding="UTF-8" standalone="no"?>
<svg width="32px" height="32px" viewBox="0 0 32 32" version="1.1" xmlns="http://www.w3.org/2000/svg" xmlns:xlink="http://www.w3.org/1999/xlink">
    <!-- Generator: Sketch 49.3 (51167) - http://www.bohemiancoding.com/sketch -->
    <title>Icon/traceto/normal</title>
    <desc>Created with Sketch.</desc>
    <defs></defs>
    <g id="Icon/traceto/normal" stroke="none" stroke-width="1" fill="none" fill-rule="evenodd">
        <g id="Page-1" transform="translate(1.000000, 1.000000)" fill="#86929E">
            <path d="M-1.14068444e-05,29.9678137 L-1.14068444e-05,0.0380418251 L29.9297605,0.0380418251 L29.9297605,29.9678137 L-1.14068444e-05,29.9678137 Z M1,29 L29,29 L29,1 L1,1 L1,29 Z" id="Combined-Shape"></path>
            <path d="M24.4794183,17.6273574 C24.2380875,17.9727567 23.9185817,18.2077757 23.4994183,18.2891825 C23.2100646,18.3453802 22.9305209,18.3023764 22.6622319,18.1826806 C22.632384,18.1693346 22.6034487,18.1539734 22.5743612,18.1390304 C22.5034867,18.1025665 22.4434106,18.1157985 22.3842852,18.1692586 C22.2086198,18.3281559 22.0301787,18.4839354 21.8531065,18.6412357 C21.3980875,19.0453802 20.9432966,19.4497909 20.4882776,19.8539734 C20.0638669,20.2309696 19.6393042,20.6077757 19.2148555,20.9847338 C19.205692,20.9928707 19.1984297,21.0040114 19.1880875,21.0098669 C19.0935247,21.0630989 19.0788099,21.146673 19.0757681,21.2486122 C19.0688479,21.4788403 19.0244373,21.7031369 18.9135247,21.9090684 C18.6755779,22.3509696 18.313981,22.6224905 17.8152357,22.7054183 C17.0200646,22.8376616 16.2178593,22.2229848 16.1411293,21.3915779 C16.1281635,21.2508175 16.1383156,21.1153802 16.1631065,20.9791825 C16.1777452,20.8988783 16.157289,20.8362548 16.0958821,20.7821863 C15.6483156,20.3880418 15.2010913,19.9935551 14.7548175,19.5979278 C14.339076,19.2294487 13.9246654,18.8594867 13.5097224,18.4900951 C13.4975171,18.4792205 13.4864144,18.4670913 13.474019,18.4564068 C13.3419278,18.3424144 13.2932205,18.3458365 13.1839049,18.4824905 C13.0201407,18.6873194 12.8228403,18.8473954 12.5798745,18.9501711 C12.0259582,19.1844677 11.4184677,19.0458745 11.0111673,18.6561787 C10.9786578,18.625076 10.9481635,18.5918821 10.9154639,18.5609696 C10.8309392,18.4810456 10.7698745,18.4794487 10.6809011,18.5572814 C10.5702928,18.6540875 10.4613194,18.7527567 10.3513574,18.8503612 C9.88409506,19.2651521 9.41652852,19.6796008 8.94945627,20.0945817 C8.53405703,20.4637072 8.11915209,20.833403 7.70405703,21.2029087 C7.65219392,21.2490684 7.60052091,21.2954183 7.54892395,21.3418821 C7.4650076,21.4174715 7.4594943,21.4493726 7.49801141,21.556673 C7.53379087,21.6564068 7.57527376,21.7558365 7.59561597,21.8590684 C7.72858175,22.5345437 7.40280228,23.1335171 6.87242205,23.429943 C5.98755513,23.9245437 4.90744106,23.4004373 4.71474144,22.4171673 C4.58979848,21.7797148 4.93797338,21.1402471 5.47242205,20.8614259 C5.9659962,20.6039354 6.45371483,20.6231749 6.93154753,20.9072433 C7.04310646,20.9735551 7.08835361,20.9735171 7.18428517,20.8887262 C7.52394297,20.5885361 7.86173764,20.2863308 8.200673,19.9853422 C8.65865779,19.5785741 9.11709886,19.1722624 9.57531179,18.7657224 C9.88093916,18.4945057 10.1866046,18.223327 10.4920418,17.9519202 C10.5467186,17.903327 10.5701787,17.8509316 10.5603688,17.7693726 C10.4664905,16.9888783 11.017403,16.2613118 11.7964525,16.1468631 C12.3686958,16.0627947 12.8305209,16.2714639 13.1832205,16.723251 C13.3777833,16.9724905 13.473981,17.2621103 13.48573,17.5761787 C13.4891521,17.6680418 13.5228783,17.7294867 13.5868327,17.7857605 C13.8137909,17.9853042 14.0398745,18.1858365 14.2659582,18.3864068 C14.7212814,18.7902852 15.1763764,19.1944297 15.6315475,19.5984981 C15.8575551,19.7991445 16.0827643,20.0007034 16.3097985,20.2002091 C16.4312053,20.3069392 16.4837909,20.3035171 16.6015475,20.190019 C17.1860722,19.6267871 18.1142471,19.6546958 18.6671749,20.2524905 C18.7059582,20.2944677 18.742308,20.3387262 18.7802548,20.3814639 C18.8503688,20.4604373 18.910597,20.469943 18.9914335,20.4021483 C19.1260342,20.2892966 19.2563384,20.1713118 19.3877833,20.0547719 C19.9592662,19.5481179 20.5308631,19.0415779 21.1017376,18.5342395 C21.3827262,18.2845057 21.6628023,18.0337452 21.9420418,17.7820342 C22.0331445,17.6998669 22.037327,17.6694106 21.9797224,17.5591065 C21.8404068,17.2923384 21.7679354,17.0122243 21.797327,16.7088783 C21.860673,16.0559125 22.372384,15.5019962 23.0169468,15.3951901 C23.0971369,15.3818821 23.1799125,15.3839734 23.2615095,15.3789163 C24.0212814,15.3653422 24.7129163,15.9891065 24.730635,16.8336312 C24.7367186,17.1235171 24.6453118,17.3899049 24.4794183,17.6273574 Z M4.60652852,12.2137833 C4.43398099,12.2793726 4.2568327,12.3322624 4.07185171,12.336749 C3.92964639,12.3402091 3.78512167,12.3345817 3.64481749,12.3125665 C3.29192776,12.2571673 3.0594943,12.026749 2.98675665,11.6601331 C2.95675665,11.5088783 2.937327,11.3529087 2.93645247,11.1989163 C2.93173764,10.3521103 2.93413308,9.50522814 2.93439924,8.65834601 C2.93439924,8.63001901 2.93740304,8.60165399 2.93987452,8.55720532 C3.11040684,8.52712928 3.28135741,8.49693916 3.46778327,8.46404943 C3.48607224,8.76081749 3.46553992,9.04876426 3.48044487,9.3519962 L4.55538783,9.3519962 L4.55538783,9.80625475 C4.2020038,9.82153992 3.84801141,9.80515209 3.48394297,9.81576046 C3.48078707,9.85507605 3.47557795,9.89020913 3.4755019,9.92534221 C3.47496958,10.3589924 3.4720038,10.7926806 3.47740304,11.2262928 C3.47877186,11.335 3.49706084,11.4462928 3.52603422,11.5513118 C3.58238403,11.7555323 3.70747909,11.8481559 3.917327,11.8589924 C4.11097719,11.8689544 4.30131939,11.8557985 4.48109125,11.7727567 C4.50675665,11.7609316 4.53489354,11.7543916 4.57979848,11.7394487 C4.61337262,11.876597 4.64489354,12.0025665 4.67477947,12.1289163 C4.68793536,12.1843536 4.64470342,12.1992966 4.60652852,12.2137833 Z M5.3224981,9.44522814 C5.6733346,9.3419962 6.02991255,9.27743346 6.39706084,9.30762357 C6.55014068,9.32024715 6.70177567,9.35024715 6.87120532,9.37480989 C6.83979848,9.53941065 6.81192776,9.68538023 6.78352471,9.83423954 C6.60584411,9.81222433 6.43474144,9.78579848 6.26261217,9.77119772 C6.08569202,9.75617871 5.91439924,9.79621673 5.73348669,9.84636882 L5.73348669,12.266673 L5.2138289,12.266673 C5.21097719,12.2247719 5.2059962,12.1854943 5.2059962,12.1462548 C5.20553992,11.2997909 5.2055019,10.453327 5.20576806,9.60686312 C5.20580608,9.47952471 5.20652852,9.47937262 5.3224981,9.44522814 Z M7.18143346,11.1104753 C7.27078707,10.8458745 7.46915209,10.6889544 7.72439924,10.6005894 C8.05207985,10.4871293 8.3876692,10.4705133 8.72763118,10.5372053 C8.76367681,10.5442776 8.79979848,10.5510837 8.83607224,10.5569392 C8.84778327,10.5588403 8.86002662,10.5572433 8.88922814,10.5572433 C8.8938289,10.3759886 8.88318251,10.2076236 8.80804943,10.0479278 C8.74690875,9.91796578 8.64687072,9.8328327 8.5116616,9.79161597 C8.39428517,9.75587452 8.27386692,9.74659696 8.14995057,9.75309886 C7.93401901,9.76439163 7.72169962,9.79435361 7.5003308,9.86005703 C7.47861977,9.70804183 7.45873384,9.5689924 7.43652852,9.41351711 C7.54972243,9.38595057 7.65048289,9.35610266 7.75322053,9.33735741 C8.04059696,9.28492395 8.33044487,9.27047529 8.61896198,9.32081749 C9.07436122,9.40028517 9.34017871,9.68598859 9.3916616,10.144924 C9.40618631,10.2743916 9.41432319,10.4051901 9.4150076,10.5354183 C9.41763118,11.0468251 9.41607224,11.55827 9.41607224,12.0696768 L9.41607224,12.2106654 C9.38257414,12.2220722 9.35371483,12.236749 9.32329658,12.2415019 C8.95204183,12.2992586 8.57945627,12.3476996 8.20280228,12.3381179 C7.98557795,12.3326046 7.77196578,12.3010076 7.57451331,12.1992205 C7.33097719,12.0737072 7.19782129,11.8729468 7.15086312,11.6054183 C7.1211673,11.4364068 7.12725095,11.2709316 7.18143346,11.1104753 Z M10.2784677,9.98465779 C10.5161483,9.54051331 10.8977072,9.3168251 11.3992662,9.29606464 C11.6542471,9.2854943 11.9051217,9.30872624 12.1474411,9.39484791 C12.1775932,9.40557034 12.207251,9.41773764 12.2478213,9.43336502 C12.209,9.58260456 12.1715095,9.72674905 12.1335247,9.87268061 C11.9998365,9.84009506 11.8755399,9.80271863 11.7485817,9.78051331 C11.5785057,9.75077947 11.4063004,9.75192015 11.2388099,9.79925856 C10.9801407,9.87237643 10.8031825,10.0404373 10.7204449,10.2937452 C10.6043612,10.6491065 10.6014715,11.0094867 10.7298365,11.3627186 C10.832308,11.6446958 11.0476692,11.796711 11.3388859,11.8505513 C11.6112433,11.9009316 11.8747034,11.8632129 12.1343992,11.7788403 C12.157289,11.7713878 12.1801787,11.7639734 12.2176692,11.7518061 C12.2415475,11.8886502 12.267403,12.0195627 12.2845513,12.151616 C12.287365,12.173403 12.257251,12.2118821 12.2334487,12.2222624 C12.1741711,12.2481179 12.110673,12.2664068 12.047251,12.2803232 C11.7501027,12.3455323 11.4500266,12.3776236 11.1496464,12.3108555 C10.6186958,12.1927567 10.2761103,11.8710076 10.1435247,11.3406274 C10.0269087,10.8741635 10.0479354,10.4154563 10.2784677,9.98465779 Z M12.7297985,10.2812738 C12.8861863,9.75195817 13.2212814,9.40256654 13.780597,9.30876426 C14.0077833,9.2706654 14.2376692,9.28264259 14.4583156,9.36108365 C14.7713574,9.4723384 14.9778213,9.69173004 15.0908251,10.0008175 C15.1991901,10.2972053 15.2179734,10.6057985 15.207403,10.9176616 C15.2070228,10.9288403 15.1994943,10.9397909 15.1902548,10.9642395 L13.2387719,10.9642395 C13.187289,11.386635 13.4997605,11.7844677 13.9191521,11.8497529 C14.2195323,11.8965209 14.5132205,11.8715019 14.8015475,11.7765209 C14.8324981,11.7663308 14.8638669,11.7571673 14.8953878,11.7488023 C14.9025741,11.7468631 14.9111673,11.7502091 14.9353878,11.7530228 C14.9584297,11.8871293 14.9822319,12.0257605 15.0075171,12.1729087 C14.9712433,12.1913118 14.9412053,12.2117681 14.9079734,12.2226046 C14.5124221,12.3515019 14.1094183,12.3907034 13.7011293,12.2992966 C13.153943,12.176749 12.8284297,11.826673 12.7075171,11.2867871 C12.6324981,10.9517681 12.6320798,10.6120722 12.7297985,10.2812738 Z M15.8953498,8.67260456 C15.8953498,8.63655894 15.8987338,8.60047529 15.9010532,8.55465779 C16.0691141,8.52560837 16.2330304,8.49724335 16.4035627,8.46777567 C16.4398745,8.56735741 16.4184677,8.66519011 16.4221179,8.76051331 C16.4257681,8.85442966 16.4229163,8.94861217 16.4229163,9.04268061 L16.4229163,9.35203422 C16.792384,9.36131179 17.1500646,9.35047529 17.5161863,9.35853612 L17.5161863,9.80788973 C17.1583156,9.81963878 16.8003308,9.80644487 16.430635,9.81541825 C16.4277833,9.86123574 16.4233346,9.90058935 16.4232586,9.93990494 C16.4227262,10.3202471 16.4188859,10.7006274 16.4250076,11.0808555 C16.427327,11.2267871 16.440749,11.3748479 16.4705209,11.5174335 C16.518962,11.7496388 16.6583536,11.8513118 16.8971749,11.860057 C17.0831065,11.8668631 17.2643992,11.8508555 17.4366046,11.7737072 C17.4620038,11.7623004 17.4896844,11.7560266 17.5312053,11.7425285 C17.5514715,11.8164829 17.5716996,11.8847338 17.5887338,11.9537833 C17.6062243,12.0247338 17.620597,12.0964449 17.639038,12.1799049 C17.2574791,12.348346 16.8747795,12.3927947 16.4828403,12.2841255 C16.2192281,12.2110837 16.0444753,12.0303992 15.9728783,11.7675475 C15.9314715,11.6153802 15.9009011,11.455 15.8995703,11.2980418 C15.892346,10.4229468 15.8954639,9.54777567 15.8953498,8.67260456 Z M18.2264525,9.80435361 C18.4724981,9.47868821 18.8040951,9.31203422 19.2137529,9.2945057 C19.5815095,9.27876426 19.9077833,9.3754943 20.1844373,9.6236692 C20.3108631,9.73709125 20.4113574,9.87108365 20.480749,10.024962 C20.720711,10.5570532 20.7319658,11.0962548 20.4758441,11.6213498 C20.2421939,12.1003992 19.8396844,12.3379278 19.3047034,12.3476616 C18.9117376,12.3548479 18.572384,12.2259506 18.3069468,11.9348859 C18.0645513,11.6691065 17.9481255,11.3459506 17.9263004,10.9884221 C17.9228403,10.9314259 17.9258061,10.8740114 17.9258061,10.8167871 C17.9151977,10.4465589 18.0011673,10.1024905 18.2264525,9.80435361 Z M21.6083916,11.5874715 C21.8350837,11.5881179 21.9879734,11.7461027 21.9854259,11.9770913 C21.9830304,12.1984981 21.8281255,12.3484221 21.6028023,12.3473954 C21.3808251,12.3464068 21.2202548,12.1819582 21.2235627,11.9589163 C21.2267947,11.7405513 21.3860342,11.5868251 21.6083916,11.5874715 Z M22.7266046,12.265038 L22.7266046,9.36439163 L23.2434106,9.36439163 L23.2434106,12.265038 L22.7266046,12.265038 Z M26.5458061,11.5572814 C26.3176312,12.0655703 25.9155019,12.3306274 25.3524981,12.3482319 C24.6434867,12.3704373 24.1178213,11.8827567 23.9932205,11.216597 C23.9219658,10.8357224 23.9383156,10.460057 24.093981,10.1004373 C24.2869468,9.65473384 24.6226122,9.38404943 25.10573,9.30602662 C25.1778973,9.29435361 25.2521559,9.29587452 25.3254639,9.29131179 C25.9049316,9.27674905 26.4052738,9.6319962 26.5948555,10.2065209 C26.7444373,10.6597909 26.7427643,11.1185741 26.5458061,11.5572814 Z M22.9867567,8.15720532 C23.1972129,8.1619962 23.3386198,8.31621673 23.3197605,8.51397338 C23.335654,8.73576046 23.1404449,8.86108365 22.9717376,8.855 C22.7763764,8.8480038 22.6394943,8.70496198 22.639038,8.50530418 C22.6385817,8.30515209 22.7842471,8.15256654 22.9867567,8.15720532 Z M6.17394677,21.2717186 C6.63645627,21.2790951 7.04234981,21.6593232 7.03926996,22.1651407 C7.03668441,22.5934297 6.6751635,23.0481445 6.14554373,23.0263574 C5.67759696,23.0403878 5.2773308,22.6265856 5.27934601,22.1497034 C5.28139924,21.6513004 5.69831939,21.2641521 6.17394677,21.2717186 Z M17.6100228,20.3769202 C18.1440532,20.3798479 18.4925323,20.8277186 18.4768669,21.2544487 C18.4907072,21.6820532 18.1426084,22.1361977 17.5966008,22.1307224 C17.0481977,22.1251711 16.7269049,21.6763878 16.7267148,21.253308 C16.7265247,20.8174525 17.0682357,20.3739544 17.6100228,20.3769202 Z M8.03042586,11.8522928 C7.76419011,11.7846122 7.64327757,11.6055247 7.68137643,11.3339278 C7.70913308,11.136019 7.84635741,11.0336236 8.01825856,10.9859049 C8.29012167,10.9104677 8.56757414,10.9199734 8.84255513,10.9825209 C8.85742205,10.9859049 8.8701597,10.9985665 8.88548289,11.0078441 L8.88548289,11.8522167 C8.80088213,11.8621027 8.72092015,11.8779582 8.64069202,11.8795171 C8.43688973,11.8834335 8.23202281,11.9035475 8.03042586,11.8522928 Z M14.630962,10.5289544 L13.2537757,10.5289544 C13.2355627,10.2059506 13.4816084,9.84146388 13.807692,9.76796578 C13.9592129,9.73382129 14.1086046,9.73724335 14.2513042,9.79998099 C14.512673,9.91484791 14.674308,10.2218061 14.630962,10.5289544 Z M19.2955551,11.8747947 C18.9749848,11.8783688 18.7378365,11.7345285 18.6089011,11.4509163 C18.4150608,11.0244144 18.4116008,10.5843384 18.6233498,10.162057 C18.873654,9.66285551 19.48373,9.68430038 19.7655932,9.92703802 C19.9031597,10.0455551 19.9925894,10.1966198 20.0356312,10.3696996 C20.0717909,10.5149848 20.0871901,10.6654411 20.1117909,10.813616 C20.0992053,11.0357833 20.0682548,11.2481407 19.9675323,11.4456692 C19.8278365,11.7196996 19.6109544,11.8712966 19.2955551,11.8747947 Z M12.0222091,16.71573 C12.4794715,16.7176312 12.902057,17.0613574 12.8984068,17.5962243 C12.8944905,18.167251 12.4502319,18.4753498 12.0201559,18.475616 C11.5877224,18.4758821 11.1459354,18.1760342 11.138749,17.6003688 C11.1318289,17.0455019 11.5735779,16.7122319 12.0222091,16.71573 Z M23.2555932,15.9719734 C23.7340722,15.9720875 24.1176844,16.35973 24.1316388,16.8298061 C24.1443004,17.2550152 23.785403,17.7155856 23.2592433,17.7169163 C22.7775703,17.7180951 22.3954791,17.327943 22.395403,16.8400342 C22.3664677,16.4242548 22.7515627,15.9718213 23.2555932,15.9719734 Z M25.8083536,9.93473004 C25.979038,10.0766312 26.0616616,10.2723726 26.1029544,10.4849202 C26.1238669,10.5924106 26.1293802,10.7029049 26.1418517,10.8120684 C26.137327,11.0194829 26.1101787,11.2215361 26.0234867,11.4098631 C25.915654,11.6440837 25.7476312,11.8091027 25.4826502,11.861384 C25.1324601,11.9304715 24.8061863,11.7759848 24.6451217,11.4556046 C24.568924,11.3040837 24.5300646,11.1417643 24.518924,10.9734753 C24.500673,10.6973916 24.5212814,10.4276958 24.6518517,10.1751483 C24.8759202,9.74180228 25.4331825,9.6228289 25.8083536,9.93473004 Z" id="Fill-15"></path>
        </g>
    </g>
</svg>