<svg width="32" height="32" viewBox="0 0 32 32" version="1.1" xmlns="http://www.w3.org/2000/svg" xmlns:xlink="http://www.w3.org/1999/xlink">
<g id="Canvas" fill="none">
<g id="Icon/trusttoken/normal">
<g id="Page 1">
<path id="Fill 1" fill-rule="evenodd" clip-rule="evenodd" d="M 0.5 1.09485C 0.36745 0.71602 0.200224 0.349592 0 0L 0.5 1.09485Z" transform="translate(29.7383 10.4587)" fill="#00CEF7"/>
<path id="Combined Shape" fill-rule="evenodd" clip-rule="evenodd" d="M 13.4473 25.3539C 12.5334 25.6089 11.5878 25.7346 10.6384 25.7273C 10.2229 25.7231 8.63025 25.6823 6.82336 24.9391C 3.03662 23.3801 1.38708 20.0011 1.08496 19.351C 0.20105 17.4495 0.0997314 15.7668 0.03125 14.6289L 0.0257568 14.5388C -0.0539551 13.2029 0.038208 11.7033 0.488037 10.196C 0.650146 9.66838 0.849854 9.15287 1.08606 8.65359C 1.10657 8.61054 1.12817 8.56762 1.14978 8.52459L 1.15369 8.5169C 5.05261 0.20675 15.9717 -2.62917 23.5013 2.73823C 24.301 3.31052 25.0435 3.95706 25.7191 4.66894C 25.8103 4.76522 25.8962 4.85797 25.9768 4.94721C 25.9768 4.94721 26.0908 5.06629 26.2787 5.29175C 26.6747 5.75966 26.8781 6.06333 26.9111 6.11537C 27.2463 6.58604 27.556 7.07384 27.839 7.5768C 28.3093 8.40915 28.7021 9.28236 29.012 10.1856C 28.8806 9.80354 28.7145 9.4342 28.5161 9.0817L 29.012 10.1856C 27.0797 7.10308 24.316 4.49369 20.8828 3.15731C 17.676 1.90848 14.0093 1.81741 10.7321 2.86129C 7.06628 4.02884 3.98499 6.70129 2.83191 10.3999C 1.62256 14.2757 2.28943 19.3328 5.84229 21.8165C 8.65405 23.7826 12.8859 24.0183 15.5404 22.0008C 17.6704 20.3822 18.5112 17.5518 18.5112 14.9897L 18.5112 12.6335L 20.7236 12.6335C 20.725 12.9707 20.725 13.5894 20.725 14.2616C 20.7222 14.497 20.7197 14.7205 20.7178 14.9015C 20.7155 15.1191 20.7137 15.2754 20.7129 15.3173C 20.687 16.7413 20.5367 18.2573 20.0021 19.59C 19.5273 20.7641 18.824 21.8343 17.9321 22.74C 17.5372 23.1427 15.9917 24.6453 13.4473 25.3539ZM 17.9316 6.13888C 19.3861 6.34031 20.8158 6.77638 22.1223 7.44679C 23.968 8.39409 25.5226 9.82995 26.5828 11.6156C 28.4279 14.7174 28.3701 17.7417 27.9449 19.8368C 27.5963 21.5497 27.0033 22.6404 27.0033 22.6404C 26.6588 23.2563 25.3619 25.4665 22.7988 27.2797C 21.6145 28.1189 20.3043 28.7653 18.9171 29.1945C 18.087 29.4545 17.2346 29.6365 16.3707 29.7379L 16.3262 29.7431C 16.2954 29.7467 16.2646 29.7503 16.2339 29.7535L 16.173 29.7597C 15.6888 29.8095 15.2026 29.834 14.7161 29.8331L 14.6848 29.8331C 14.5217 29.8332 14.3589 29.8306 14.196 29.8253C 13.5676 29.8051 12.9412 29.7454 12.3202 29.6465C 11.1121 29.4539 9.9325 29.1125 8.80859 28.6299C 8.53198 28.5112 8.2594 28.3842 7.99097 28.2492C 7.91907 28.213 7.8468 28.1773 7.77454 28.1415C 7.56641 28.0387 7.35828 27.9357 7.15662 27.8208C 6.97681 27.7167 6.80334 27.602 6.63708 27.4773L 6.62048 27.4652C 6.60327 27.4528 6.58594 27.4403 6.56873 27.4271C 7.27222 27.7119 7.99866 27.9363 8.74023 28.098C 9.54956 28.2405 10.3658 28.3407 11.1857 28.3981C 15.3875 28.6727 20.2869 27.305 23.2555 24.1989C 24.5336 22.8619 25.4545 21.2032 25.8075 19.2138C 25.9631 18.3366 26.348 15.9815 25.1742 13.5219C 23.5933 10.2083 20.1554 8.45148 16.5841 8.45148L 9.53442 8.45148L 9.53442 12.7689L 14.3835 12.7689L 14.3835 14.8762C 14.3893 15.7337 14.3796 16.7913 14.334 17.928C 14.2194 20.75 12.1605 21.3512 12.1605 21.3512L 12.1605 15.1047L 6.96167 15.1047L 6.96167 6.085L 9.13757 6.07291L 13.7919 6.05011C 14.1095 6.04847 14.4294 6.04225 14.7505 6.036C 15.8134 6.01533 16.8885 5.99442 17.9316 6.13888Z" transform="translate(1 1.15304)" fill="#86929E"/>
</g>
</g>
</g>
</svg>
