<svg width="32" height="32" viewBox="0 0 32 32" version="1.1" xmlns="http://www.w3.org/2000/svg" xmlns:xlink="http://www.w3.org/1999/xlink">
<g id="Canvas" fill="none">
<g id="Icon/wanchain/normal">
<g id="wanchain">
<path id="Shape" fill-rule="evenodd" clip-rule="evenodd" d="M 13.8541 0L 0 8.13465L 0 12.6054L 13.8541 4.47085L 27.708 12.6054L 27.708 8.13465L 13.8541 0Z" transform="translate(2 14.198)" fill="#86929E"/>
<path id="Shape_2" opacity="0.4" fill-rule="evenodd" clip-rule="evenodd" d="M 3.66087 9.26402L 13.4674 3.60234L 23.2736 9.26402L 26.9347 7.77543L 13.4674 0L 0 7.77543L 3.66087 9.26402Z" transform="translate(2.38672 0)" fill="#86929E"/>
<path id="Shape_3" fill-rule="evenodd" clip-rule="evenodd" d="M 23.6604 1.6458L 23.6604 14.1657L 22.2039 15.0067L 25.2972 16.8229L 27.7081 15.4309L 27.7081 0.000106812L 23.6604 1.6458ZM 5.50425 15.0067L 4.03575 14.1588L 4.03575 1.64101L 0 0L 0 15.4309L 2.41083 16.8229L 5.50425 15.0067Z" transform="translate(2 8.56481)" fill="#86929E"/>
<path id="Shape_4" opacity="0.4" fill-rule="evenodd" clip-rule="evenodd" d="M 18.0661 0L 10.5798 4.32225L 3.09342 0L 0 1.81631L 10.5798 7.92449L 21.1594 1.81631L 18.0661 0Z" transform="translate(5.27429 24.0699)" fill="#86929E"/>
</g>
</g>
</g>
</svg>
