<svg width="32" height="32" viewBox="0 0 32 32" version="1.1" xmlns="http://www.w3.org/2000/svg" xmlns:xlink="http://www.w3.org/1999/xlink">
<g id="Canvas" fill="none">
<g id="Icon/zilliqa/normal">
<g id="zilliqa">
<g id="Group">
<path id="path1_fill" opacity="0.3" d="M 0 2.05034L 17.4084 10.6618L 21.8652 8.61144L 4.52774 0L 0 2.05034Z" transform="translate(5.07043 0)" fill="#86929E"/>
</g>
<g id="Group_2">
<path id="path2_fill" opacity="0.6" d="M 0 2.05034L 4.45677 0L 4.45677 4.58398L 0 6.63433L 0 2.05034L 0 2.05034Z" transform="translate(22.479 8.59204)" fill="#86929E"/>
</g>
<g id="Group_3">
<path id="path3_fill" d="M 0 0L 0 4.63524L 12.0503 10.6105L 0 16.7103L 0 21.2796L 17.4084 29.8764L 17.4084 25.2778L 5.58516 19.405L 17.4084 13.1954L 17.4084 8.61144L 0 0Z" transform="translate(5.07043 2.05444)" fill="#86929E"/>
</g>
<g id="Group_4">
<path id="path4_fill" opacity="0.6" d="M 0 16.3735L 4.45677 14.3231L 4.45677 0L 0 2.07231L 0 16.3735Z" transform="translate(22.479 15.5232)" fill="#86929E"/>
</g>
</g>
</g>
</g>
</svg>
