<?xml version="1.0" encoding="utf-8"?><svg xmlns="http://www.w3.org/2000/svg" xmlns:xlink="http://www.w3.org/1999/xlink"><symbol viewBox="0 0 160.000000 160.000000" id="svg-sprite--0chain" xmlns="http://www.w3.org/2000/svg"><path d="M64.4 7.5C38.1 13.3 17.7 31.8 8.7 57.8 4.8 69.3 4.1 86.1 7.1 98.3c7.2 28.7 29.1 50.1 57.5 56.1 8.7 1.9 26.7 1.4 34.9-.8 25-7 44.5-25.9 52.5-51.1 2.8-8.7 3.5-27.8 1.5-37.1-3.1-14.5-9.8-26.6-20.6-37.3-8-8.1-15-12.8-24.9-16.8-12.6-5.1-30.6-6.6-43.6-3.8zm33.1 2.9c8.3 2.2 23.1 9.7 28.5 14.5l4.5 4-2.7 2.5c-1.5 1.4-3 2.6-3.3 2.6-.4 0-2.5-1.5-4.8-3.4-5.9-4.7-12.1-8-20.2-10.7-5.9-2-9-2.4-19.5-2.4-10.6 0-13.6.4-19.5 2.4-9.1 3.1-11.8 4.7-24.1 13.6-.9.6-2.1.1-4-2l-2.7-2.9 4.4-3.8c8.2-7 24.7-14.3 36.9-16.1 5.3-.7 20.8.2 26.5 1.7zM79 23.1v3.8l-5.7.7C53.2 30 35.4 44.5 29.2 63.5c-1.8 5.3-3 11.5-3.2 15.3 0 .8-1.2 1.1-3.8.9-3.6-.3-3.7-.3-3.5-4.2C20 54.7 35 33.6 54.8 24.7c5.4-2.4 17.1-5.3 21.3-5.3 2.7 0 2.9.2 2.9 3.7zm20.1-.5c23.1 7.3 40.7 29.4 42.2 52.9.2 3.9.1 4-3 4.2-3.9.2-4 .1-4.8-5.7-1.6-12-7-22.6-15.9-31.5-7.6-7.5-16.5-12.1-27.9-14.3l-8.5-1.7.3-3c.1-1.6.3-3.4.4-3.8.2-1.2 8.8.3 17.2 2.9zM95 32c21.8 6.5 37.4 28.3 36.4 50.9-1.4 33.4-34.5 57-66.1 47.2-22.6-7-38.3-29.5-36.6-52.6 1.7-23.2 20.6-44.1 42.8-47.2 2.2-.3 4.1-.6 4.3-.8.9-.8 13.7.8 19.2 2.5zm-64 1.5c1.7 1.8 2.1 3 1.5 3.9C28.1 43.2 22 53.5 20.2 58c-3.2 8.2-3.7 11.4-3.6 24.5.1 16.5 2.8 23.6 15.9 42.1.7 1 .2 2.1-1.8 4.1l-2.8 2.8L24 127C13.8 115.3 7 95.1 7.6 78.3c.5-15.8 7.6-33.8 17.7-45.1 2.6-2.8 2.8-2.8 5.7.3zm106.4 3.1c16.8 21.4 19.8 52.2 7.5 76.6-3 6-9.9 16.1-11.8 17.2-1.4.9-6.6-4.5-5.5-5.8 11.7-15.5 16.2-27.6 16.2-44 0-16.3-3.6-25.7-16.3-43.2-.6-.9-.2-2.1 1.5-3.9 1.3-1.4 2.7-2.5 3.2-2.5.4 0 2.8 2.5 5.2 5.6zM27.1 90.2c.9 4.6 2.8 10.8 4.2 13.8 8.5 17.6 26.7 29.8 46.5 30.9.7.1 1.2 1.6 1.2 4.1 0 3.8-.1 4-2.7 3.6-1.6-.2-4.8-.8-7.3-1.1-25.9-4-47.4-27.3-50.5-54.8L18 82h7.6l1.5 8.2zm114.3-7.3c.8 1.3-1.3 12.8-3.4 18.9-5.9 16.6-21.1 31.8-37.3 37.1-8.7 2.9-18 4.2-18.9 2.7-1.1-1.6-.6-6.6.7-6.7 13.8-.9 25.6-6.2 35.4-15.8 9.5-9.3 15.2-21.9 16-34.9.1-1.8.7-2.2 3.5-2.2 1.9 0 3.7.4 4 .9zm-95.2 52.5c9.8 6.2 19.6 8.9 32.3 9 12 .1 15.1-.3 23.7-3.3 4.7-1.6 14.6-7.4 21.5-12.6.9-.7 2-.2 4 1.8l2.8 2.8-4 3.5c-7.1 6.1-21.5 13.5-29.2 14.9-1.5.2-4.9.8-7.4 1.3-6.4 1.2-18.1.7-26.4-1.2-8.7-2-23.5-9.3-29.5-14.5l-4.5-4 2.9-3 3-3.1 2.5 2.4c1.4 1.3 5.2 4 8.3 6z"/></symbol><symbol viewBox="0 0 32 32" id="svg-sprite--0x" xmlns="http://www.w3.org/2000/svg"><path fill-rule="evenodd" clip-rule="evenodd" d="M23.416 3.4a196.71 196.71 0 0 1-3.236 2.267c-1.45 1.017-2.9 2.054-4.335 3.08h-.001l-1.192.853c-.236.167-.405.2-.607-.033a31.916 31.916 0 0 0-.927-.917c-.312-.3-.624-.6-.927-.917-.169-.166-.337-.2-.573-.1-1.45.734-2.596 1.767-3.54 3.067a1.845 1.845 0 0 0-.202.267c-.22-.287-.436-.563-.649-.835l-.006-.009a101.617 101.617 0 0 1-1.797-2.356l-.004-.004c-.216-.292-.43-.58-.645-.863-.168-.233-.202-.4.034-.633 2.595-2.834 5.798-4.5 9.64-4.9 3.034-.334 5.933.266 8.63 1.7.05.033.1.058.151.083.051.025.102.05.152.083 0 .1 0 .134.034.167zm-13.39 21.31c.266-.198.538-.4.817-.61-.072-.047-.135-.09-.194-.13a5.702 5.702 0 0 0-.312-.203c-1.213-.9-2.19-2-2.899-3.334-.135-.233-.101-.4.101-.6a59.661 59.661 0 0 0 2.056-2.066c.05-.049.08-.097.12-.159l.049-.075c-1.096-1.429-2.201-2.858-3.306-4.288l-.024-.03-.024-.032c-1.12-1.45-2.241-2.9-3.354-4.35a.747.747 0 0 1-.05.023c-.034.014-.051.02-.051.044a1.95 1.95 0 0 1-.068.117c-.025.042-.05.083-.067.116-1.618 3.034-2.157 6.234-1.55 9.6.606 3.334 2.224 6.134 4.786 8.4.27.234.438.234.674.034.284-.215.567-.421.851-.627l.004-.003.005-.004c.286-.208.573-.416.86-.633.517-.4 1.035-.787 1.573-1.187l.003-.003zm17.367.823a1472.747 1472.747 0 0 1-3.303-4.366.873.873 0 0 1-.101.058l-.013.007.013.001c-.017.034-.042.067-.067.1a.696.696 0 0 0-.068.1 9.307 9.307 0 0 1-3.101 2.834l-.24.134c-.275.155-.4.225-.506.204-.089-.017-.165-.096-.305-.242a8.076 8.076 0 0 0-.298-.296 97.706 97.706 0 0 1-.976-.933h-.002c-.32-.31-.644-.622-.977-.934-1.807 1.325-3.602 2.65-5.407 3.983l-.03.022c-1.18.872-2.366 1.748-3.563 2.628 3.405 1.867 6.91 2.434 10.618 1.667 3.337-.7 6.102-2.367 8.326-4.967zm-.472-4.7c.64.834 1.281 1.667 1.99 2.567.1-.233.201-.4.302-.533 1.146-2.234 1.72-4.6 1.652-7.1-.168-4.3-1.888-7.867-5.09-10.734-.236-.233-.404-.166-.606 0-.64.484-1.281.959-1.922 1.434-.64.475-1.28.95-1.921 1.433-.03.03-.068.06-.109.093-.05.04-.105.085-.16.14.086.043.158.1.226.152.038.03.074.058.11.082a9.914 9.914 0 0 1 3.068 3.5c.134.233.067.4-.102.566-.32.317-.632.634-.943.95-.312.317-.624.634-.944.95-.236.234-.236.4-.034.667 1.06 1.352 2.105 2.72 3.144 4.081.447.586.893 1.17 1.34 1.752z"/></symbol><symbol viewBox="0 0 32 32" id="svg-sprite--acroplis" xmlns="http://www.w3.org/2000/svg"><g fill-rule="evenodd" clip-rule="evenodd"><path opacity=".3" d="M28.66 24.953l-11.41 6.704a2.478 2.478 0 0 1-2.515 0L3.324 24.953a2.568 2.568 0 0 1-1.258-2.216V9.33c0-.914.48-1.76 1.258-2.216L14.734.41a2.478 2.478 0 0 1 2.516 0l11.411 6.704a2.568 2.568 0 0 1 1.258 2.216v13.407c0 .914-.48 1.759-1.258 2.216z"/><path opacity=".3" d="M26.042 23.17l-9 5.288c-.65.38-1.45.38-2.099 0l-9-5.288a2.142 2.142 0 0 1-1.05-1.85V10.747c0-.763.4-1.468 1.05-1.85l9-5.287a2.068 2.068 0 0 1 2.099 0l9 5.288a2.143 2.143 0 0 1 1.05 1.85V21.32c0 .763-.4 1.468-1.05 1.85z"/><path opacity=".3" d="M23.51 21.305l-6.79 3.988a1.436 1.436 0 0 1-1.456 0l-6.788-3.988a1.487 1.487 0 0 1-.729-1.284v-7.976c0-.53.278-1.018.729-1.283l6.788-3.988a1.435 1.435 0 0 1 1.457 0l6.788 3.988c.451.265.729.754.729 1.283v7.976c0 .53-.278 1.02-.729 1.284z"/><path d="M19.879 19.093l-3.225 1.895c-.41.24-.914.24-1.323 0l-3.225-1.895a1.35 1.35 0 0 1-.66-1.165v-3.79c0-.48.251-.924.66-1.164l3.225-1.895c.41-.24.913-.24 1.323 0l3.225 1.895c.409.24.66.684.66 1.165v3.789c0 .48-.251.925-.66 1.165z"/></g></symbol><symbol viewBox="0 0 32 32" id="svg-sprite--aeternity" xmlns="http://www.w3.org/2000/svg"><path d="M6.912 8h1.315c2.055.214 3.955 1.314 5.363 2.897 2.922 3.261 4.528 7.864 8.247 10.291 2.688 1.757 6.448.32 7.77-2.645a79.95 79.95 0 0 1 2.019-.01c-.925 3.013-3.62 5.178-6.567 5.467h-1.085a8.321 8.321 0 0 1-4.95-2.185c-1.994-1.798-3.274-4.263-4.822-6.458-1.332-1.94-2.692-4.123-4.896-5.005-2.724-1.086-6.052.613-7.044 3.5-.873 2.376-.163 5.324 1.79 6.846 1.462 1.205 3.5 1.654 5.257.953 1.952-.749 3.401-2.451 4.512-4.255.438.667.864 1.344 1.286 2.025-1.728 2.315-4.125 4.303-6.976 4.579H6.963C3.37 23.735.246 20.487 0 16.65v-1.256C.234 11.564 3.315 8.279 6.912 8"/><path d="M23.9 8h1.092c3.626.252 6.71 3.564 7.008 7.4v1.969c-2.992.03-5.987.01-8.98.013.004-.575.004-1.147 0-1.722 2.366-.007 4.727.01 7.089-.007-.167-1.018-.384-2.06-.95-2.921-1.383-2.247-4.305-3.166-6.64-2.192-1.863.735-3.265 2.345-4.346 4.064a83.864 83.864 0 0 1-1.229-1.93C18.65 10.325 21.03 8.293 23.901 8"/></symbol><symbol viewBox="0 0 32 32" id="svg-sprite--aion" xmlns="http://www.w3.org/2000/svg"><path d="M22.149 4.617a12.506 12.506 0 0 0-6.503-1.818c-2.117 0-4.207.533-6.04 1.548l-.883-1.574A14.292 14.292 0 0 1 15.639 1c2.639 0 5.22.72 7.458 2.081l-.948 1.536z"/><path opacity=".4" d="M28.99 12.163a12.233 12.233 0 0 0-2.459-4.631l1.168-.964a13.823 13.823 0 0 1 2.748 5.19l-1.458.405z"/><path d="M25.947 26.953l-1.174-1.375a12.272 12.272 0 0 0 4.406-9.411H31c0 4.156-1.84 8.088-5.052 10.786zm-10.465 4.032a14.4 14.4 0 0 1-9.084-3.231L7.56 26.36a12.542 12.542 0 0 0 7.922 2.82c2.02 0 3.949-.463 5.723-1.375l.839 1.6a14.384 14.384 0 0 1-6.562 1.58z"/><path opacity=".4" d="M3.323 23.12A13.83 13.83 0 0 1 1 15.43c0-3.823 1.529-7.394 4.303-10.054l1.052 1.086c-2.471 2.37-3.839 5.557-3.839 8.968 0 2.447.716 4.824 2.071 6.86l-1.264.83z"/><path fill-rule="evenodd" clip-rule="evenodd" d="M6.177 15.491c0 5.069 4.168 9.2 9.29 9.2 5.123 0 9.29-4.125 9.29-9.2 0-5.068-4.167-9.199-9.29-9.199-5.122 0-9.29 4.124-9.29 9.2zm1.82 0c0-4.079 3.354-7.4 7.47-7.4 4.123 0 7.471 3.321 7.471 7.4 0 4.08-3.355 7.4-7.47 7.4-4.123 0-7.472-3.32-7.472-7.4z"/></symbol><symbol viewBox="0 0 32 32" id="svg-sprite--aira" xmlns="http://www.w3.org/2000/svg"><path fill-rule="evenodd" clip-rule="evenodd" d="M27 6.95a2.482 2.482 0 0 1-.728-.272l-8.294 8.293A2.5 2.5 0 0 1 16.5 18.95v6.1c.307.062.593.18.848.344l8.046-8.046A2.5 2.5 0 0 1 27 13.55v-6.6zm-1.485-.93l-8.296 8.297a2.5 2.5 0 0 0-3.402 3.402L6.02 25.515A2.5 2.5 0 1 0 6.95 28h6.6a2.5 2.5 0 0 0 4.9 0h6.6A2.5 2.5 0 1 0 28 25.05v-6.6a2.5 2.5 0 0 0 0-4.9v-6.6a2.5 2.5 0 1 0-2.485-.93zM25.05 27c.199-.98.97-1.751 1.95-1.95v-6.6a2.488 2.488 0 0 1-.909-.384l-8.025 8.025c.184.27.317.578.384.909h6.6zm-11.5 0c.199-.98.97-1.751 1.95-1.95v-6.1a2.489 2.489 0 0 1-1.029-.472l-7.793 7.794c.126.223.22.468.272.728h6.6z"/></symbol><symbol viewBox="0 0 32 32" id="svg-sprite--augmate" xmlns="http://www.w3.org/2000/svg"><path d="M27.03 21.221a4.907 4.907 0 0 0-4.902 4.93 4.923 4.923 0 0 0 4.94 4.898c2.703-.005 4.917-2.232 4.908-4.936-.01-2.708-2.222-4.897-4.946-4.892M19.369 5.5a4.308 4.308 0 0 0-4.323-4.332c-2.426-.005-4.328 1.884-4.335 4.306a4.31 4.31 0 0 0 4.307 4.348 4.348 4.348 0 0 0 4.35-4.321M3.676 21.603A3.65 3.65 0 0 0 0 25.2a3.637 3.637 0 0 0 3.602 3.667 3.615 3.615 0 0 0 3.665-3.592 3.624 3.624 0 0 0-3.59-3.672m7.909-10.361a2.84 2.84 0 0 0-2.905 2.841 2.814 2.814 0 0 0 2.797 2.854c1.628.025 2.891-1.206 2.9-2.828a2.83 2.83 0 0 0-2.792-2.867m7.551 6.788c-1.617-.024-2.912 1.24-2.91 2.84a2.835 2.835 0 0 0 2.84 2.828 2.812 2.812 0 0 0 2.856-2.802 2.806 2.806 0 0 0-2.786-2.867m-1.449-1.58a1.88 1.88 0 0 0 1.908-1.825 1.874 1.874 0 0 0-1.844-1.968c-1.085-.024-1.93.785-1.947 1.863a1.872 1.872 0 0 0 1.883 1.93" fill-rule="evenodd" clip-rule="evenodd"/></symbol><symbol viewBox="0 0 32 32" id="svg-sprite--bancor" xmlns="http://www.w3.org/2000/svg"><path fill-rule="evenodd" clip-rule="evenodd" d="M15.425 0L8 4.35l7.424 4.351 7.564-4.35L15.425 0zm1.22 23.228v8.702l10.087-5.754v-8.703l-10.086 5.755zm7.566-16.14v8.702l-7.565 4.35v-8.702l7.565-4.35zM6 15.79l7.565 4.35v-8.702L6 7.088v8.702zm0 11.79l7.565 4.35v-8.7L6 18.876v8.702z"/></symbol><symbol viewBox="0 0 32 32" id="svg-sprite--bitfinex" xmlns="http://www.w3.org/2000/svg"><g fill-rule="evenodd" clip-rule="evenodd"><path opacity=".6" d="M7.243 8.491C10.865 5.231 19.884 1.17 30 2 25.61 8.066 13.965 19.903 2 21c0-7.336 2.085-9.666 5.243-12.509z"/><path d="M30 2c1.164 8.155-.82 17.65-5.954 23.012C19.07 30.374 9.059 32.41 3 26.046 15.245 24.56 25.201 12.125 30 2z"/></g></symbol><symbol viewBox="0 0 32 32" id="svg-sprite--bitstamp" xmlns="http://www.w3.org/2000/svg"><path fill-rule="evenodd" clip-rule="evenodd" d="M21.024 19.475c-.87.665-2.068.998-3.598.998H10.15v-1.818a2.193 2.193 0 1 0 0-4.386v-1.461a2.193 2.193 0 1 0 0-4.386V6.83h6.362c1.562 0 2.784.311 3.666.933.881.621 1.322 1.55 1.322 2.787 0 .6-.177 1.14-.53 1.622-.353.48-.844.846-1.473 1.096.907.144 1.606.522 2.095 1.134.49.612.734 1.33.734 2.155 0 1.28-.434 2.253-1.302 2.919zM10.15 25.382h11.807v-1.977H10.15v1.977zM15.995 1C7.714 1 1 7.714 1 15.995c0 8.282 6.714 14.996 14.995 14.996 8.282 0 14.996-6.714 14.996-14.996C30.99 7.714 24.276 1 15.995 1zm2.506 11.072c.424-.334.636-.807.636-1.42 0-.674-.223-1.175-.67-1.503-.448-.328-1.099-.492-1.955-.492h-2.274v3.916h2.527c.733 0 1.311-.167 1.736-.5zm.821 2.844c-.434-.406-1.043-.622-1.828-.647h-3.256v4.386h3.188c.817 0 1.446-.18 1.886-.539.441-.36.662-.88.662-1.56 0-.687-.218-1.234-.652-1.64z"/></symbol><symbol viewBox="0 0 32 32" id="svg-sprite--blockstack" xmlns="http://www.w3.org/2000/svg"><path fill-rule="evenodd" clip-rule="evenodd" d="M2 8a6 6 0 0 1 6-6h16a6 6 0 0 1 6 6v16a6 6 0 0 1-6 6H8a6 6 0 0 1-6-6V8zm8 5a3 3 0 1 0 0-6 3 3 0 0 0 0 6zm3 9a3 3 0 1 1-6 0 3 3 0 0 1 6 0zm9-9a3 3 0 1 0 0-6 3 3 0 0 0 0 6zm3 9a3 3 0 1 1-6 0 3 3 0 0 1 6 0z"/></symbol><symbol viewBox="0 0 32 32" id="svg-sprite--civic" xmlns="http://www.w3.org/2000/svg"><title>Icon/civic/normal</title><path d="M17.49 17.168a3.517 3.517 0 0 0 1.966-3.16 3.51 3.51 0 0 0-3.503-3.514 3.51 3.51 0 0 0-3.505 3.514 3.515 3.515 0 0 0 1.967 3.16v4.34h3.075v-4.34M15.953 27.25C9.769 27.25 4.738 22.204 4.738 16S9.77 4.75 15.953 4.75c5.046 0 9.323 3.36 10.727 7.968h3.865C29.054 6.013 23.087 1 15.953 1 7.695 1 1 7.716 1 16c0 8.284 6.695 15 14.953 15 7.134 0 13.1-5.013 14.592-11.718H26.68C25.276 23.89 21 27.25 15.953 27.25"/></symbol><symbol viewBox="0 0 32 32" id="svg-sprite--civic_old" xmlns="http://www.w3.org/2000/svg"><path fill-rule="evenodd" clip-rule="evenodd" d="M4.738 16c0 6.204 5.03 11.25 11.215 11.25 5.046 0 9.323-3.36 10.727-7.968h3.865C29.054 25.986 23.087 31 15.953 31 7.695 31 1 24.284 1 16 1 7.716 7.695 1 15.953 1c7.134 0 13.1 5.013 14.592 11.718H26.68C25.276 8.111 21 4.751 15.953 4.751 9.769 4.75 4.738 9.796 4.738 16zm14.718-1.992a3.51 3.51 0 0 0-3.503-3.514zm-3.503-3.514a3.51 3.51 0 0 0-3.505 3.514zm-3.505 3.514a3.515 3.515 0 0 0 1.967 3.16zm1.967 3.16v4.34zm0 4.34h3.075zm3.075 0v-4.34z"/></symbol><symbol viewBox="0 0 32 32" id="svg-sprite--dmarket" xmlns="http://www.w3.org/2000/svg"><path opacity=".25" d="M14.427 14.796l-3.36-5.768-3.418-5.824a2.43 2.43 0 0 0-.791-.812H6.83a2.141 2.141 0 0 0-.82.84L3.47 7.6a1.983 1.983 0 0 0 0 2.016l3.05 5.236c.226.364.31.784.31 1.204 0 .42-.112.84-.31 1.204l-3.022 5.18a1.983 1.983 0 0 0 0 2.016l2.542 4.368c.197.336.48.644.819.84h.028a2.19 2.19 0 0 0 .79-.812l3.39-5.824 3.361-5.824a2.44 2.44 0 0 0 0-2.408z"/><g opacity=".6"><path opacity=".25" d="M30.639 14.628l-3.39-5.796-3.473-5.964a2.473 2.473 0 0 0-.622-.7.696.696 0 0 0-.451-.168c-1.78 0-2.994.056-3.898.056-.141 0-.226.168-.198.308l.876 4.872c0 .056 0 .112-.028.168a2 2 0 0 0 .056 1.988l3.107 5.376c.226.392.339.812.339 1.232 0 .42-.113.84-.34 1.232l-3.134 5.376a2.073 2.073 0 0 0-.057 1.988.352.352 0 0 1 .029.168l-.876 4.844c-.028.14.056.308.198.308.819 0-.34.084 4.01.084.085 0 .198-.028.283-.056.31-.112.508-.476.678-.784l3.474-5.992 3.36-5.796c.537-.84.537-1.876.057-2.744z"/><path d="M29.255 14.796l-6.75-11.592A2.425 2.425 0 0 0 20.415 2h-13.5c-.453 0-.876.14-1.272.364v.028c.311.196.594.476.791.812l3.39 5.824a2.55 2.55 0 0 1 1.016-.224h5.593c.875 0 1.666.448 2.09 1.204l2.796 4.788a2.44 2.44 0 0 1 0 2.408l-2.796 4.788a2.46 2.46 0 0 1-2.09 1.204h-5.565c-.367 0-.706-.084-1.016-.224l-3.39 5.824a2.43 2.43 0 0 1-.79.812v.028c.367.224.819.364 1.27.364h13.53c.875 0 1.666-.448 2.09-1.204l6.75-11.592a2.442 2.442 0 0 0-.057-2.408z"/></g><path d="M13.184 14.796l-3.36-5.768-3.39-5.824a2.43 2.43 0 0 0-.79-.812h-.029a2.141 2.141 0 0 0-.819.84l-2.514 4.34a1.983 1.983 0 0 0 0 2.016l3.05 5.236c.227.364.311.784.311 1.204 0 .42-.113.84-.31 1.204l-3.05 5.208a1.983 1.983 0 0 0 0 2.016l2.541 4.368c.198.336.48.644.82.84h.028c.339-.196.593-.476.79-.812l3.39-5.824 3.36-5.768c.424-.812.424-1.708-.028-2.464z"/></symbol><symbol viewBox="0 0 32 32" id="svg-sprite--dragonchain" xmlns="http://www.w3.org/2000/svg"><path opacity=".5" d="M6 23.13h4.243l-.108-10.798 15.806 19.637-.05-23.187h-4.177l.108 10.907L6.005 0 6 23.13z"/><path d="M6 7.172L6.022.02l19.86 24.694.08 7.285L6 7.172z"/></symbol><symbol viewBox="0 0 33 32" id="svg-sprite--dreamteam" xmlns="http://www.w3.org/2000/svg"><path fill-rule="evenodd" clip-rule="evenodd" d="M20.119 3h3.367c6.001 0 9.807 4.889 8.563 10.889l-1.098 5.26c-1.61 5.48-7.1 9.851-12.735 9.851H.284l12.589-8.889 7.246 5.185V18.26l9.222-6.518h-9.222V3zm0 0H2.553l1.391 2h14.711l1.464-2zm-6.587 8.74H8.848L7.384 9.816h7.612l-1.464 1.926zm-7.1-3.407h9.661l1.464-1.926H5.042l1.39 1.926z"/></symbol><symbol viewBox="0 0 32 32" id="svg-sprite--enigma" xmlns="http://www.w3.org/2000/svg"><g fill-rule="evenodd" clip-rule="evenodd"><path d="M29.533 7.745A2933.442 2933.442 0 0 1 25.459 5.4l-2.513-1.447c-.86-.494-1.719-.988-2.577-1.483l-.03-.017-.012-.006c-1.392-.801-2.784-1.602-4.177-2.4L16.07 0l-.084.033c-.15.056-.266.112-.374.173l-.201.118a8662.182 8662.182 0 0 1-8.287 4.86c-1.591.932-3.18 1.864-4.76 2.795-.301.14-.294.456-.29.648v.003l.002.038v.004a8548.646 8548.646 0 0 1-.02 11l-.01 4.05c-.018.243.09.449.272.533a7674.3 7674.3 0 0 1 8.428 4.803l4.969 2.834a.63.63 0 0 0 .327.108.372.372 0 0 0 .234-.08l7.208-4.16 2.687-1.552.146-.084c1.1-.636 2.2-1.27 3.295-1.901.23-.104.365-.333.337-.549l.023-15.32c.033-.352-.262-.516-.44-.61zm-13.514.965l5.927 3.457-5.918 3.42-2.015-1.143-1.991-1.129-1.991-1.129 5.988-3.476zm.299-.764l6.436 3.753 5.998-3.467c-.761-.44-1.522-.877-2.283-1.315l-.128-.074h-.001l-2.412-1.39a2648.26 2648.26 0 0 1-7.9-4.549c-2.87 1.678-5.736 3.355-8.601 5.037L3.295 8.363l5.922 3.355 6.521-3.786a.514.514 0 0 1 .58.014zm-13.43 1.12l5.895 3.345.121 7.38c-.014.229.098.435.276.515a1363.361 1363.361 0 0 0 3.922 2.258l2.515 1.448-.005 6.892L2.86 23.632l.028-14.566zm12.738 7.225l-6.025-3.416.112 6.803 5.904 3.401.01-6.788zm.804 7.725l2.52-1.447c.665-.385 1.332-.768 2-1.152l.027-.015.106-.06c.582-.335 1.166-.67 1.751-1.008l.038-.024a.706.706 0 0 0 .229-.192l.037-.051v-.061a422.16 422.16 0 0 1-.01-4.887l.002-.9c0-.6.002-1.199-.001-1.798l6.03-3.486-.01 5.945-.014 8.682a5055.79 5055.79 0 0 0-4.888 2.819l-.225.13-.156.09-2.813 1.623-4.632 2.675.01-6.883zm.005-7.725l-.005 6.793c1.982-1.143 3.964-2.282 5.941-3.415V12.86l-5.936 3.43z"/><path d="M15.846 1.705a.52.52 0 0 0-.407.296c-.08.173-.07.36.028.5a.53.53 0 0 0 .453.24c.033 0 .07-.005.108-.01.22-.037.383-.187.42-.379a.491.491 0 0 0-.12-.478.526.526 0 0 0-.482-.169zm.341 2.235a.538.538 0 0 0-.556.014.522.522 0 0 0-.253.403.49.49 0 0 0 .169.422.51.51 0 0 0 .36.14c.08 0 .159-.018.233-.051a.504.504 0 0 0 .318-.464.505.505 0 0 0-.271-.464zm-.542 2.179a.546.546 0 0 1 .565.019.519.519 0 0 1 .248.478.5.5 0 0 1-.313.426.584.584 0 0 1-.234.051.526.526 0 0 1-.332-.112.495.495 0 0 1-.2-.45.495.495 0 0 1 .266-.412zM7.53 20.489a.52.52 0 0 0-.365.398.513.513 0 0 0 .169.51.473.473 0 0 0 .434.108.498.498 0 0 0 .36-.295.513.513 0 0 0-.089-.567c-.13-.155-.327-.21-.51-.155zm16.632 1.016a.44.44 0 0 1-.131.019.437.437 0 0 1-.323-.131.525.525 0 0 1-.168-.506.51.51 0 0 1 .35-.403.493.493 0 0 1 .524.15.527.527 0 0 1 .089.58.474.474 0 0 1-.341.291zm-18.492.09a.505.505 0 0 0-.332.444.534.534 0 0 0 .247.51.482.482 0 0 0 .253.076.537.537 0 0 0 .22-.052.486.486 0 0 0 .29-.374.53.53 0 0 0-.188-.516.458.458 0 0 0-.49-.089zm20.357.992a.498.498 0 0 1-.496-.08.532.532 0 0 1-.182-.505.522.522 0 0 1 .337-.413.485.485 0 0 1 .504.108.51.51 0 0 1 .16.516.489.489 0 0 1-.323.374zm-21.76.136a.484.484 0 0 0-.49 0 .526.526 0 0 0-.267.469.516.516 0 0 0 .5.525.529.529 0 0 0 .28-.085.511.511 0 0 0 .244-.464.498.498 0 0 0-.267-.445zm23.4.994a.457.457 0 0 1-.303-.118.502.502 0 0 1-.197-.44.531.531 0 0 1 .257-.436.465.465 0 0 1 .524.014.52.52 0 0 1 .234.525c-.01.164-.136.333-.318.412a.494.494 0 0 1-.197.043z"/></g></symbol><symbol viewBox="0 0 32 32" id="svg-sprite--icon" xmlns="http://www.w3.org/2000/svg"><path fill-rule="evenodd" clip-rule="evenodd" d="M19.673 9.086l3.404-3.4a12.33 12.33 0 0 0-7.323-2.397C8.91 3.29 3.362 8.84 3.362 15.681c0 2.74.888 5.273 2.392 7.324l3.401-3.4A7.657 7.657 0 0 1 8.08 15.68a7.671 7.671 0 0 1 7.67-7.67c1.435 0 2.775.39 3.923 1.075zm-3.92 14.266a7.671 7.671 0 0 0 6.584-11.61l3.401-3.402a12.34 12.34 0 0 1 2.407 7.341c0 6.843-5.548 12.392-12.391 12.392a12.34 12.34 0 0 1-7.342-2.407l3.404-3.4a7.626 7.626 0 0 0 3.938 1.086z"/><path d="M31.982 3.23a3.229 3.229 0 1 1-6.458 0 3.229 3.229 0 0 1 6.458 0zM6.455 28.753a3.229 3.229 0 1 1-6.457 0 3.229 3.229 0 0 1 6.457 0z"/></symbol><symbol viewBox="0 0 32 32" id="svg-sprite--kyber" xmlns="http://www.w3.org/2000/svg"><path opacity=".815" fill-rule="evenodd" clip-rule="evenodd" d="M14.729 13.856a.699.699 0 0 1-.122.07l.24 15.684 8.238-6.862-8.356-8.892z"/><path opacity=".5" fill-rule="evenodd" clip-rule="evenodd" d="M15.01 13.422l8.234 8.747.246-13.477-8.508 4.332a.737.737 0 0 1 .027.398"/><path opacity=".2" fill-rule="evenodd" clip-rule="evenodd" d="M14.589 12.605l8.781-4.521-8.781-6.648v11.169z"/><path opacity=".5" fill-rule="evenodd" clip-rule="evenodd" d="M13.61 13.272a.71.71 0 0 1 .434-.66V1.493L8.28 7.955a.72.72 0 0 1-.119.634L9.6 22.65l4.698 6.785-.236-15.493a.71.71 0 0 1-.451-.669"/><path fill-rule="evenodd" clip-rule="evenodd" d="M14.599 31.994a.612.612 0 0 0 .605-.614.612.612 0 0 0-.605-.615.612.612 0 0 0-.606.615c0 .337.273.614.606.614m9.381-7.831a.612.612 0 0 0 .605-.614.612.612 0 0 0-.606-.615.612.612 0 0 0-.605.615c0 .337.273.614.605.614m-14.809 0a.612.612 0 0 0 .605-.614.612.612 0 0 0-.605-.615.612.612 0 0 0-.606.615c0 .337.273.614.606.614M7.605 8.773a.612.612 0 0 0 .606-.615.612.612 0 0 0-.606-.615.612.612 0 0 0-.605.615c0 .337.273.615.605.615zm6.718 5.119a.612.612 0 0 0 .605-.615.612.612 0 0 0-.605-.615.612.612 0 0 0-.606.615c0 .337.273.615.606.615m9.942-5.119a.612.612 0 0 0 .605-.615.612.612 0 0 0-.605-.615.612.612 0 0 0-.605.615c0 .337.272.615.605.615"/><mask id="asa" maskUnits="userSpaceOnUse" x="13" y="0" width="2" height="2"><path fill-rule="evenodd" clip-rule="evenodd" d="M0 0h1.21v1.234H0V0z" transform="translate(13.717 .013)"/></mask><g mask="url(#asa)"><path fill-rule="evenodd" clip-rule="evenodd" d="M14.323 1.247a.612.612 0 0 0 .605-.615.616.616 0 0 0-.605-.62.612.612 0 0 0-.606.615c0 .338.273.62.606.62"/></g></symbol><symbol viewBox="0 0 32 32" id="svg-sprite--maidsafe" xmlns="http://www.w3.org/2000/svg"><path d="M24.14 10.575v21.41L6.046 21.48C.734 18.421 1.132 16.426 1 12.17l18.614 10.773v-9.842l4.522-2.526h.004z"/><path opacity=".6" d="M19.614 22.943L1 12.17 19.087 1.795c5.315-3.056 6.782-1.725 10.638.409L11.107 12.968l8.507 4.922v5.053z"/><path opacity=".4" d="M11.107 12.968L29.732 2.202v20.751c0 6.25-1.868 6.782-5.586 9.043V10.574l-8.478 5.038-4.561-2.644z"/></symbol><symbol viewBox="0 0 32 32" id="svg-sprite--nebulas" xmlns="http://www.w3.org/2000/svg"><path fill-rule="evenodd" clip-rule="evenodd" d="M4.592 13.707C3.087 14.447 1.588 15.19 0 15.98l.132.052c.115.044.197.076.285.105l.022.008a1846.19 1846.19 0 0 0 8.862 3.006c.324.108.51.29.657.588a2626.12 2626.12 0 0 0 4.76 9.68l.562 1.14c.215.441.436.882.696 1.397.039-.105.067-.175.09-.232l.037-.096.57-1.671c.815-2.392 1.63-4.783 2.43-7.18.131-.397.337-.632.714-.818 2.701-1.32 5.397-2.65 8.093-3.982l3.36-1.659c.123-.058.244-.12.38-.19l.301-.152-.176-.063-.25-.09-2.965-1.008c-1.973-.67-3.946-1.34-5.915-2.02-.216-.073-.47-.235-.564-.426a3222.564 3222.564 0 0 1-4.791-9.69L16.206.48A15.87 15.87 0 0 0 15.96 0l-.08.21-.072.187-.563 1.658c-.823 2.423-1.647 4.85-2.46 7.275a.941.941 0 0 1-.53.603c-2.538 1.245-5.07 2.494-7.603 3.743l-.061.03zm13.112-7.68l-.107-.216-1.455-2.95c-1.185 3.505-2.351 6.95-3.525 10.415l-.424 1.254-1.098 3.244c1.7-.842 3.377-1.67 5.045-2.495l.12-.059.068-.034c1.581-.78 3.155-1.558 4.739-2.342l-3.363-6.818zM2.872 15.808c1.283.435 2.539.86 3.787 1.285l.186.063 2.946 1c.368-1.09.735-2.17 1.103-3.256l.023-.068 1.221-3.606c-2.034 1.01-4.024 1.992-6.021 2.979l-.064.031-.022.01-.17.085-2.99 1.477zm8.355 4.023l1.25 2.535.106.214c1.071 2.174 2.13 4.321 3.211 6.518.328-.966.649-1.917.968-2.862.46-1.361.917-2.71 1.38-4.072l-6.915-2.333zm.504-1.024c-.027-.016-.06-.036-.102-.059.457-.225.885-.44 1.303-.649l.02-.01.004-.002.412-.206 2.165-1.068c1.99-.983 3.979-1.965 5.975-2.936a.987.987 0 0 1 .691-.044c1.561.514 3.115 1.042 4.668 1.569h.003l.053.019.087.03 1.677.568c.077.024.153.055.274.103l.084.034c-.789.397-1.514.76-2.24 1.117l-1.106.546a1849.856 1849.856 0 0 1-6.553 3.223c-.176.088-.436.137-.617.078-2.235-.74-4.465-1.5-6.694-2.26a.62.62 0 0 1-.104-.053z"/></symbol><symbol viewBox="0 0 32 32" id="svg-sprite--obsidian" xmlns="http://www.w3.org/2000/svg"><path fill-rule="evenodd" clip-rule="evenodd" d="M15.972 30.227c-7.885-.001-14.254-6.374-14.25-14.257C1.727 8.126 8.13 1.78 16.03 1.787c7.83.007 14.2 6.389 14.2 14.225 0 7.85-6.385 14.216-14.258 14.215zm.06-29.16C7.723 1.041 1 7.736 1 15.996c0 8.238 6.698 14.947 14.929 14.953 8.292.006 15.013-6.667 15.022-14.908.008-8.248-6.644-14.951-14.918-14.976zm7.307 5.87c-1.065-.818-2.298-1.132-3.618-1.134-1.512-.002-2.958.342-4.353.906a21.344 21.344 0 0 0-5.208 3.034c-1.196.94-2.293 1.974-3.15 3.241-.912 1.348-1.47 2.809-1.48 4.453-.004.627.052 1.247.246 1.845.379 1.171 1.03 2.18 1.878 3.065.987 1.03 2.16 1.794 3.443 2.407 1.928.922 3.941 1.27 6.062.949a8.351 8.351 0 0 0 3.764-1.541c.15-.111.294-.233.44-.35-.284.08-.546.193-.81.303-.589.244-1.19.449-1.834.48-1.024.05-1.999-.172-2.933-.579-1.353-.589-2.505-1.456-3.52-2.518-.564-.592-1.022-1.237-1.23-2.046-.211-.821-.405-1.642-.245-2.496.109-.584.196-1.178.37-1.744.31-1.017.89-1.891 1.588-2.687.911-1.039 2.019-1.826 3.215-2.501 1.43-.807 2.93-1.411 4.565-1.665 1.272-.197 2.425.088 3.48.802a4.921 4.921 0 0 1 1.683 1.964l.062-.018c-.175-.525-.327-1.06-.53-1.575-.405-1.022-1.003-1.916-1.885-2.595zm-.206 2.758c-1.146-.597-2.343-.727-3.6-.419-1.717.422-3.25 1.196-4.572 2.367-2.071 1.834-3.052 4.14-2.954 6.901.003.082.008.164.012.245.134-.339.23-.677.328-1.015.21-.727.437-1.453.858-2.089 1.507-2.278 3.625-3.366 6.368-3.192.892.057 1.63.446 2.21 1.13.523.617.834 1.334.984 2.121.167.872.134 1.755.004 2.621-.267 1.78-1.123 3.244-2.524 4.382-.269.218-.564.402-.847.602l.016.048c.39-.146.796-.261 1.17-.443 1.895-.92 3.171-2.408 3.924-4.356.577-1.495.811-3.053.798-4.65a5.632 5.632 0 0 0-.53-2.387c-.368-.779-.858-1.456-1.645-1.866z"/></symbol><symbol viewBox="0 0 32 32" id="svg-sprite--oceanx" xmlns="http://www.w3.org/2000/svg"><g fill-rule="evenodd" clip-rule="evenodd"><path opacity=".6" d="M11.047 20.174c0 5.15 5.533 10.336 12.03 8.272a.555.555 0 0 0-.372-.143c-3.232-.06-6.772-2.318-6.772-5.963 0-2.02.54-3.45 1.55-4.537-1.35-1.245-2.569-2.766-3.854-4.16-1.626 1.55-2.582 3.741-2.582 6.53"/><path opacity=".4" d="M6.108 18.11c0-3.443 1.071-5.977 3.09-7.942a7.216 7.216 0 0 0-2.864-.586c-1.622 0-4.242.744-5.13 3.923A14.816 14.816 0 0 0 1 15.955c0 8.26 6.809 14.956 15.208 14.956 2.417 0 4.702-.554 6.73-1.54a.548.548 0 0 0 .321-.503c-8.84 3.17-17.151-2.822-17.151-10.757"/><path opacity=".5" d="M23.077 28.446c-6.497 2.064-12.03-3.122-12.03-8.273 0-2.789.956-4.98 2.582-6.53-1.333-1.446-2.736-2.754-4.43-3.475-2.02 1.965-3.091 4.5-3.091 7.943 0 7.935 8.31 13.927 17.151 10.757a.57.57 0 0 0-.182-.422"/><path d="M6.334 9.582c7.449 0 9.57 10.81 16.915 10.81 4.42 0 8.6-3.412 7.557-8.644C29.59 5.642 23.122 1 16.208 1 8.658 1 2.394 6.411 1.204 13.505c.888-3.18 3.508-3.923 5.13-3.923"/><path opacity=".4" d="M16.242 19.993a5.425 5.425 0 0 1 1.241-2.19c-1.35-1.245-2.569-2.766-3.854-4.16-1.332-1.446-2.736-2.754-4.43-3.475a7.216 7.216 0 0 0-2.865-.586c-1.512 0-3.89.647-4.925 3.31 1.123-.98 2.515-1.266 3.522-1.266 5.157 0 7.76 5.179 11.31 8.367"/></g></symbol><symbol viewBox="0 0 32 32" id="svg-sprite--polkadot" xmlns="http://www.w3.org/2000/svg"><path fill-rule="evenodd" clip-rule="evenodd" d="M19.551 1.731c3.818 1.326 4.72 4.631 3.818 7.871-1.031 3.707-5.1 6.6-9.242 6.638-.587.006-.813.143-.951.696-.81 3.242-1.63 6.482-2.53 9.703-.804 2.873-3.132 4.473-6.317 4.355.11-.426.22-.846.329-1.262.234-.891.463-1.765.67-2.643.436-1.848.865-3.698 1.295-5.547.685-2.95 1.37-5.9 2.078-8.846.56-2.325 1.14-4.651 1.868-6.933.646-2.023 2.75-2.744 4.797-1.82.498.226.682.464.54 1.045-.606 2.49-1.168 4.99-1.73 7.49l-.42 1.86c-.029.126-.035.256-.044.45-.005.112-.011.246-.024.412.27-.11.531-.204.78-.294.511-.185.975-.352 1.375-.606 2.257-1.43 3.409-3.54 3.793-5.982.16-1.022.083-2.132-.17-3.14-.379-1.518-1.549-2.446-3.232-2.598-4.76-.428-8.455 1.614-9.877 5.463-.56 1.516-.516 3.062.072 4.672l-.07-.003c-1.373-.049-2.689-.096-3.6-1.122-.95-1.07-.914-2.335-.409-3.563.747-1.817 2.215-3.091 3.9-4.15 2.876-1.806 6.008-2.99 9.53-2.868 1.269.043 2.58.309 3.771.722zm-2.55 22.835c-.055-3.193 2.88-6.438 6.705-6.272 3.305.143 6.385 2.828 6.292 6.481-.09 3.551-2.96 6.255-6.68 6.212-3.546-.041-6.355-2.897-6.317-6.421z"/></symbol><symbol viewBox="0 0 32 32" id="svg-sprite--raiden" xmlns="http://www.w3.org/2000/svg"><path fill-rule="evenodd" clip-rule="evenodd" d="M18.104.08H6c.096.057.197.1.298.145l.09.039c2.314 1.061 4.533 2.372 6.503 4.02 1.808 1.523 3.405 3.36 4.547 5.484 1.07 1.985 1.743 4.226 1.809 6.51 0 .322 0 .645-.037.967h6.173a21.35 21.35 0 0 0-.967-7.162 23.971 23.971 0 0 0-2.943-6.121c-.894-1.34-1.904-2.6-3.054-3.713a.722.722 0 0 1-.07-.065c-.067-.067-.136-.136-.245-.103zm-1.082 23.926a5863.97 5863.97 0 0 0-6.203-11.694v19.661c1.286-.857 2.567-1.715 3.849-2.574 1.281-.859 2.563-1.717 3.848-2.574a992.73 992.73 0 0 0-1.494-2.819z"/></symbol><symbol viewBox="0 0 32 32" id="svg-sprite--rchain" xmlns="http://www.w3.org/2000/svg"><path fill-rule="evenodd" clip-rule="evenodd" d="M23.029 2.82a15.005 15.005 0 0 0-8.575-1.69A14.995 14.995 0 0 0 2.8 8.916a14.907 14.907 0 0 0-1.783 7.756A14.858 14.858 0 0 0 4.82 25.99a14.786 14.786 0 0 0 4.912 3.636 15.029 15.029 0 0 0 8.09 1.255 14.936 14.936 0 0 0 8.084-3.647 14.921 14.921 0 0 0 3.652-4.896 15.004 15.004 0 0 0 1.281-8.154 14.977 14.977 0 0 0-7.81-11.364zM9.284 8.158c1.104.048 2.116.673 2.773 1.546a10.372 10.372 0 0 1 5.381-2.052c.2-.038.415.086.41.307.01.374.009.75.007 1.126l-.002.446c.016.162-.07.372-.259.377-1.723.194-3.366.9-4.793 1.875-.127.068-.113.215-.1.338l.003.039c.065.59.06 1.181.055 1.773-.003.332-.006.664.004.995 2.327.006 4.653.004 6.98.003 2.328-.001 4.656-.003 6.986.003.22-.022.452.107.436.355.017 1.008.015 2.015.012 3.023-.001.56-.003 1.12-.001 1.679 0 .851-.178 1.734-.695 2.43-.819 1.092-2.246 1.75-3.609 1.507-.964-.145-1.798-.743-2.38-1.502a10.461 10.461 0 0 1-5.467 2.073.335.335 0 0 1-.323-.388c.005-.235.003-.47.002-.706-.002-.314-.004-.628.009-.942.037-.225.254-.245.448-.263.061-.005.12-.01.171-.022 1.632-.253 3.194-.937 4.524-1.907a36.28 36.28 0 0 1-.07-3.06c-2.853-.019-5.71-.017-8.564-.014-1.817.001-3.634.003-5.45-.001-.205.021-.404-.13-.382-.35a762.044 762.044 0 0 1 0-4.955c.005-.868.28-1.74.85-2.397.755-.857 1.891-1.406 3.044-1.336z"/><path d="M7.576 12.238c.022-.883.83-1.659 1.713-1.621.905-.016 1.723.78 1.745 1.686.022.942.005 1.885.005 2.827-1.152.027-2.305.011-3.463.011v-2.903zm14.36 5.01c1.152 0 2.305-.005 3.457.006.011.92.006 1.842.006 2.768.005.7-.431 1.4-1.099 1.648-.722.28-1.605.006-2.047-.63a1.712 1.712 0 0 1-.317-1.029c0-.92-.006-1.842 0-2.763"/></symbol><symbol viewBox="0 0 32 32" id="svg-sprite--republic" xmlns="http://www.w3.org/2000/svg"><path fill-rule="evenodd" clip-rule="evenodd" d="M8.986 5.947l8.578-5.02a9.029 9.029 0 0 1-.153-.096l-.377-.22c-.306-.179-.613-.357-.917-.54-.094-.057-.16-.05-.25.003-3.159 1.851-6.319 3.7-9.478 5.55l-1.475.863-.338.198c-.818.479-1.636.957-2.453 1.439-.046.027-.098.08-.107.128a.88.88 0 0 0-.007.198l.002.107L6.026 6.21l.316.55 2.327-1.361.317.55zm10.776-3.731l-8.576 5.019-.317-.55-4.524 2.647-.321-.547-3.985 2.33c-.076-.27-.05-.343.168-.47l13.637-7.979.495-.289h.002c.556-.325 1.112-.65 1.664-.981.136-.082.233-.09.371-.005.286.178.578.347.869.516l.002.001.014.008.355.207c.028.016.056.034.089.056l.057.037zm2.197 1.289l-8.573 5.017-.317-.55-6.725 3.935-.319-.549L2.04 13.69c-.079-.268-.05-.342.178-.476l10.625-6.217 4.281-2.505.26-.152.027-.016 2.865-1.678c.07-.04.125-.07.21-.019a103.173 103.173 0 0 0 1.413.832c.01.006.02.013.033.024l.002.001.001.002h.002l.022.019zM2.034 16.268c-.09-.27.028-.395.24-.518C7.3 12.816 12.322 9.876 17.345 6.937L19.63 5.6l.459-.269c.791-.463 1.582-.925 2.371-1.392.098-.057.17-.058.265 0 .344.206.69.408 1.048.616l.006.004.39.227-8.583 5.023-.318-.55-8.923 5.222-.322-.546-3.989 2.333zM26.37 6.074l-8.523 4.988-.318-.55-11.185 6.545-.317-.55-3.99 2.335c-.07-.29-.05-.343.172-.472l5.92-3.464.301-.176.132-.078 1.221-.714 7.64-4.47.818-.48.03-.016.007-.005.04-.024c2.098-1.227 4.195-2.454 6.29-3.685.136-.08.234-.087.371-.003.321.198.647.387.985.583l.003.001.002.002.006.003.395.23zm2.186 1.296l-8.51 4.98-.317-.55-13.384 7.832-.318-.55-4.015 2.35c0-.038-.002-.074-.003-.107a.786.786 0 0 1 .008-.197c.012-.053.069-.108.12-.138 1.14-.67 2.282-1.339 3.423-2.007l.342-.2 3.64-2.13 10.52-6.157c2.276-1.331 4.551-2.663 6.829-3.99.047-.029.132-.042.175-.018.397.225.79.456 1.184.687l.005.003.243.142c.01.006.02.015.032.026a.848.848 0 0 0 .026.024zM6.341 22.208l-.316-.55-4.008 2.344a2.337 2.337 0 0 1-.002-.062.691.691 0 0 0-.006-.094c-.024-.153.035-.239.172-.317.803-.463 1.603-.931 2.403-1.4l.672-.394 1.5-.878.875-.511.633-.371.425-.248.338-.198 11.445-6.698.496-.29c2.693-1.576 5.387-3.152 8.079-4.731.105-.062.184-.073.29-.003.089.06.181.113.274.166h.001c.09.053.18.105.267.162.048.032.09.109.093.167.006.111.005.223.004.334 0 .108-.001.215.003.322.006.115-.035.176-.132.232-1.313.765-2.626 1.534-3.938 2.302l-.605.354-2.3 1.347-2.842 1.663c-.023.014-.047.026-.074.04h-.001l-.046.024-.313-.546-13.387 7.834zM29.977 9.843v.378c.001.477.001.939-.005 1.4 0 .047-.07.107-.12.137-1.118.657-2.237 1.312-3.355 1.966l-.519.303-5.784 3.385-.127.074-.01.005-.073.043-.316-.55-13.363 7.82-.32-.547-.24.14a193.587 193.587 0 0 0-.847.493l-.003.002c-.326.19-.653.379-.974.576-.137.084-.247.1-.37-.005-.02-.017-.044-.031-.073-.049a2.03 2.03 0 0 1-.053-.032L29.977 9.843zM8.228 25.523l.316.546 11.124-6.51.317.546.052-.029.003-.001.09-.05 1.009-.591.941-.551 1.148-.672 6.601-3.86c.11-.064.155-.131.153-.266A45.039 45.039 0 0 1 29.977 13V12.417L5.637 26.662c.177.167.326.199.54.066.453-.283.915-.55 1.378-.818l.527-.307.096-.053h.002l.048-.027zm11.44-3.39l.317.548.055-.031.002-.001.005-.003.004-.002.073-.042 1.502-.88 2.479-1.45.17-.1.04-.023c1.84-1.077 3.68-2.154 5.523-3.228.1-.058.145-.117.143-.241a56.22 56.22 0 0 1-.004-1.095V15.131c0-.025-.003-.05-.005-.08a2.665 2.665 0 0 1-.005-.052L7.84 27.948c.261.218.262.218.528.062l1.951-1.14a.919.919 0 0 1 .071-.037l.003-.001.037-.018.312.543 8.926-5.223zm10.31-4.173v-.392l-19.941 11.67c.269.212.269.213.531.06l.757-.443 1.168-.683c.028-.017.058-.031.09-.046l.005-.004h.003l.04-.02.311.542 6.727-3.936.314.548.056-.031.001-.001.004-.002.002-.001.003-.002h.001l.082-.047 6.948-4.066.588-.344c.73-.427 1.46-.854 2.19-1.284.052-.031.114-.102.115-.156.006-.438.006-.876.005-1.33v-.032zm-10.31 9.323l.316.547.064-.035.103-.059 1.479-.865.037-.022 2.077-1.216.86-.503.004-.002.032-.02.01-.004v-.001c1.72-1.006 3.44-2.012 5.162-3.015.128-.074.173-.154.17-.304a41.169 41.169 0 0 1-.006-1.036v-.143l.001-.306c0-.029-.002-.058-.005-.092l-.005-.058-17.729 10.375c.268.215.268.215.533.06l.001-.001 1.149-.672.533-.312.086-.05.284-.166.321.546 4.524-2.646zm10.296-4.558L14.439 31.81c.256.215.266.216.515.07l1.656-.97.275-.157h.001l.01-.006.132-.075.314.546 2.325-1.359.316.541.029-.012v-.001c.018-.008.033-.014.047-.023l1.797-1.05c2.674-1.565 5.349-3.13 8.024-4.693.08-.047.1-.101.099-.187-.002-.338-.002-.675-.002-1.012V22.854a.61.61 0 0 0-.007-.08v-.001l-.006-.048z"/></symbol><symbol viewBox="0 0 32 32" id="svg-sprite--request" xmlns="http://www.w3.org/2000/svg"><path d="M6.016 0H16.18c1.027.166 2.081.018 3.1.24 2.272.426 4.329 1.883 5.522 3.897 1.412 2.333 1.597 5.375.522 7.882-.972 2.307-3.006 4.113-5.383 4.767-1.509.445-3.093.279-4.643.31 2.654 4.484 5.304 8.973 7.947 13.467-.692.493-1.54.79-2.112 1.437h-.09c-3.437-5.865-6.91-11.71-10.36-17.567 2.45-.013 4.9.02 7.35-.016 2.826-.079 5.298-2.627 5.357-5.51.186-2.491-1.399-4.974-3.715-5.794-.96-.382-2.006-.364-3.021-.353-3.547 0-7.093 0-10.64-.002"/></symbol><symbol viewBox="0 0 32 32" id="svg-sprite--sentinel" xmlns="http://www.w3.org/2000/svg"><path fill-rule="evenodd" clip-rule="evenodd" d="M21.625 26.905c.978 0 1.664-.934 1.342-1.845a.482.482 0 0 1 .048-.455c1.382-2.34 2.758-4.684 4.132-7.03.107-.182.223-.3.448-.361a1.377 1.377 0 0 0 1.018-1.42c-.042-.653-.546-1.178-1.216-1.303a.542.542 0 0 1-.316-.242c-1.36-2.297-2.713-4.598-4.057-6.905a.595.595 0 0 1-.038-.421c.188-.649-.068-1.322-.651-1.647-.586-.326-1.299-.206-1.777.279a.578.578 0 0 1-.369.158c-2.745.01-5.491.01-8.237 0a.612.612 0 0 1-.39-.17 1.474 1.474 0 0 0-1.755-.273c-.589.32-.855.989-.677 1.636a.566.566 0 0 1-.055.395 1249.23 1249.23 0 0 1-4.103 6.98.498.498 0 0 1-.307.206c-.709.123-1.218.658-1.245 1.335-.026.69.42 1.25 1.122 1.436a.585.585 0 0 1 .329.231c1.408 2.382 2.808 4.768 4.2 7.16a.64.64 0 0 1 .06.446c-.179.647.086 1.313.678 1.634a1.462 1.462 0 0 0 1.772-.298.602.602 0 0 1 .385-.183c2.736-.012 5.472-.013 8.208-.004.121 0 .27.084.36.174.303.307.653.485 1.091.487zM16.02 2.003h6.415c1.203 0 2.107.513 2.708 1.536 2.129 3.62 4.254 7.24 6.385 10.858.645 1.095.621 2.161-.026 3.254a2926.863 2926.863 0 0 0-6.34 10.783C24.546 29.482 23.634 30 22.41 30c-4.276 0-8.553.001-12.83-.002-1.176 0-2.078-.495-2.67-1.499C4.74 24.815 2.57 21.13.414 17.437c-.549-.94-.552-1.926-.002-2.868A3192.25 3192.25 0 0 1 6.907 3.506C7.517 2.47 8.452 1.996 9.664 2c2.118.008 4.237.002 6.356.003zm-4.094 23.252c-.155-.528-.45-.949-1.02-1.087a1.926 1.926 0 0 0-.75-.018c-.175.029-.245-.002-.32-.142-.12-.23-.26-.45-.403-.696.576-.33 1.141-.654 1.708-.976 2.926-1.664 5.853-3.328 8.777-4.994.145-.083.252-.124.42-.018a1.394 1.394 0 0 0 1.706-.168c.478-.451.59-1.14.277-1.697a1.445 1.445 0 0 0-1.632-.681c-.625.169-1.07.734-1.054 1.37.004.162-.021.257-.176.345-3.447 1.953-6.89 3.914-10.334 5.872-.058.033-.121.056-.197.09-1.069-1.816-2.131-3.624-3.19-5.426.715-.949.728-1.358.067-2.217L9.925 7.8c.432.14.861.151 1.271-.076.403-.222.625-.572.725-1.019h8.26c.31 1.005 1.045 1.355 1.979 1.121l.701 1.189c-.493.274-.976.545-1.46.812-2.905 1.602-5.812 3.203-8.715 4.81-.166.09-.27.093-.436-.02-.674-.461-1.622-.248-2.024.433a1.394 1.394 0 0 0 .584 1.978 1.44 1.44 0 0 0 1.952-.69c.043-.096.094-.205.085-.302-.031-.347.177-.49.451-.64 3.295-1.807 6.583-3.625 9.873-5.439.05-.028.104-.051.187-.092l2.893 4.916c-.695.902-.677 1.505.081 2.248-1.394 2.373-2.793 4.755-4.19 7.13-1.138-.13-1.52.085-1.954 1.095h-8.262z"/></symbol><symbol viewBox="0 0 32 32" id="svg-sprite--sonm" xmlns="http://www.w3.org/2000/svg"><path fill-rule="evenodd" clip-rule="evenodd" d="M16 30.993c-8.274-.025-15-6.739-15-14.997S7.726 1.025 16 1c8.274.025 15 6.738 15 14.996s-6.726 14.98-15 14.997zm13.302-12.61a1.513 1.513 0 0 1-1.971.8c.53.554.861 1.297.861 2.115 0 .24-.033.462-.083.685.564-1.139.965-2.35 1.193-3.6zm-.638-.603a.753.753 0 0 1-.754.752.755.755 0 0 1-.753-.752.753.753 0 0 1 1.507 0zm-.414-7.465c.24.68.364 1.394.365 2.114a6.29 6.29 0 0 1-1.49 4.071c.223-.132.488-.223.778-.223.787 0 1.433.603 1.499 1.38.066-.546.107-1.09.107-1.652.01-1.967-.42-3.91-1.259-5.69zm-5.988-3.097c2.882 0 5.218 2.337 5.218 5.203 0 2.865-2.344 5.202-5.218 5.202-2.883 0-5.218-2.337-5.218-5.202 0-2.874 2.344-5.203 5.218-5.203zm-.207 14.08c0-1.132.627-2.171 1.631-2.7a6.352 6.352 0 0 1-3.818-.298 6.34 6.34 0 0 1 2.187 3.114.316.316 0 0 0 .001-.084.383.383 0 0 1-.001-.032zm.116 3.502a6.3 6.3 0 0 0 .182-1.487 5.385 5.385 0 0 0-.067-.826c.282.66.786 1.2 1.425 1.528a1.052 1.052 0 0 0-.232-.025 1.466 1.466 0 0 0-1.308.81zm2.948-1.578a1.936 1.936 0 0 0 1.938-1.924c0-1.065-.87-1.924-1.938-1.924a1.93 1.93 0 0 0-1.93 1.924 1.93 1.93 0 0 0 1.931 1.924zm1.466-6.16a1.486 1.486 0 0 0 .1 1.61 3.048 3.048 0 0 0-1.566-.43c-.14 0-.272.017-.403.033h-.003a6.57 6.57 0 0 0 1.872-1.213zm-10.586-.091c.818 0 1.628.156 2.385.462A6.3 6.3 0 0 1 16 13.453a6.315 6.315 0 0 1-2.385 3.98A6.522 6.522 0 0 1 16 16.971zm-1.631-8.886a3.041 3.041 0 0 0 1.631.471H16a3.041 3.041 0 0 0 1.632-.47A6.354 6.354 0 0 0 16 11.371a6.262 6.262 0 0 0-1.632-3.287zm4.729-2.617c0 .691-.234 1.363-.663 1.907a6.315 6.315 0 0 1 2.154-1.057.3.3 0 0 0-.047.005l-.036.003a1.516 1.516 0 0 1-1.408-.958.22.22 0 0 0-.001.066l.002.034h-.001zm2.916-.66c0-.471-.224-.884-.564-1.165h.001a13.687 13.687 0 0 1 5.656 4.674 6.363 6.363 0 0 0-4.845-2.238 6.634 6.634 0 0 0-1.151.107c.549-.24.903-.78.903-1.379zm-1.516-.744a.753.753 0 1 0-.004 1.506.753.753 0 0 0 .005-1.506h-.001zm-1.507.627a3.086 3.086 0 0 0-2.054-2.172c1.292.1 2.543.364 3.702.793a.916.916 0 0 0-.149-.016c-.795 0-1.44.619-1.499 1.395zm-4.945.777a1.955 1.955 0 0 0 3.91-.001 1.955 1.955 0 0 0-3.91 0zm-2.542-2.172a.915.915 0 0 0-.15.016c1.168-.43 2.41-.693 3.703-.793a3.086 3.086 0 0 0-2.054 2.172 1.5 1.5 0 0 0-1.5-1.395zm1.4 2.172a.403.403 0 0 1 .007-.1c-.223.562-.77.958-1.408.958a.33.33 0 0 1-.047-.004.233.233 0 0 0-.035-.004 6.39 6.39 0 0 1 2.153 1.057 3.04 3.04 0 0 1-.67-1.907zm-1.4.099a.753.753 0 0 1-.754-.752.753.753 0 1 1 .754.752zm-6.61 2.758a6.337 6.337 0 0 1 5.996-2.13 1.497 1.497 0 0 1-.34-2.543 13.564 13.564 0 0 0-5.656 4.673zm4.845 9.298c-2.882 0-5.218-2.337-5.218-5.202 0-2.866 2.344-5.195 5.218-5.203 2.883 0 5.218 2.337 5.218 5.203 0 2.873-2.344 5.202-5.218 5.202zm.207 3.675a.513.513 0 0 1-.004.054.503.503 0 0 0-.004.053 6.377 6.377 0 0 1 2.187-3.113 6.352 6.352 0 0 1-3.819.297 3.066 3.066 0 0 1 1.64 2.709zm-4.638-2.626a1.44 1.44 0 0 0 .1-1.61c.545.514 1.18.925 1.871 1.214a2.182 2.182 0 0 0-.405-.033 3.046 3.046 0 0 0-1.566.429zm-.365 2.626a1.93 1.93 0 0 0 3.86 0 1.93 1.93 0 0 0-1.93-1.924 1.924 1.924 0 0 0-1.93 1.924zm3.411 2.707l-.073.01a3.05 3.05 0 0 0 1.417-1.536 6.939 6.939 0 0 0-.058.834c.001.5.062 1 .182 1.486a1.466 1.466 0 0 0-1.309-.809c-.056 0-.108.008-.159.015zM2.59 17.648a1.51 1.51 0 0 1 1.5-1.379 1.5 1.5 0 0 1 .778.223 6.29 6.29 0 0 1-1.491-4.071 6.4 6.4 0 0 1 .364-2.114 13.343 13.343 0 0 0-1.151 7.341zm.746.14a.753.753 0 1 1 1.505.003.753.753 0 0 1-1.505-.003zm.472 3.51c0-.79.309-1.548.862-2.114a1.52 1.52 0 0 1-1.971-.801 13.39 13.39 0 0 0 1.192 3.6 3.074 3.074 0 0 1-.083-.685zm3.875 2.949h.002-.002zm-.81.107c.281 0 .554-.033.81-.107a1.467 1.467 0 0 0-.644 1.213c0 .355.132.669.34.925a13.64 13.64 0 0 1-2.585-2.849 3.062 3.062 0 0 0 2.08.818zm.928 1.106a.711.711 0 1 0 .712-.71.716.716 0 0 0-.713.71zm2.178-.132a6.373 6.373 0 0 0 4.191 4.055 13.518 13.518 0 0 1-6.287-2.602 1.47 1.47 0 0 0 2.113-1.321.374.374 0 0 0-.01-.072c-.003-.02-.007-.04-.007-.06zm11.23-2.015c0-2.865-2.335-5.194-5.209-5.202a5.208 5.208 0 0 0-5.21 5.202c0 2.874 2.336 5.194 5.21 5.203 2.874-.009 5.21-2.337 5.21-5.203zm1.492 3.393c.43.27.968.298 1.424.076a13.598 13.598 0 0 1-6.286 2.6 6.373 6.373 0 0 0 4.19-4.054.716.716 0 0 0-.016.132c-.002.506.258.977.688 1.246zm1.5-1.246a.711.711 0 1 0-.713.71.717.717 0 0 0 .712-.71zm.927-1.107a3.06 3.06 0 0 0 2.078-.817 13.642 13.642 0 0 1-2.584 2.849c.207-.256.34-.57.34-.925 0-.486-.242-.94-.646-1.214.265.07.538.106.812.108z"/></symbol><symbol viewBox="0 0 32 32" id="svg-sprite--telegram" xmlns="http://www.w3.org/2000/svg"><path fill-rule="evenodd" clip-rule="evenodd" d="M28.824 5.844L16.85 26.524V3.818h10.778c.495 0 .94.252 1.19.674.248.423.25.928.005 1.352zM3.037 4.492a1.367 1.367 0 0 1 1.19-.674h10.778v22.706L3.032 5.844a1.324 1.324 0 0 1 .005-1.352zm27.378-.913A3.2 3.2 0 0 0 27.629 2H4.227a3.2 3.2 0 0 0-2.786 1.58 3.1 3.1 0 0 0-.013 3.165l14.5 25.045 14.5-25.045a3.101 3.101 0 0 0-.013-3.166z"/></symbol><symbol viewBox="0 0 32 32" id="svg-sprite--tezos" xmlns="http://www.w3.org/2000/svg"><path fill-rule="evenodd" clip-rule="evenodd" d="M30.984 15.996c0 8.275-6.717 14.992-14.992 14.992C7.718 30.988 1 24.267 1 15.992 1 7.718 7.714 1 15.992 1c8.279 0 14.992 6.722 14.992 14.996zm-16.235 9.91c.722.76 1.87 1.13 3.447 1.13 1.07 0 2.063-.216 2.98-.664a4.33 4.33 0 0 0 2.063-2.062 6.72 6.72 0 0 0 .683-2.98c0-.487-.079-1.012-.197-1.616-.117-.604-.392-1.228-.8-1.89-.407-.663-.992-1.189-1.753-1.557-.737-.389-1.42-.585-2.023-.585-.369.04-.722.118-1.051.255l5.565-5.592-.894-.894-9.094.02V5.553l-.875-.447h-2.337v.663l.8.8V9.49H7.737v1.286h3.506v6.895c0 .992.29 1.792.855 2.376.584.584 1.6.875 3.098.875a2.97 2.97 0 0 0 1.655-.506c.506-.33.894-.816 1.169-1.46.009-.07.022-.134.034-.19a.856.856 0 0 0 .024-.158.692.692 0 0 0-.176-.467c-.133-.098-.231-.137-.33-.137-.058 0-.098.02-.156.059-.04.02-.079.078-.118.157a4.55 4.55 0 0 1-.953.972c-.369.27-.741.408-1.149.408-.506 0-.894-.177-1.149-.545-.25-.373-.369-.84-.369-1.404v-6.875h6.871l-4.965 6.62v.545l1.098-.525c.604-.33 1.09-.506 1.498-.506.624 0 1.189.157 1.714.486.526.31.914.816 1.188 1.498.27.663.408 1.463.408 2.416 0 .878-.114 1.655-.368 2.337-.255.682-.644 1.208-1.17 1.557a3.12 3.12 0 0 1-1.772.525c-.47 0-.937-.058-1.404-.196-.466-.137-.815-.353-1.03-.643.254-.078.485-.25.662-.486.176-.232.274-.545.274-.933 0-.314-.078-.585-.196-.8a1.257 1.257 0 0 0-.506-.506c-.215-.137-.486-.196-.8-.196-.313 0-.584.078-.8.196-.215.117-.388.29-.506.506-.137.215-.196.49-.196.8 0 .878.35 1.674 1.071 2.435z"/></symbol><symbol viewBox="0 0 32 32" id="svg-sprite--toda" xmlns="http://www.w3.org/2000/svg"><path fill-rule="evenodd" clip-rule="evenodd" d="M23.675 12.659h-6.619l6.559 10.956H8.335l6.558-10.956H8.275V8.334h15.4v4.325zM15.975 1C7.705 1 1 7.704 1 15.975c0 8.27 6.704 14.974 14.975 14.974 8.27 0 14.974-6.704 14.974-14.974S24.245 1 15.975 1z"/></symbol><symbol viewBox="0 0 32 32" id="svg-sprite--traceto" xmlns="http://www.w3.org/2000/svg"><title>Icon/traceto/normal</title><g fill-rule="evenodd"><path d="M1 30.968V1.038h29.93v29.93H1zM2 30h28V2H2v28z"/><path d="M25.48 18.627c-.242.346-.561.58-.98.662-.29.056-.57.013-.838-.106l-.088-.044c-.07-.036-.13-.023-.19.03-.175.16-.354.315-.53.472l-1.366 1.213-1.273 1.13c-.01.009-.017.02-.027.026-.094.053-.11.137-.112.239-.007.23-.052.454-.162.66-.238.442-.6.713-1.099.796-.795.133-1.597-.482-1.674-1.313a1.505 1.505 0 0 1 .022-.413.195.195 0 0 0-.067-.197c-.448-.394-.895-.788-1.341-1.184L14.51 19.49l-.036-.034c-.132-.114-.18-.11-.29.026a1.53 1.53 0 0 1-.604.468 1.446 1.446 0 0 1-1.569-.294c-.032-.03-.063-.064-.096-.095-.084-.08-.145-.082-.234-.004l-.33.293-1.402 1.245-1.245 1.108-.155.139c-.084.075-.09.107-.051.215.036.1.077.199.098.302a1.452 1.452 0 0 1-.724 1.57 1.466 1.466 0 0 1-2.157-1.012c-.125-.637.223-1.277.757-1.556.494-.257.982-.238 1.46.046.111.067.156.067.252-.018.34-.3.678-.603 1.017-.904l1.374-1.22.917-.813a.19.19 0 0 0 .068-.183 1.469 1.469 0 0 1 1.236-1.622c.573-.084 1.035.124 1.387.576.195.25.291.54.303.853a.27.27 0 0 0 .1.21l.68.6 1.366 1.212c.226.201.45.403.678.602.121.107.174.104.292-.01a1.443 1.443 0 0 1 2.065.062c.039.042.075.087.113.13.07.078.13.088.211.02.135-.113.265-.23.397-.347l1.714-1.52.84-.753c.091-.082.095-.113.038-.223a1.492 1.492 0 0 1-.183-.85 1.493 1.493 0 0 1 1.22-1.314c.08-.013.163-.011.245-.016.76-.014 1.45.61 1.469 1.455.006.29-.086.556-.252.793zM5.606 13.214c-.173.065-.35.118-.535.123a2.392 2.392 0 0 1-.427-.024c-.353-.056-.586-.286-.658-.653a2.458 2.458 0 0 1-.05-.461c-.005-.847-.003-1.694-.003-2.54 0-.029.003-.057.006-.102l.528-.093c.018.297-.002.585.012.888h1.075v.454c-.353.016-.707 0-1.071.01-.003.04-.008.074-.008.11-.001.433-.004.867.001 1.3.002.109.02.22.049.325.056.205.181.297.391.308.194.01.384-.003.564-.086.026-.012.054-.019.099-.034l.095.39c.013.055-.03.07-.068.085zm.715-2.769c.351-.103.708-.168 1.075-.137.153.012.305.042.474.067-.031.164-.06.31-.087.46-.178-.023-.35-.05-.521-.064-.177-.015-.349.025-.53.075v2.42h-.52c-.002-.041-.007-.08-.007-.12v-2.54c0-.126 0-.127.116-.16zm1.86 1.665c.089-.264.287-.421.542-.51a1.9 1.9 0 0 1 1.004-.063l.108.02c.012.002.024 0 .053 0 .005-.181-.006-.35-.081-.51a.464.464 0 0 0-.296-.255 1.041 1.041 0 0 0-.362-.039 2.745 2.745 0 0 0-.65.107l-.063-.446c.113-.028.213-.058.316-.077.288-.052.577-.067.866-.016.455.08.721.365.773.824.014.13.022.26.023.39.003.512.001 1.023.001 1.535v.14c-.033.012-.062.027-.093.032a6.254 6.254 0 0 1-1.12.096 1.423 1.423 0 0 1-.628-.139.777.777 0 0 1-.424-.594.989.989 0 0 1 .03-.495zm3.096-1.125c.238-.444.62-.668 1.121-.689.255-.01.506.013.748.099.03.01.06.023.1.038l-.113.44c-.134-.033-.258-.07-.385-.092a1.14 1.14 0 0 0-.51.018.727.727 0 0 0-.519.495 1.6 1.6 0 0 0 .01 1.069c.102.282.318.434.609.488.272.05.536.012.795-.072l.084-.027c.024.137.05.268.067.4.002.021-.028.06-.052.07a.98.98 0 0 1-.186.058c-.297.066-.597.098-.897.03-.531-.117-.874-.439-1.006-.97-.117-.466-.096-.925.134-1.355zm2.452.296c.156-.529.491-.878 1.05-.972.228-.038.458-.026.678.052.313.111.52.33.633.64.108.296.127.605.116.917 0 .01-.008.022-.017.046H14.24a.814.814 0 0 0 .68.886c.3.047.594.022.883-.073.03-.01.062-.02.093-.028.008-.002.016.001.04.004l.073.42c-.037.018-.067.039-.1.05a2.25 2.25 0 0 1-1.207.076c-.547-.122-.873-.472-.993-1.012a1.984 1.984 0 0 1 .022-1.006zm3.165-1.608c0-.036.004-.073.006-.118l.503-.087c.036.1.014.197.018.293.004.093 0 .188 0 .282v.309c.37.01.728-.002 1.094.007v.449c-.358.012-.716-.002-1.085.007-.003.046-.008.086-.008.125 0 .38-.004.76.002 1.14.002.147.016.295.046.437.048.233.187.334.426.343.186.007.367-.01.54-.086.025-.012.053-.018.094-.031l.058.21c.017.072.032.143.05.227-.382.168-.764.213-1.156.104a.701.701 0 0 1-.51-.516 1.874 1.874 0 0 1-.073-.47c-.008-.875-.005-1.75-.005-2.625zm2.331 1.131a1.25 1.25 0 0 1 .988-.51c.368-.015.694.081.97.33a1.2 1.2 0 0 1 .297.401c.24.532.251 1.071-.005 1.596-.234.48-.636.717-1.171.727-.393.007-.733-.122-.998-.413a1.497 1.497 0 0 1-.38-.947c-.004-.057-.001-.114-.001-.171-.01-.37.075-.715.3-1.013zm3.382 1.783c.227.001.38.16.377.39-.002.221-.157.371-.382.37a.37.37 0 0 1-.38-.388.366.366 0 0 1 .385-.372zm1.119.678v-2.9h.516v2.9h-.516zm3.819-.708c-.228.509-.63.774-1.194.791-.709.022-1.234-.465-1.359-1.131-.071-.381-.055-.757.101-1.117.193-.445.529-.716 1.012-.794.072-.012.146-.01.22-.015.579-.014 1.08.341 1.269.916.15.453.148.912-.05 1.35zm-3.56-3.4c.211.005.353.16.334.357.016.222-.18.347-.348.341a.335.335 0 0 1-.333-.35c0-.2.145-.352.348-.348zM7.175 22.272a.884.884 0 0 1 .865.893c-.002.428-.364.883-.893.861-.468.014-.869-.4-.867-.876a.886.886 0 0 1 .895-.878zm11.436-.895c.534.003.883.45.867.877a.863.863 0 0 1-.88.877.871.871 0 0 1-.87-.878c0-.436.341-.879.883-.876zm-9.58-8.525c-.266-.067-.387-.246-.349-.518.028-.198.165-.3.337-.348.272-.076.55-.066.825-.003.014.003.027.016.042.025v.844c-.084.01-.164.026-.244.028-.204.003-.409.024-.61-.028zm6.601-1.323h-1.377c-.018-.323.228-.688.554-.761a.7.7 0 0 1 .443.032c.262.115.423.422.38.729zm4.665 1.346c-.321.003-.558-.14-.687-.424a1.441 1.441 0 0 1 .014-1.289c.25-.5.86-.478 1.143-.235.137.119.227.27.27.443.036.145.051.295.076.444-.013.222-.044.434-.144.632-.14.274-.357.425-.672.429zm-7.274 4.84c.457.003.88.346.876.881-.004.571-.448.88-.878.88-.432 0-.874-.3-.881-.876-.007-.554.435-.888.883-.884zm11.234-.743c.478 0 .862.388.876.858a.884.884 0 0 1-.873.887.865.865 0 0 1-.864-.877c-.029-.416.357-.868.86-.868zm2.552-6.037c.171.142.254.337.295.55.02.107.026.218.039.327-.005.207-.032.41-.119.598-.107.234-.275.4-.54.451a.748.748 0 0 1-.838-.405 1.245 1.245 0 0 1-.126-.483c-.018-.276.002-.545.133-.798a.754.754 0 0 1 1.156-.24z"/></g></symbol><symbol viewBox="0 0 32 32" id="svg-sprite--traceto_old" xmlns="http://www.w3.org/2000/svg"><g fill-rule="evenodd" clip-rule="evenodd"><path d="M30.93 30.968H1V1.038h29.93v29.93zM30 30H2V2h28v28z"/><path d="M24.5 19.29c.419-.082.738-.317.98-.663.165-.237.257-.503.25-.793-.017-.845-.709-1.469-1.468-1.455l-.078.003a1.285 1.285 0 0 0-.167.013 1.492 1.492 0 0 0-1.22 1.314 1.49 1.49 0 0 0 .183.85c.057.11.053.14-.038.223-.28.252-.56.503-.84.752-.526.468-1.053.934-1.58 1.401l-.134.12-.086.076-.007.006c-.1.09-.2.179-.304.265-.08.068-.14.058-.21-.02a4.397 4.397 0 0 1-.046-.052c-.022-.026-.044-.052-.068-.077a1.443 1.443 0 0 0-2.065-.063c-.118.114-.17.117-.292.01-.16-.14-.318-.28-.476-.422l-.202-.18-.379-.335-.212-.189-.775-.688-.68-.6a.271.271 0 0 1-.1-.21 1.443 1.443 0 0 0-.303-.853c-.352-.452-.814-.66-1.386-.576a1.47 1.47 0 0 0-1.237 1.622.19.19 0 0 1-.068.183l-.844.75-.073.064-.527.467-.847.752-.377.336-.005.004-.046.04-.589.524c-.096.085-.14.085-.252.018-.478-.284-.966-.303-1.46-.046-.534.28-.882.919-.757 1.556a1.466 1.466 0 0 0 2.157 1.013c.53-.296.857-.895.724-1.57a1.587 1.587 0 0 0-.075-.242l-.006-.016-.017-.045c-.038-.108-.033-.14.051-.215l.155-.14.286-.254.145-.129.096-.085.078-.07.089-.079.551-.49.85-.754.552-.49.118-.106.016-.014.009-.008.187-.166c.089-.078.15-.076.235.004l.038.038.002.002.002.002.003.003.004.004.005.005.003.003.038.038c.407.39 1.015.529 1.569.294a1.54 1.54 0 0 0 .604-.467c.11-.137.158-.14.29-.027a.417.417 0 0 1 .036.034l.34.303.061.055.037.032a325.314 325.314 0 0 0 2.148 1.902.195.195 0 0 1 .067.197 1.507 1.507 0 0 0-.022.413c.077.831.88 1.446 1.674 1.313.499-.082.86-.354 1.099-.796.11-.206.155-.43.162-.66.003-.102.017-.186.112-.24a.07.07 0 0 0 .017-.014l.001-.002.009-.008 1.273-1.131.66-.586.705-.627.133-.118.038-.033.36-.32c.06-.054.12-.067.19-.031l.015.007a1.374 1.374 0 0 0 .91.143zM5.071 13.336c.185-.005.362-.058.535-.123l.002-.001c.038-.014.079-.03.066-.084a28.471 28.471 0 0 0-.058-.24l-.008-.032v-.002l-.03-.116a1.98 1.98 0 0 1-.04.014c-.023.007-.041.012-.058.02a1.17 1.17 0 0 1-.564.086c-.21-.01-.335-.103-.39-.308a1.293 1.293 0 0 1-.05-.325 68.861 68.861 0 0 1-.002-1.017v-.284c0-.023.003-.047.006-.071v-.013l.001-.007.002-.017c.168-.005.333-.004.498-.003.192 0 .383.002.573-.007v-.454H4.48a7.594 7.594 0 0 1-.005-.42v-.006a6.705 6.705 0 0 0-.007-.462l-.528.093c0 .015-.002.027-.003.039V9.6a.828.828 0 0 0-.003.058v.594c0 .65-.001 1.298.003 1.947 0 .154.02.31.05.461.073.367.305.597.658.653.14.022.285.027.427.024zm2.325-3.03c-.367-.03-.724.035-1.074.138-.116.034-.117.035-.117.162v2.54c0 .024.002.05.004.075v.004l.004.04h.52v-2.42c.18-.05.352-.09.529-.075.119.01.237.026.358.042h.001c.054.007.107.015.162.021l.087-.46a10.18 10.18 0 0 1-.158-.024c-.108-.017-.212-.034-.316-.042zM8.723 11.6c-.255.088-.453.245-.543.51a.989.989 0 0 0-.03.494c.047.268.18.469.423.594.198.102.412.134.629.14.376.009.749-.04 1.12-.097a.298.298 0 0 0 .062-.02.71.71 0 0 1 .031-.011v-.566l-.001-1.11c0-.13-.009-.26-.023-.39-.052-.459-.318-.745-.773-.824a2.451 2.451 0 0 0-1.077.066H8.54l-.004.002a7.333 7.333 0 0 1-.098.025l.063.446c.222-.066.434-.096.65-.107a1.05 1.05 0 0 1 .362.039.465.465 0 0 1 .296.256c.075.16.086.328.081.51h-.026l-.027-.001a3.25 3.25 0 0 1-.108-.02 1.9 1.9 0 0 0-1.004.064zm3.675-1.305c-.501.02-.883.245-1.12.689-.231.43-.252.89-.135 1.356.132.53.475.852 1.006.97.3.067.6.035.897-.03a1.01 1.01 0 0 0 .187-.059c.023-.01.053-.049.05-.07a5.76 5.76 0 0 0-.045-.282l-.002-.008v-.004l-.02-.106-.082.027c-.26.084-.524.122-.796.072-.291-.054-.507-.206-.61-.488a1.605 1.605 0 0 1-.008-1.07.726.726 0 0 1 .518-.494 1.14 1.14 0 0 1 .51-.018c.087.015.173.037.261.06l.124.032.114-.44-.038-.014-.003-.002-.06-.022a1.965 1.965 0 0 0-.748-.099zm2.382.013c-.56.094-.895.443-1.051.972-.098.331-.097.67-.022 1.006.12.54.446.89.993 1.012a2.25 2.25 0 0 0 1.207-.076.384.384 0 0 0 .066-.032.824.824 0 0 1 .034-.018l-.073-.42a.437.437 0 0 1-.021-.003.046.046 0 0 0-.019-.001 1.636 1.636 0 0 0-.093.028c-.289.095-.582.12-.883.073a.814.814 0 0 1-.68-.886h1.951a.38.38 0 0 1 .01-.022c.004-.01.007-.017.007-.024.011-.312-.008-.62-.116-.917a1.012 1.012 0 0 0-.633-.64c-.22-.078-.45-.09-.677-.052zm2.118-.713a1.232 1.232 0 0 0-.004.077v.633c0 .664-.001 1.328.004 1.992.002.157.032.317.074.47a.7.7 0 0 0 .51.516c.392.109.774.064 1.156-.104l-.017-.077V13.1a5.974 5.974 0 0 0-.033-.147l-.039-.144-.019-.067a1.715 1.715 0 0 1-.038.011.457.457 0 0 0-.056.02 1.186 1.186 0 0 1-.54.086c-.239-.009-.378-.11-.427-.343a2.332 2.332 0 0 1-.045-.436c-.005-.285-.004-.57-.003-.856l.001-.285c0-.027.002-.053.004-.081v-.002l.004-.042c.174-.004.345-.003.515-.002.192 0 .38.001.57-.005v-.45a23.255 23.255 0 0 0-.528-.002c-.187 0-.375 0-.565-.004v-.395a4.269 4.269 0 0 0 0-.196c-.002-.027 0-.054 0-.08v-.007a.518.518 0 0 0-.02-.206l-.502.087-.002.041zm3.315.699a1.24 1.24 0 0 0-.987.51c-.226.297-.312.642-.301 1.012v.063c-.001.036-.002.072 0 .108.022.358.139.681.381.947.265.291.605.42.998.413.535-.01.937-.248 1.171-.727.256-.525.245-1.064.005-1.596a1.2 1.2 0 0 0-.297-.401c-.276-.249-.603-.345-.97-.33zm2.771 2.682c.003-.23-.15-.389-.377-.39a.366.366 0 0 0-.385.372.37.37 0 0 0 .38.388c.225.001.38-.148.382-.37zm1.258.288h-.516v-2.9h.516v2.9zm2.11.083c.562-.017.965-.282 1.193-.79.197-.44.198-.898.049-1.351-.19-.575-.69-.93-1.27-.916a.802.802 0 0 1-.07.003c-.05.002-.1.004-.15.012-.482.078-.818.349-1.011.794-.156.36-.172.736-.1 1.117.124.666.65 1.153 1.358 1.131zm-2.366-4.19c.21.004.352.158.333.356.016.222-.18.347-.348.341a.335.335 0 0 1-.333-.35c0-.2.145-.352.348-.348z"/></g></symbol><symbol viewBox="0 0 32 32" id="svg-sprite--trusttoken" xmlns="http://www.w3.org/2000/svg"><g fill-rule="evenodd" clip-rule="evenodd"><path d="M30.238 11.554a6.566 6.566 0 0 0-.5-1.095l.5 1.095zM14.447 26.507c-.914.255-1.86.38-2.809.373a10.568 10.568 0 0 1-3.815-.788c-3.786-1.559-5.436-4.938-5.738-5.588-.884-1.901-.985-3.584-1.054-4.722l-.005-.09c-.08-1.336.012-2.836.462-4.343.162-.528.362-1.043.598-1.542.02-.043.042-.086.064-.13l.004-.007C6.053 1.36 16.972-1.476 24.5 3.89a15.466 15.466 0 0 1 2.778 2.554c.396.468.6.771.632.823.335.471.645.959.928 1.462.47.832.863 1.705 1.173 2.609a6.68 6.68 0 0 0-.496-1.104l.496 1.104c-1.932-3.083-4.696-5.692-8.13-7.029-3.206-1.248-6.873-1.34-10.15-.296-3.666 1.168-6.747 3.84-7.9 7.539-1.21 3.876-.543 8.933 3.01 11.417 2.812 1.966 7.044 2.201 9.698.184 2.13-1.619 2.971-4.45 2.971-7.011v-2.356h2.213l.001 1.628a472.246 472.246 0 0 0-.012 1.055c-.026 1.424-.176 2.94-.71 4.273a9.642 9.642 0 0 1-2.07 3.15c-.396.403-1.941 1.905-4.486 2.614zm4.485-19.215c1.454.201 2.884.637 4.19 1.308a11.03 11.03 0 0 1 4.46 4.169c1.846 3.101 1.788 6.126 1.363 8.22-.349 1.714-.942 2.804-.942 2.804-.344.616-1.641 2.827-4.204 4.64a13.737 13.737 0 0 1-3.882 1.915c-.83.26-1.682.442-2.546.543l-.045.005-.092.01-.061.007c-.484.05-.97.074-1.457.073h-.031a14.987 14.987 0 0 1-2.365-.187 14.81 14.81 0 0 1-4.329-1.397l-.216-.107a11.778 11.778 0 0 1-.618-.321 5.249 5.249 0 0 1-.52-.344l-.017-.012a2.137 2.137 0 0 1-.051-.038c.703.285 1.43.51 2.171.671.81.143 1.626.243 2.446.3 4.202.275 9.1-1.093 12.07-4.2 1.278-1.336 2.199-2.995 2.552-4.984.155-.877.54-3.232-.634-5.692-1.58-3.314-5.019-5.07-8.59-5.07h-7.05v4.317h4.85v2.107c.005.858-.004 1.915-.05 3.052-.115 2.822-2.173 3.423-2.173 3.423v-6.246h-5.2v-9.02l2.177-.012 4.654-.023c.318-.001.637-.008.959-.014 1.062-.02 2.138-.042 3.18.103z"/></g></symbol><symbol viewBox="0 0 32 32" id="svg-sprite--wanchain" xmlns="http://www.w3.org/2000/svg"><g fill-rule="evenodd" clip-rule="evenodd"><path d="M15.854 14.198L2 22.333v4.47l13.854-8.134 13.854 8.134v-4.47l-13.854-8.135z"/><path opacity=".4" d="M6.048 9.264l9.806-5.662 9.806 5.662 3.661-1.489L15.854 0 2.387 7.775l3.66 1.489z"/><path d="M25.66 10.21v12.52l-1.456.842 3.093 1.816 2.411-1.392V8.565L25.66 10.21zM7.504 23.573l-1.468-.848V10.206L2 8.565v15.43l2.41 1.393 3.094-1.816z"/><path opacity=".4" d="M23.34 24.07l-7.486 4.322-7.486-4.322-3.094 1.816 10.58 6.108 10.58-6.108-3.094-1.816z"/></g></symbol><symbol viewBox="0 0 32 32" id="svg-sprite--zilliqa" xmlns="http://www.w3.org/2000/svg"><path opacity=".3" d="M5.07 2.05l17.409 8.612 4.457-2.05L9.598 0 5.07 2.05z"/><path opacity=".6" d="M22.479 10.642l4.457-2.05v4.584l-4.457 2.05v-4.584z"/><path d="M5.07 2.054V6.69l12.05 5.975-12.05 6.1v4.569l17.409 8.597v-4.599L10.656 21.46l11.823-6.21v-4.583L5.07 2.054z"/><path opacity=".6" d="M22.479 31.897l4.457-2.05V15.522l-4.457 2.073v14.3z"/></symbol></svg>